<svg id="Layer_1" data-name="Layer_1" xmlns="http://www.w3.org/2000/svg" viewBox="0 0 500 500">
	<defs>
		<style>
			.cls-1{fill:#ffffff;}
		</style>
	</defs>
	<title>
		akaSwap
	</title>
	<polygon class="cls-1" points="143.94 199.56 143.94 300.4 124.74 300.4 124.74 218.54 124.56 218.54 53.23 300.4 29.63 300.4 120.33 199.56 143.94 199.56" />
	<polygon class="cls-1" points="178.46 249.51 230.24 300.4 206.46 300.4 156.44 249.51 206.46 199.56 230.24 199.56 178.46 249.51" />
	<polygon class="cls-1" points="357.05 199.56 357.05 300.4 337.86 300.4 337.86 218.54 337.68 218.54 266.35 300.4 242.75 300.4 333.45 199.56 357.05 199.56" />
	<polygon class="cls-1" points="404.23 217.44 462.19 217.44 462.19 200.2 368.44 200.27 434.12 282.09 372.37 282.09 372.37 300.44 470.37 300.44 404.23 217.44" />
</svg>
