<?xml version="1.0" encoding="utf-8"?>
<!-- Generator: Adobe Illustrator 25.4.1, SVG Export Plug-In . SVG Version: 6.00 Build 0)  -->
<svg version="1.1" id="Layer_1" xmlns="http://www.w3.org/2000/svg" xmlns:xlink="http://www.w3.org/1999/xlink" x="0px" y="0px"
	 viewBox="0 0 500 500" style="enable-background:new 0 0 500 500;" xml:space="preserve">
<style type="text/css">
	.st0{fill:#FFFFFF;}
</style>
<g>
	<path class="st0" d="M29.7,228.5l20.4,11.6v23.3l-20.4-11.6V228.5z"/>
	<path class="st0" d="M134.9,187.6c-40-22.8-89-22.8-129,0l-3.4,2v73.8c0,16.8,9,32.4,23.6,40.7l0.1,0.1l0,0l0,0l20.4,11.6
		l20.4,11.6l3.4,1.9l3.4-1.9l20.4-11.6l20.4-11.6l0,0l0,0l0.1-0.1c14.6-8.4,23.6-23.9,23.6-40.7v-73.8L134.9,187.6z M131.5,217.1
		l-20.4,11.6v69.6l0,0L90.8,310v-69.8l-20.4,11.6v69.8L50.1,310v-23.3l-20.4-11.6v23.3l-0.2-0.1C17,291.1,9.3,277.8,9.3,263.4v-69.8
		l61.1,34.9l61.1-34.9L131.5,217.1z"/>
	<path class="st0" d="M185,260.9h-13.4l-2.1,7h-7.1l12.1-35.8h7.6l12.2,35.8H187L185,260.9z M183.2,255.1l-4.9-16.5l-5,16.5H183.2z"
		/>
	<path class="st0" d="M204.9,232.1h11.4c4.8,0.1,8,0.1,11.1,2.6c2.6,2.2,4.1,5.4,4,8.8c0.2,4.5-2.7,8.6-7,9.8l8,14.5h-7.7l-7.1-13.3
		h-6v13.3h-6.6L204.9,232.1z M211.5,237.9v11.2h2.3c2.3,0,3.1-0.1,4.4-0.1c1.5-0.1,6.3-0.3,6.3-5.5c0.1-2-1-3.9-2.8-4.8
		c-1.4-0.7-3.1-0.8-7.1-0.8L211.5,237.9z"/>
	<path class="st0" d="M273.7,257.9c-0.7,1.9-1.8,3.8-3.1,5.4c-3.1,3.6-7.6,5.6-12.4,5.5c-9.5,0-16.7-6.9-16.7-18.9
		c0-12.2,7.9-18.7,17-18.7c6.9-0.3,13,4.3,14.6,11l-6.7,1.8c-0.2-1.3-0.6-2.5-1.3-3.5c-1.5-2.1-3.9-3.2-6.4-3.1
		c-5.8,0-9.9,4.8-9.9,12.5c0,8.2,4.3,12.7,9.9,12.7c2.7,0,5.3-1.3,6.8-3.5c0.8-1.1,1.5-2.4,1.9-3.7L273.7,257.9z"/>
	<path class="st0" d="M313.5,232.1v35.8h-6.7v-16.3h-15.4v16.3h-6.7v-35.8h6.7v13.5h15.4v-13.5H313.5z"/>
	<path class="st0" d="M333.6,238.1v8.4h17.2v5.8h-17.2v9.6h20.1v6H327v-35.8h25.4v6L333.6,238.1z"/>
	<path class="st0" d="M388.2,238.2h-9.9v29.7h-6.7v-29.7H362v-6.1h26.3L388.2,238.2z"/>
	<path class="st0" d="M413.7,253.8v14.1h-6.6v-14.1l-12-21.6h7.6l7.8,14.8l7.9-14.8h7.5L413.7,253.8z"/>
	<path class="st0" d="M433.9,232.1H446c2.1-0.1,4.1,0.1,6.1,0.6c5.1,1.3,8.7,6.1,8.4,11.4c0.4,5.4-3.3,10.2-8.6,11.3
		c-2,0.4-4,0.5-6,0.5h-5.2v12.1h-6.7L433.9,232.1z M440.7,237.8v12.4h4.8c1.3,0.1,2.6,0,3.8-0.3c2.8-0.7,4.6-3.3,4.4-6.1
		c0.1-1.7-0.6-3.4-1.8-4.6c-1.8-1.2-4-1.7-6.2-1.5L440.7,237.8z"/>
	<path class="st0" d="M477.4,238.1v8.4h17.2v5.8h-17.2v9.6h20.1v6h-26.7v-35.8h25.4v6L477.4,238.1z"/>
</g>
</svg>
