<?xml version="1.0" encoding="utf-8"?>
<!-- Generator: Adobe Illustrator 25.4.1, SVG Export Plug-In . SVG Version: 6.00 Build 0)  -->
<svg version="1.1" id="Layer_1" xmlns="http://www.w3.org/2000/svg" xmlns:xlink="http://www.w3.org/1999/xlink" x="0px" y="0px"
	 viewBox="0 0 500 500" style="enable-background:new 0 0 500 500;" xml:space="preserve">
<style type="text/css">
	.st0{fill:#FAFCFD;}
	.st1{fill:#4BA0D4;}
</style>
<g id="Layer_2_1_">
	<g id="Layer_1-2">
		<path class="st0" d="M158.4,259.6c-1.6-6.6-5.7-11.4-12.3-14.1c7-5.9,8.7-8.2,9.8-12.6c3.9-15.2-6.5-29.6-22.5-30.1
			s-32-0.2-48-0.1c-2,0-3.6,1.6-3.6,3.6v89.2c14.5,0,29,0,43.4-0.1c3.4,0,6.8-0.2,10.3-0.7C157,291.1,161.9,274,158.4,259.6z
			 M101.5,218.9c9,0,17.8-0.2,26.5,0.1c6.2,0.2,9.3,3.6,9.4,9.3c0.1,5.8-2.8,9.7-9.1,10.1c-8.8,0.5-17.8,0.1-26.9,0.1v-19.6H101.5z
			 M128.2,279.2c-8.8,0.3-17.5,0.1-26.7,0.1v-24.5h2.9c7.9,0,15.9-0.1,23.8,0.1c7.7,0.2,11.9,4.3,12,11.1
			C140.3,273.2,135.3,278.9,128.2,279.2L128.2,279.2z"/>
		<path class="st0" d="M228.9,246.3c-0.2-8-3.8-15.1-11.8-18.3c-12.2-4.9-24.6-4.9-36.6,0.6c-7.8,3.5-12.4,13.1-10.6,20.5h16.2
			c3.6-9.4,11.8-12.8,20.3-8.6c3.7,1.8,5.5,6.3,2.9,9.1c-1.6,1.8-4.3,2.9-6.7,3.4c-5.6,1.3-11.4,1.9-17.1,3.1
			c-11.6,2.3-17.2,8.2-18.5,19.2c-1.4,11.5,4.8,19.8,16.3,21.7c0.6,0.1,1.3,0.5,1.9,0.7h9.3c5.5-2.1,11-4.1,16.3-6.1
			c0.6,0.9,1.6,3.6,2.7,3.7c5.1,0.4,10.3,0.2,15.6,0.2C229.1,278.8,229.4,262.5,228.9,246.3z M208.8,275.5
			c-2.9,6.4-8.8,8.8-15.8,8.6c-3.4-0.1-6.3-1.4-7.2-5.1c-1.1-4.1,0.1-8.1,3.6-9.8c3.3-1.6,6.8-2.4,10.3-3.5s7.1-1.8,11.8-3
			C210.7,267.2,210.6,271.7,208.8,275.5z"/>
		<path class="st0" d="M370.7,246.3c-0.2-8-3.8-15.1-11.8-18.3c-12.2-4.9-24.6-4.9-36.6,0.6c-7.8,3.5-12.4,13.1-10.6,20.5h16.2
			c3.6-9.4,11.8-12.8,20.3-8.6c3.7,1.8,5.5,6.3,2.9,9.1c-1.6,1.8-4.3,2.9-6.6,3.4c-5.6,1.3-11.4,1.9-17.1,3.1
			c-11.6,2.3-17.2,8.2-18.5,19.2c-1.4,11.5,4.8,19.8,16.3,21.7c0.6,0.1,1.3,0.5,1.9,0.7h9.3l16.3-6.1c0.6,0.9,1.6,3.6,2.7,3.7
			c5.1,0.4,10.3,0.2,15.6,0.2C370.9,278.8,371.2,262.5,370.7,246.3z M348.5,278.7c-3.5,3.9-8.6,5.8-13.7,5.3
			c-3.4-0.2-6.3-1.4-7.3-5.1c-1.1-4.3,0.2-8.2,3.9-9.9c3.3-1.5,6.8-2.4,10.4-3.4c3.4-1,6.8-1.8,10.6-2.7
			C352.8,268.5,352.8,274.1,348.5,278.7z"/>
		<path class="st0" d="M444.8,246.3c-0.2-8-3.8-15.1-11.8-18.3c-12.2-4.9-24.6-4.9-36.6,0.6c-7.8,3.5-12.4,13.1-10.6,20.5H402
			c3.6-9.4,11.8-12.8,20.3-8.6c3.7,1.8,5.5,6.3,2.9,9.1c-1.6,1.8-4.3,2.9-6.7,3.4c-5.6,1.3-11.4,1.9-17.1,3.1
			c-11.6,2.3-17.2,8.2-18.5,19.2c-1.4,11.5,4.8,19.8,16.3,21.7c0.6,0.1,1.3,0.5,1.9,0.7h9.3c5.5-2.1,11-4.1,16.3-6.1
			c0.6,0.9,1.6,3.6,2.7,3.7c5.1,0.4,10.3,0.2,15.6,0.2C444.9,278.8,445.3,262.5,444.8,246.3z M409.3,284.1c-4.4-0.1-7-2-7.8-5.3
			c-0.9-4.4,0.4-8,4.2-9.8c2.2-1.1,4.6-1.9,7-2.5c4.5-1.2,9.1-2.2,13.6-3.4C428.1,275.5,420.9,284.6,409.3,284.1L409.3,284.1z"/>
		<path class="st0" d="M300.2,280.4v14.8h-59.5c0-4.5-0.1-9.1,0.1-13.6c0-0.9,1.1-1.8,1.7-2.6c10.1-11.6,20.2-23.2,30.3-34.7
			c0.7-0.9,1.4-1.7,2.6-3.2h-32.3v-14.3h56.1c0,4.7,0.1,9.3-0.1,13.8c-0.1,1.1-1.1,2.2-2,3.1c-10.3,11.6-20.7,23-31,34.5
			c-0.4,0.5-0.9,1.1-1.7,2h35.7L300.2,280.4z"/>
		<path class="st0" d="M498.7,224.9v18.3c-2.4-0.1-4.9-0.1-7.3,0.1c-9.5,1.1-14.1,6.3-14.1,15.8c-0.1,10.7,0,21.5,0,32.2v4.1H459
			V227h16.8c0.1,2.1,0.2,4.1,0.4,7.2C482.1,226.2,489.6,223.9,498.7,224.9z"/>
	</g>
</g>
<path class="st1" d="M51,202.7c5.3,0,10.6,0,15.9,0c2.5,0,4.3,1.7,4.3,4.2c0,10.8,0,21.6,0,32.5c0,1.3-0.5,2.3-1.4,3.2
	c-9.6,9.7-19.3,19.4-28.9,29.1c-1.9,1.9-4.3,1.9-6.2,0C24,261,13.3,250.2,2.7,239.4c-1.9-1.9-1.8-4.2,0.3-6.3
	c8.7-8.8,17.5-17.5,26.2-26.4c4.7-4.8,3.4-3.9,9.6-3.9C42.8,202.7,47,202.7,51,202.7z M46.9,234.4c0.3-0.3,0.6-0.5,0.8-0.7
	c2.3-2.2,2.9-4.9,2.1-7.8c-0.8-2.8-2.9-4-5.5-4.6c-0.9-0.2-1.7-0.3-2.6-0.4c-3.5,0-7,0-10.5-0.1c-1.1,0-1.5,0.4-1.5,1.5
	c0,2.8,0,5.5,0,8.3c0,2.2,0,2.2-2.2,2.5c-3.8,0.6-6.3,2.6-6.9,5.8c-0.3,1.4-0.2,2.9,0,4.4c0.4,3.4,0.4,3.4,3.9,3.4
	c0.1,0,0.3,0,0.4,0c1.6,0,1.9-0.4,1.3-1.8c-0.5-1.3-0.9-2.5-0.8-3.9c0.1-1.8,1-2.9,2.7-3.4c1.4-0.4,1.6-0.2,1.6,1.3
	c0,3.6,0,7.3,0,11c0,1.9,0.3,2.2,2.1,2.2c2.1,0,4.3-0.1,6.4,0c2.4,0.1,4.5-0.5,6.7-1.2s4.1-2.1,5.3-4.2
	C52.8,242.4,51.6,237.7,46.9,234.4z M54.3,214.5c0,3,2.5,5.4,5.5,5.3c2.8,0,5.3-2.5,5.3-5.1c-0.1-3.6-2.1-5.8-5.5-5.8
	C56.6,209.1,54.3,211.4,54.3,214.5z"/>
<path class="st0" d="M46.9,234.4c4.7,3.3,5.9,8,3.4,12.4c-1.2,2.1-3.1,3.5-5.3,4.2c-2.1,0.7-4.4,1.4-6.7,1.2c-2.1-0.1-4.3,0-6.4,0
	c-1.8,0-2.1-0.3-2.1-2.2c0-3.6,0-7.3,0-11c0-1.5-0.2-1.6-1.6-1.3c-1.7,0.4-2.6,1.6-2.7,3.4c-0.1,1.4,0.3,2.6,0.8,3.9
	c0.6,1.4,0.4,1.7-1.3,1.8c-0.1,0-0.3,0-0.4,0c-3.5,0-3.5,0-3.9-3.4c-0.1-1.5-0.2-2.9,0-4.4c0.6-3.2,3.1-5.3,6.9-5.8
	c2.2-0.4,2.2-0.4,2.2-2.5c0-2.8,0-5.5,0-8.3c0-1.1,0.4-1.6,1.5-1.5c3.5,0.1,7,0,10.5,0.1c0.9,0,1.7,0.1,2.6,0.4
	c2.6,0.6,4.7,1.9,5.5,4.6c0.8,3,0.2,5.6-2.1,7.8C47.5,233.9,47.2,234.1,46.9,234.4z M35.1,242.3c0,1.3,0,2.6,0,3.9
	c0,0.4-0.1,1,0.5,1c2.6-0.1,5.3,0.4,7.8-0.8c2-0.9,2.9-2.7,2.4-5.1c-0.3-2.1-1.6-3.4-3.6-3.6c-2.1-0.2-4.1-0.1-6.1-0.3
	c-0.8-0.1-1,0.3-1,1C35.2,239.7,35.1,241,35.1,242.3z M35.1,229.1c0,0.9,0,1.9,0,2.9c0,0.4-0.1,0.9,0.4,0.9c2.4-0.1,4.9,0.5,7.2-0.6
	c1.5-0.7,2.1-2.4,1.7-4.3c-0.3-1.5-1.2-2.1-3-2.3c-1.4-0.1-2.9-0.2-4.3-0.2c-2.4,0-2-0.2-2,1.9C35.1,227.9,35.1,228.5,35.1,229.1z"
	/>
<path class="st0" d="M54.3,214.5c0-3.1,2.3-5.4,5.3-5.5c3.4,0,5.5,2.1,5.5,5.8c0,2.6-2.6,5.1-5.3,5.1
	C56.8,219.9,54.3,217.5,54.3,214.5z"/>
<path class="st1" d="M35.1,242.3c0-1.3,0-2.6,0-3.9c0-0.7,0.2-1.1,1-1c2.1,0.1,4.1,0.1,6.1,0.3c2.1,0.2,3.4,1.5,3.6,3.6
	c0.4,2.4-0.5,4.2-2.4,5.1c-2.5,1.1-5.1,0.7-7.8,0.8c-0.6,0-0.5-0.6-0.5-1C35.1,244.8,35.1,243.5,35.1,242.3z"/>
<path class="st1" d="M35.1,229.1c0-0.6,0-1.1,0-1.7c0-2.1-0.4-1.9,2-1.9c1.4,0,2.9,0.1,4.3,0.2c1.9,0.1,2.7,0.9,3,2.3
	c0.4,1.9-0.2,3.6-1.7,4.3c-2.3,1.1-4.8,0.5-7.2,0.6c-0.6,0-0.4-0.5-0.4-0.9C35.1,230.9,35.1,230,35.1,229.1z"/>
</svg>
