<svg version="1.1" id="f63e95a9-fd19-4487-bc1a-09eb2f066704" xmlns="http://www.w3.org/2000/svg" x="0" y="0" viewBox="0 0 500 500" style="enable-background:new 0 0 500 500" xml:space="preserve"><style>.st0{fill:#3880ff}</style><path class="st0" d="M475 225.2v8.8c0 3.1-1.5 75.2-34.1 131.6s-94.4 93.5-97 95l-7.5 4.5-13.3-7.7-76.1-43.9c-4.7-2.6-9.2-5.6-13.5-8.8-3.7-2.6-7.3-5.3-10.7-8.3-7.8-6.7-14.9-14.2-21.2-22.4-8.8-11.4-15.9-24-21.2-37.4-9.4-23.7-13.7-49.1-12.4-74.6 7.5-4 15.8-6.1 24.3-6h6.1c-2.1 22.2.7 44.7 8.3 65.7 10 28 29.5 51.5 55.3 66.3l74 42.8c1.7-1.1 3.6-2.5 5.6-4 18.7-13.3 53.2-40.8 73.4-75.6 22.5-39.6 28.2-88.8 29.8-109L413.3 224c2.5-10.4 4.2-21 5-31.7l56.7 32.9z"/><path class="st0" d="M388.5 75.3v103.2c0 5.4 0 10.8-.8 16.1-.5 4.6-1.1 9.1-2 13.5-1.9 10.1-4.9 19.9-8.8 29.3-5.5 13.3-12.8 25.8-21.7 37.2-15.8 20.1-35.8 36.5-58.6 48.1-9-5.5-16-13.8-20.1-23.5 20.1-9.1 37.8-22.6 52.1-39.4 19.2-22.7 29.7-51.5 29.7-81.3V93.3c-1.7-.9-3.9-1.7-6.1-2.9-20.9-9.6-61.9-25.7-102.4-25.7-44.9 0-91.1 19.9-108.4 28.6v36.5c-10.3 2.9-20.4 6.8-30.1 11.4V75.3L119 71c2.7-1.5 66.3-36.3 130.8-36.3S378.1 69.5 380.7 71l7.8 4.3z"/><path class="st0" d="M129.8 199.3 55.2 242c0 1.9.2 4.1.5 6.5 2.6 35.5 12.5 70.2 28.9 101.7 22.5 39 62.6 68.8 79 79.9L195 412c7.7 7.4 16 14.2 24.9 20.2l-57 33.1-7.6-4.5c-2.6-1.5-64.2-38.9-96.8-95.3S25.1 236.8 25 233.8V225l13.7-7.8 76-43.8c4.7-2.7 9.4-5.1 14.3-7.2 4.2-1.9 8.5-3.6 12.8-5.1 9.6-3.4 19.4-5.8 29.5-7.2 14.3-1.9 28.7-1.9 43 0 25.3 3.8 49.4 12.9 70.8 26.8-.4 10.5-4 20.7-10.4 29.1-18-12.9-38.7-21.5-60.5-25.4-29-5.1-58.9.2-84.4 14.9z"/></svg>