<?xml version="1.0" encoding="utf-8"?>
<!-- Generator: Adobe Illustrator 25.4.1, SVG Export Plug-In . SVG Version: 6.00 Build 0)  -->
<svg version="1.1" id="Layer_1" xmlns="http://www.w3.org/2000/svg" xmlns:xlink="http://www.w3.org/1999/xlink" x="0px" y="0px"
	 viewBox="0 0 500 500" style="enable-background:new 0 0 500 500;" xml:space="preserve">
<style type="text/css">
	.st0{fill:#7FA159;}
</style>
<g>
	<path class="st0" d="M92.5,242.5c-1.9-0.5-3.8-0.4-5.6-0.6c-1.8-0.1-3.7,0.2-5.5-0.9c0.3-1.5,1.5-1.6,2.5-1.7
		c2.5-0.3,5-0.4,7.5-0.5c1.2-0.1,2.5,0,3.7,0c1.9-2.9,3.9-5.6,5.6-8.5c0.9-1.5,2.2-2.1,3.9-2c2,0.2,4,0.6,5.9,1.4
		c1.8,0.7,2.2,1.8,1.2,3.5c-0.5,0.9-1.2,1.8-1.8,2.7c-0.4,0.6-1,1.2-0.9,2.1c1.7,0.7,5.9,0.9,9.8,0.5c1.8-2.7,3.7-5.5,5.5-8.3
		c1-1.5,2.2-2.1,3.9-1.9c1.9,0.2,3.7,0.6,5.4,1.3c2.2,0.8,2.6,1.9,1.4,3.9c-0.9,1.4-1.9,2.8-2.7,4.6c3.2,1.5,6.9-0.3,9.9,1.5
		c-0.4,1.8-0.7,2.1-2.5,2.4c-2.2,0.3-4.3,0.5-6.5,0.5c-1.2,0-2.3,0-3.6,0c-0.2,0.3-0.5,0.6-0.7,0.9c-4.2,6.2-8.3,12.4-11.9,19
		c-0.7,1.2-1.3,2.5-1.7,3.8c-0.8,2.7,0.3,4.3,3.1,4.4c2.4,0.2,4.6-0.5,6.8-1.5c1.3-0.6,2.7-1.2,3.9-2.2c0.2-1.6,0.3-3.3,0.7-4.8
		c1.8-7.4,5.6-13.7,11.4-18.6c1.9-1.6,4.2-2.1,6.6-1.9c3.3,0.3,6.4,1.4,9.3,3c1.8,1,2.6,2.5,2.6,4.6c0,1.9-0.6,3.6-1.6,5.1
		c-4.2,6.3-9.6,11.2-17,13.4c-0.3,0.1-0.6,0.2-0.9,0.3c-0.7,0.3-1,0.8-1,1.4c0,0.7,0.4,1.2,1,1.4c1,0.4,2.1,0.6,3.2,0.5
		c6.9-0.3,13.1-2.3,17.9-7.7c2.8-3.2,5.3-6.7,6.9-10.8c0.4-1.1,0.9-2.1,0.9-3.3c-0.3-0.7-1-0.8-1.4-1.2c-2.1-1.8-2.1-5.4,0-7.3
		c2.3-2.1,8.2-2.6,10.5,0.4c-0.7,1.1-2.1,2-1.1,3.8c4.6-1.1,9.1-1.8,13.6,0.4c1,0.5,1.1,0.8,1.9,2.2c-0.1,0.7-0.6,1-1,1.5
		c-3.4,3.8-6.6,7.9-9.2,12.4c-0.8,1.4-1.5,2.9-1.8,4.6c-0.4,2.3,0.4,3.6,2.8,3.9c2.5,0.4,4.8-0.3,6.9-1.5c1.9-1.1,3.5-2.6,4.9-4.3
		c0.7-0.8,1.4-1.6,2.3-2.7c0,1.6-0.5,2.6-1.1,3.6c-4.5,7.4-10.4,9.7-18.6,8.8c-0.9-0.1-1.8-0.4-2.7-0.8c-2.3-1-3.5-2.7-3.7-5.2
		c-0.2-2.6,0.6-4.9,1.6-7.2c1.2-2.6,2.7-5.1,4.4-7.4c0.5-0.7,1.2-1.3,1.4-2.3c-2.1-0.2-4.1,0-5.9-0.5c-0.9,0.8-0.9,1.9-1.3,2.8
		c-1.8,5.5-4.4,10.6-8.3,15c-1.7,1.9-3.7,3.5-5.9,4.9c-1.9,1.3-3.7,1.6-5.5-0.2c-2.5,0.7-4.9,1.4-7.5,1.7c-2.6,0.3-5.1,0.4-7.7,0
		c-2.8-0.4-5.1-1.8-6.4-4.5c-0.1-0.3-0.3-0.5-0.6-0.9c-1.3,0.7-2.6,1.5-3.9,2.1c-3.5,1.8-7.2,2.9-11.2,2.7c-3.5-0.2-6.4-1.2-7.8-4.7
		c-1.1-0.3-1.6,0.4-2.2,0.8c-3.6,2-7.3,3.6-11.4,3.9c-1.5,0.1-3,0-4.4-0.3c-3-0.7-5.2-2.4-5.7-5.7c0-0.3-0.2-0.6-0.2-0.9
		c-1-0.3-1.4,0.5-2,0.9c-3.9,2.8-8,5.1-12.8,6.1c-3.1,0.6-6.2,0.9-9.3,0.7c-5.8-0.3-9.1-4-8.6-9.9c0.4-5.3,2.5-9.9,5.3-14.3
		c1.7-2.8,4-5.2,6.5-7.3c1.9-1.6,4.1-2.2,6.5-2c3.4,0.3,6.5,1.4,9.5,3c1.7,1,2.5,2.4,2.5,4.4c0,2-0.6,3.9-1.7,5.5
		c-4.2,6.2-9.6,11-17,13.2c-0.9,0.3-1.9,0.6-1.8,1.8c0.1,1.2,1,1.5,2,1.6c2.7,0.5,5.4,0.1,8.1-0.5c4.4-1,8.3-3,12-5.6
		c0.8-0.5,1.4-1.2,1.6-2.2c1.7-6.4,4.7-12.2,8.1-17.8C91.8,244.4,92.3,243.7,92.5,242.5z M106,266.7c0.6-3.4,1.5-6.6,2.8-9.7
		c1.7-4.1,3.7-8.1,6-11.8c0.5-0.7,1.2-1.4,0.9-2.6c-3.3,0-6.5,0-9.9,0c-1.5,2.2-2.9,4.2-4.2,6.3c-3.2,5-6.5,9.9-9.1,15.2
		c-0.6,1.2-1.1,2.4-1.1,3.8c0.1,1.5,0.7,2.3,2.1,2.7c0.7,0.2,1.4,0.3,2.1,0.2C99.6,270.4,102.9,268.8,106,266.7z M71.4,249.6
		c-3.2,1.1-10,9.7-10.5,13C65.4,260.5,71.3,253.2,71.4,249.6z M140,262.5c0.5,0.1,0.6,0.2,0.7,0.1c4.4-2.8,7.7-6.6,10.1-11.3
		c0.3-0.5,0.6-1.1-0.5-1.9C145.9,253,142.8,257.5,140,262.5z"/>
	<path class="st0" d="M280.5,246.4c3.5-2,7-2.5,10.2,0.4c0.1,0.9-0.5,1.3-0.9,1.7c-4.5,5.1-7.4,11.1-9.6,17.5
		c-0.1,0.3-0.2,0.6-0.2,0.9c-0.4,2.4,0.7,3.6,3.1,3.4c0.9-0.1,1.9-0.3,2.7-0.6c2.6-0.9,4.8-2.4,6.6-4.4c0.8-11.5,4.7-21.9,10.4-31.6
		c1.5-2.6,3.4-4.9,5.6-6.9c2.3-2.1,4.9-2.9,8-2.2c2.8,0.7,5.6,1.4,8.4,2.2c2.9,0.9,3.8,3.1,2.6,6.1c-1.4,3.5-3,6.8-4.9,10.1
		c-4.5,7.7-9.8,14.6-17,20c-1.2,0.9-2.7,1.6-3.7,2.7c-0.2,2.3,0.2,3.1,2,4c2.2,1.1,4.6,0.9,6.9,0.4c4.7-1,8.4-3.7,11.6-7
		c0.7-0.7,0.8-1.6,1-2.6c1.4-8.9,4.6-17.3,8.9-25.2c1.5-2.7,3.3-5.3,5.5-7.5c2.9-3.1,6.3-4.2,10.4-2.9c2.2,0.7,4.5,1.2,6.8,1.8
		c3,0.8,4.2,3.1,3,5.9c-4.9,11.9-11.7,22.5-22.1,30.4c-1.2,0.9-2.5,1.5-3.6,2.6c-0.3,2.3,0.2,3.3,2.1,4.1c2.2,1,4.4,0.9,6.6,0.4
		c5.2-1.1,9.1-4.2,12.6-8.1c0.5-0.6,0.8-1.3,1.8-1.6c-0.2,1.7-0.6,3.1-1.6,4.4c-4.7,5.9-10.8,9.2-18.4,9.7c-1.3,0.1-2.6,0-4-0.3
		c-4.1-0.7-6.8-2.9-7.8-7c-0.1-0.4-0.3-0.9-0.4-1.3c-0.9,0.1-1.3,0.9-1.8,1.4c-4.2,4.1-9.3,6.5-15.1,7.1c-1.9,0.2-3.9,0.1-5.8-0.3
		c-2.8-0.6-5-2.1-6.3-4.7c-0.2-0.4-0.3-0.9-0.8-1.1c-0.8,0-1.1,0.7-1.6,1.2c-4.1,3.5-8.8,4.9-14.1,4.6c-4-0.2-6-1.5-7.9-4.8
		c-0.8,0.1-1.2,0.9-1.8,1.4c-1.7,1.6-3.5,2.9-5.6,3.8c-2.5,1.2-5.1,1.3-7.7,0.6c-2.5-0.7-3.6-2.1-3.8-4.7c-0.1-2.7,0.2-5.5,1.1-8.1
		c2.3-6.9,6.4-12.4,12.3-16.6c2.1-1.5,4.5-2.5,7.1-2.9c3.5-0.6,6.5,0.2,8.8,2.9C279.9,245.9,280.1,246.1,280.5,246.4z M260.4,271.2
		c2-0.1,3-1.6,4.1-2.8c4.5-5.3,7.7-11.5,10.4-17.9c0.4-0.9,0.7-1.9,0.3-2.7c-0.5-0.5-0.9-0.5-1.3-0.3c-1.1,0.4-2,1.1-2.9,1.9
		c-5.9,5.1-9,11.8-10.9,19.2C259.8,269.3,259.6,270.2,260.4,271.2z M349.5,231.2c-1.4-1-1.8-1-2.7,0.2c-1.3,1.6-2.4,3.2-3.6,4.9
		c-4.1,6-7.4,12.4-9.8,19.2c-0.2,0.6-0.8,1.3-0.3,2.1C337.9,254.4,347.3,238.3,349.5,231.2z M319.4,231.4c-1.6-1.1-2-1.1-2.9,0
		c-1.1,1.3-2,2.7-3,4.1c-4.3,6.2-7.9,12.8-10.4,20c-0.3,0.7-0.7,1.5-0.4,2.7C310.3,250.3,315.2,241.1,319.4,231.4z"/>
	<path class="st0" d="M39,250.1c0.4,0.8,0.9,0.9,1.4,1.2c5.3,3.6,6.2,10.9,1.7,15.4c-4.7,4.7-10.5,7.1-17,8.1
		c-4.2,0.6-8.2,0.1-12.1-1.7c-0.4-0.2-0.7-0.2-1.3-0.4c-1.5,1.6-3.6,1.9-5.7,1.6c-3.5-0.4-4.9-2.5-3.6-5.7
		c4.2-10.7,8.3-21.3,13.9-31.3c0.4-0.7,0.8-1.5,1.3-2.4c-0.9-0.4-1.7-0.6-2.4-1c-0.8-0.4-1.5-0.9-1.6-2c0.7-1.6,2.3-2.1,3.8-2.6
		c1.7-0.5,3.4-0.7,4.6-2.4c0.8-1.2,2.4-1.1,3.6-0.3c1.5,1,3,1,4.7,1c3.1-0.1,6.2-0.1,9.3,0c2.9,0.1,5.7,0.7,8.2,2.4
		c4.9,3.4,5.6,9.1,1.7,13.5c-1.9,2.2-4.4,3.6-7,4.9C41.4,249,40.2,249.5,39,250.1z M14,266.6c2.4,1.1,4.5,1.3,6.7,1
		c5.2-0.6,9.8-2.7,14-5.9c0.7-0.6,1.4-1.3,1.8-2.1c1.1-2,0.5-3.7-1.6-4.5c-0.7-0.3-1.5-0.4-2.3-0.6c-4.1-0.7-8,0.1-12.1,0.6
		c-0.8,0.1-1.2,0.5-1.6,1.2C17.5,259.7,15.8,263,14,266.6z M25.7,245c5.3-0.6,9.8-2,13.8-4.9c1.3-0.9,2.4-2,3.2-3.3
		c1.2-1.9,0.8-3.1-1.3-3.6c-2.7-0.6-5.4-0.7-8.1-0.1C30.5,236.8,28.2,240.7,25.7,245z"/>
	<path class="st0" d="M497.7,249c0.1,1.1-0.7,1.7-1.3,2.4c-3.5,4-8.2,6-13.3,6.4c-3.1,0.3-5,1.4-6.8,3.9c-3.5,4.9-7.8,9.1-13.2,12
		c-3.3,1.8-6.9,1.9-10.4,1.1c-2.6-0.6-3.2-1.6-2.8-4.2c0.1-0.7,0.3-1.4,0-2.1c-0.9,0-1.5,0.7-2.2,1.2c-6.1,4.2-12.8,5.8-20.1,5.4
		c-5.8-0.3-9.1-4-8.6-9.9c0.4-5.3,2.6-9.9,5.3-14.3c1.7-2.8,4-5.2,6.5-7.3c1.9-1.6,4.1-2.2,6.5-2c3.4,0.3,6.5,1.4,9.5,3
		c1.7,1,2.5,2.4,2.5,4.4c0,2.1-0.7,4-1.9,5.7c-4.3,6.1-9.5,10.9-16.8,13c-0.9,0.3-1.9,0.6-1.8,1.8c0.1,1.2,1,1.4,2,1.6
		c2.6,0.5,5.1,0.1,7.6-0.4c4.1-0.9,7.8-2.7,11.3-4.9c1-0.6,1.4-1.6,1.7-2.6c1-3.8,2.5-7.4,4.3-10.8c1.2-2.3,2.7-4.4,4.3-6.4
		c1.5-1.9,3.6-2.3,5.9-2.5c1.8-0.1,3.6,0.1,5.3,0.6c2.3,0.7,2.6,1.9,0.8,3.5c-6,5.6-8.9,12.8-10.6,20.6c0,0.1,0.1,0.3,0.2,0.6
		c1.6-0.3,2.9-1.4,4.1-2.3c3.4-2.5,6.4-5.4,8.7-9.1c0.7-1.1,1.1-2.2,1.1-3.5c0.1-3.4,1.1-6.6,3.2-9.4c1.7-2.3,3.9-3.9,6.8-4.2
		c3-0.3,4.3,1.1,3.6,4c-0.7,3-2.4,5.4-4.4,7.6c-0.5,0.5-1.2,0.8-1.4,1.6c2.1,0.6,4.1,0.1,6.1-0.5c2.4-0.6,4.5-1.7,6.5-3.2
		C496.5,249.9,497,249.3,497.7,249L497.7,249z M429.6,262.7c2.8-1,6.6-4.5,9.2-8.4c0.9-1.4,2.1-2.6,1.9-4.6
		c-1.6,0.4-1.6,0.4-2.6,1.4C434.8,254.5,432,258.2,429.6,262.7z"/>
	<path class="st0" d="M383.7,234.3c-0.6-0.3-1.2-0.5-1.7-0.9c-1.4-0.9-1.5-2.1-0.1-3.2c0.9-0.7,2-0.9,3-1.1c1.1-0.3,2.2-0.5,3.1-1.4
		c1.3-1.2,2.9-1,4.4-0.5c1.5,0.6,3,0.6,4.6,0.4c4.2-0.5,8.4-0.3,12.3,1.6c6.6,3.1,10.1,10.5,8.7,17.7c-0.9,4.8-3.3,8.9-6.4,12.5
		c-4.6,5.2-9.8,9.5-16.1,12.6c-3.1,1.5-6.4,2.5-9.8,2.9c-2.6,0.3-5.1,0.1-7.5-1.1c-1.1-0.6-2.2-0.6-3.3-0.1
		c-1.2,0.6-2.5,0.8-3.9,0.5c-1.9-0.4-3-1.8-2.7-3.7c0.2-1,0.5-1.9,0.9-2.9c3.8-10.4,8.1-20.5,13.2-30.4
		C383,236.5,383.6,235.6,383.7,234.3z M378.9,269.3c0.9,0.3,1.8,0.2,2.7,0c3.3-0.5,6.2-2,8.9-3.9c7.4-5.6,13.2-12.5,17.1-20.9
		c0.6-1.2,0.9-2.5,0.9-3.8c0-2.1-0.9-3.5-2.8-4.4c-1.9-0.9-3.9-0.8-6-0.8c-1.7,0-2.8,0.7-3.7,2.3c-5.7,9.7-11.2,19.6-16.5,29.6
		C379.3,267.9,378.8,268.4,378.9,269.3z"/>
	<path class="st0" d="M244.1,236.4c-1.9-0.3-3.3,0.8-4.5,1.9c-7.3,6.6-13.2,14.3-16.4,23.7c-0.5,1.4-0.8,2.8-0.9,4.3
		c0,1.9,0.6,2.9,2.4,3.6c1.9,0.8,4,0.8,6,0.3c4.6-1,8.8-3,12.6-5.8c1-0.7,1.9-1.7,3.3-0.9c0.5,0.9,0.2,1.7-0.5,2.3
		c-5.1,4.8-10.6,8.7-17.9,9c-3.9,0.2-7.8-0.3-11.4-2.1c-3.4-1.7-5.1-4.4-5.1-8.2c-0.1-3.2,0.9-6.1,2-9.1c3.2-8.9,7.8-16.9,14.6-23.6
		c2-2,4.3-3.6,6.8-4.9c1.3-0.7,2.6-0.9,4-0.9c4.6,0.3,8.8,1.8,13,3.5c2.7,1.1,3.9,3.3,3.8,6.3c-0.2,4.7-1.7,8.8-5,12.2
		c-2.2,2.3-5,3.1-8.1,2.2c-0.9-0.3-1.7-0.7-2.4-1.4c-1.1-1.3-1.2-2.5-0.1-4c1.4-1.8,2.7-3.6,3.8-5.6
		C244.6,238.1,244.6,238,244.1,236.4z"/>
	<path class="st0" d="M497.8,249c0.2-0.2-0.2-0.1,0.1-0.2c0,0,0.1,0,0.1,0C498,249,497.9,249,497.8,249L497.8,249z"/>
</g>
</svg>
