<svg width="512" height="512" viewBox="0 0 512 512" fill="none" xmlns="http://www.w3.org/2000/svg">
<rect width="512" height="512" fill="#CDF160"/>
<path d="M155.98 408.403C155.98 408.403 155.122 409.409 154.094 410.112C148.359 414.037 140.76 416 131.3 416C124.204 416 117.996 414.748 112.674 412.245C107.353 409.742 103.243 406.073 100.346 401.237C97.4487 396.402 96 390.656 96 384C96 377.685 97.3895 372.139 100.169 367.36C103.007 362.524 107.087 358.77 112.408 356.096C117.73 353.365 123.997 352 131.211 352C148.772 352 159.445 358.969 163.229 372.907H148.609C147.131 368.868 145.491 367.588 142.653 365.824C139.874 364.06 136.06 363.179 131.211 363.179C124.884 363.179 119.888 365.028 116.222 368.725C112.556 372.423 110.723 377.515 110.723 384C110.723 390.542 112.556 395.662 116.222 399.36C119.888 403.001 124.973 404.821 131.477 404.821C136.74 404.821 140.879 403.883 143.894 402.005C146.91 400.128 148.92 397.255 149.925 393.387L155.98 408.403Z" fill="black"/>
<path d="M199.819 414.159L188.466 383.866L177.113 414.159H163.987L150.614 378.948H164.45L171.614 401.018L183.056 369.957H194.586L206.027 401.103L216.227 369.615H229.354L212.945 414.159H199.819Z" fill="black"/>
<path d="M272.956 414.161C269.61 414.161 266.897 411.449 266.897 408.103C264.177 410.606 261.25 412.455 258.116 413.649C255.042 414.787 251.494 415.356 247.473 415.356C241.383 415.356 236.712 414.19 233.46 411.857C230.208 409.468 228.582 406.083 228.582 401.703C228.582 396.81 230.71 393.169 234.967 390.78C239.225 388.391 245.936 387.082 255.101 386.855L266.454 386.599V384.892C266.454 382.389 265.507 380.483 263.615 379.175C261.723 377.809 259.033 377.127 255.544 377.127C248.863 377.127 242.918 378.646 242.918 383.365H230.589C230.589 378.57 235.027 373.656 239.047 371.495C243.127 369.333 248.774 368.252 255.988 368.252C271.42 368.252 279.137 374.112 279.137 385.831V399.996V402.093C279.137 404.255 280.889 406.007 283.051 406.007H283.895V414.161H272.956ZM266.454 394.108L255.367 394.364C250.577 394.478 247.059 395.075 244.812 396.156C242.625 397.18 241.531 398.744 241.531 400.849C241.531 402.67 242.329 404.064 243.925 405.031C245.581 405.998 247.946 406.481 251.021 406.481C253.504 406.481 255.781 406.197 257.85 405.628C259.92 405.002 261.664 404.12 263.083 402.983C265.33 401.276 266.454 399.114 266.454 396.497V394.108Z" fill="black"/>
<path d="M289.135 414.292V353.364H302.351V414.292H289.135Z" fill="black"/>
<path d="M307.086 414.292V353.364H320.301V414.292H307.086Z" fill="black"/>
<path d="M336.779 395.091C336.838 397.31 337.459 399.273 338.641 400.979C339.883 402.686 341.568 404.023 343.697 404.99C345.885 405.957 348.397 406.441 351.236 406.441C358.154 406.441 362.441 404.421 364.096 400.382H376.425C375.183 405.559 372.433 409.399 368.176 411.902C363.978 414.405 358.183 415.657 350.792 415.657C342.396 415.657 335.862 413.637 331.191 409.598C326.579 405.559 324.273 399.898 324.273 392.617C324.273 387.952 325.337 383.799 327.466 380.158C329.654 376.46 332.758 373.587 336.779 371.539C340.859 369.434 345.618 368.382 351.058 368.382C359.336 368.382 365.722 370.401 370.216 374.441C374.769 378.423 377.045 384.026 377.045 391.251V395.091H336.779ZM364.717 387.326C364.599 384.197 363.328 381.779 360.903 380.073C358.479 378.309 355.109 377.427 350.792 377.427C347.126 377.427 343.992 378.366 341.391 380.243C338.848 382.121 337.429 384.481 337.133 387.326H364.717Z" fill="black"/>
<path d="M416 413.267C411.861 414.519 407.515 415.144 402.962 415.144C397.108 415.144 392.851 413.893 390.19 411.39C387.529 408.83 386.199 404.791 386.199 399.272V379.219H377.241V369.747H386.199V357.886H399.414V369.747H414.581V379.219H399.414V398.846C399.414 401.064 399.976 402.714 401.099 403.795C402.223 404.819 403.997 405.331 406.421 405.331C408.964 405.331 411.565 404.933 414.226 404.136L416 413.267Z" fill="black"/>
<g clip-path="url(#clip0_79_1028)">
<path fill-rule="evenodd" clip-rule="evenodd" d="M146.285 128.976L138.667 137.833V301.2L146.285 309.333H364.853L373.333 301.379V133.838L365.312 126.829H305.2V125.481L312.969 120.909V82.0556L305.367 74.6665L146.285 128.976Z" fill="black"/>
<path fill-rule="evenodd" clip-rule="evenodd" d="M271.525 242.288L297.656 242.49C298.208 242.493 298.61 243.007 298.479 243.54L291.885 270.203C291.712 270.905 290.793 271.084 290.365 270.496L284.097 261.877C277.698 266.222 266.357 271.836 250.521 271.785C229.046 271.714 213.237 260.279 210.504 258.126C210.236 257.911 210.13 257.572 210.295 257.258C211.136 255.658 214.628 249.298 215.635 247.096C215.822 246.69 216.306 246.546 216.688 246.774C220.068 248.81 235.058 257.281 250.047 257.281C260.808 257.281 270.115 253.788 276.063 250.833L270.825 243.634C270.416 243.072 270.825 242.281 271.525 242.288ZM237.374 153.256C251.867 157.292 251.697 169.383 251.049 175.113C250.67 178.485 249.268 182.518 248.709 184.033C248.571 184.404 248.218 184.645 247.819 184.638L229.378 184.378C229.126 184.375 228.953 184.124 229.061 183.897C229.731 182.463 231.683 178.017 232.307 173.425C233.016 168.212 230.336 165.864 226.488 168.554C222.408 171.399 218.753 178.732 216.438 192.934C214.218 206.553 217.677 212.072 222.306 212.716C226.628 213.317 230.859 210.947 234.654 204.426C236.665 200.973 237.793 197.565 238.231 196.085C238.339 195.718 238.783 195.61 239.074 195.861L246.812 202.478C247.136 202.755 247.283 203.165 247.188 203.578C246.773 205.396 245.439 210.621 243.037 214.839C240.405 219.46 230.466 233.363 211.74 228.166C188.996 221.851 193.93 189.126 200.445 173.568C206.964 158.011 221.1 148.723 237.374 153.256ZM303.117 153.256C317.61 157.292 317.44 169.383 316.793 175.113C316.413 178.485 315.011 182.518 314.452 184.033C314.314 184.404 313.961 184.645 313.563 184.638L295.121 184.378C294.866 184.375 294.696 184.124 294.804 183.897C295.474 182.463 297.426 178.017 298.05 173.425C298.76 168.212 296.079 165.864 292.228 168.554C288.151 171.399 284.493 178.732 282.181 192.934C279.962 206.553 283.42 212.072 288.046 212.716C292.372 213.317 296.602 210.947 300.394 204.426C302.408 200.973 303.536 197.565 303.974 196.085C304.082 195.718 304.526 195.61 304.817 195.861L312.556 202.478C312.879 202.755 313.026 203.165 312.932 203.578C312.513 205.396 311.183 210.621 308.78 214.839C306.148 219.46 296.21 233.363 277.484 228.166C254.74 221.851 259.673 189.126 266.188 173.568C272.707 158.011 286.843 148.723 303.117 153.256Z" fill="white"/>
</g>
<defs>
<clipPath id="clip0_79_1028">
<rect width="234.667" height="234.667" fill="white" transform="translate(138.667 74.6665)"/>
</clipPath>
</defs>
</svg>
