<?xml version="1.0" encoding="UTF-8" standalone="no"?><svg xmlns="http://www.w3.org/2000/svg" xmlns:xlink="http://www.w3.org/1999/xlink" style="isolation:isolate" viewBox="0 0 174 26" width="174pt" height="26pt"><defs><clipPath id="_clipPath_EXVculTPsyay16pFiGe0f6ECzPmdR8L5"><rect width="174" height="26"/></clipPath></defs><g clip-path="url(#_clipPath_EXVculTPsyay16pFiGe0f6ECzPmdR8L5)"><path d=" M 22.597 5.44 L 26.473 5.44 L 26.473 9.317 L 24.773 9.317 L 24.773 7.136 L 22.597 7.136 L 22.597 5.44 Z  M 20.217 13.294 L 20.217 14.261 L 18.762 14.261 L 18.762 15.716 L 17.795 15.716 L 17.795 14.261 L 16.34 14.261 L 16.34 13.294 L 17.795 13.294 L 17.787 11.835 L 18.762 11.835 L 18.762 13.294 L 20.217 13.294 Z  M 23.948 12.123 L 26.665 12.123 L 26.665 23.773 L 21.276 23.773 L 21.276 26 L 9.401 26 L 9.401 16.683 L 13.477 16.683 L 13.477 21.927 L 20.455 21.927 L 20.455 21.059 L 23.948 21.059 L 23.948 12.123 Z  M 21.526 0 L 21.526 6.791 L 12.79 6.791 L 12.798 15.52 L 6.008 15.52 L 6 0 L 21.526 0 Z  M 95.677 12.085 L 95.677 14.08 L 87.914 14.08 L 87.914 22.25 L 85.474 22.25 L 85.474 3.75 L 96.935 3.75 L 96.935 5.758 L 87.914 5.758 L 87.914 12.085 L 95.677 12.085 Z  M 110.224 22.25 L 106.209 14.766 L 101.863 14.766 L 101.863 22.25 L 99.411 22.25 L 99.411 3.75 L 105.535 3.75 L 105.535 3.75 Q 108.661 3.75 110.345 5.173 L 110.345 5.173 L 110.345 5.173 Q 112.028 6.596 112.028 9.315 L 112.028 9.315 L 112.028 9.315 Q 112.028 11.043 111.094 12.327 L 111.094 12.327 L 111.094 12.327 Q 110.16 13.61 108.496 14.245 L 108.496 14.245 L 112.841 22.098 L 112.841 22.25 L 110.224 22.25 Z  M 101.863 5.758 L 101.863 12.771 L 105.612 12.771 L 105.612 12.771 Q 107.429 12.771 108.502 11.831 L 108.502 11.831 L 108.502 11.831 Q 109.576 10.891 109.576 9.315 L 109.576 9.315 L 109.576 9.315 Q 109.576 7.6 108.553 6.685 L 108.553 6.685 L 108.553 6.685 Q 107.53 5.77 105.599 5.758 L 105.599 5.758 L 101.863 5.758 Z  M 126.994 22.25 L 125.228 17.422 L 117.477 17.422 L 115.737 22.25 L 113.221 22.25 L 120.285 3.75 L 122.42 3.75 L 129.497 22.25 L 126.994 22.25 Z  M 121.353 6.761 L 118.214 15.414 L 124.504 15.414 L 121.353 6.761 Z  M 131.554 3.75 L 134.705 3.75 L 140.753 18.845 L 146.801 3.75 L 149.965 3.75 L 149.965 22.25 L 147.525 22.25 L 147.525 15.046 L 147.754 7.27 L 141.681 22.25 L 139.813 22.25 L 133.752 7.308 L 133.994 15.046 L 133.994 22.25 L 131.554 22.25 L 131.554 3.75 Z  M 164.296 11.704 L 164.296 13.699 L 156.278 13.699 L 156.278 20.255 L 165.592 20.255 L 165.592 22.25 L 153.839 22.25 L 153.839 3.75 L 165.465 3.75 L 165.465 5.758 L 156.278 5.758 L 156.278 11.704 L 164.296 11.704 Z  M 52.139 22.25 L 46.408 22.25 L 46.408 3.75 L 52.101 3.75 L 52.101 3.75 Q 54.54 3.75 56.465 4.849 L 56.465 4.849 L 56.465 4.849 Q 58.39 5.948 59.47 7.975 L 59.47 7.975 L 59.47 7.975 Q 60.55 10.001 60.55 12.581 L 60.55 12.581 L 60.55 13.432 L 60.55 13.432 Q 60.55 16.011 59.489 18.019 L 59.489 18.019 L 59.489 18.019 Q 58.428 20.026 56.497 21.132 L 56.497 21.132 L 56.497 21.132 Q 54.566 22.237 52.139 22.25 L 52.139 22.25 Z  M 52.101 6.838 L 50.22 6.838 L 50.22 19.188 L 52.062 19.188 L 52.062 19.188 Q 54.299 19.188 55.48 17.727 L 55.48 17.727 L 55.48 17.727 Q 56.662 16.265 56.687 13.546 L 56.687 13.546 L 56.687 12.568 L 56.687 12.568 Q 56.687 9.747 55.518 8.292 L 55.518 8.292 L 55.518 8.292 Q 54.35 6.838 52.101 6.838 L 52.101 6.838 Z  M 66.94 3.75 L 66.94 22.25 L 63.128 22.25 L 63.128 3.75 L 66.94 3.75 Z  M 72.236 3.75 L 76.061 12.085 L 79.911 3.75 L 84.078 3.75 L 78.005 15.541 L 78.005 22.25 L 74.129 22.25 L 74.129 15.541 L 68.056 3.75 L 72.236 3.75 Z " fill-rule="evenodd" fill="rgb(255,84,0)"/></g></svg>
