<?xml version="1.0" encoding="utf-8"?>
<!-- Generator: Adobe Illustrator 25.4.1, SVG Export Plug-In . SVG Version: 6.00 Build 0)  -->
<svg version="1.1" id="Layer_1" xmlns="http://www.w3.org/2000/svg" xmlns:xlink="http://www.w3.org/1999/xlink" x="0px" y="0px"
	 viewBox="0 0 500 500" style="enable-background:new 0 0 500 500;" xml:space="preserve">
<style type="text/css">
	.st0{fill-rule:evenodd;clip-rule:evenodd;fill:#FFFFFF;}
	.st1{fill:url(#SVGID_1_);}
	.st2{fill:#202020;}
</style>
<g>
	<path class="st0" d="M34,258.4h-6v-3.6h21.3v3.6h-5v48.8h-3.1c0-2.2-1.1-4-2.6-3.3c-0.6,0.3-1.2,0.7-1.7,1.1
		c-2,1.3-4.7,3.1-9.2,3.1c-7.7-0.1-15.3-2.8-15.5-17.4v-84.1c0-11.4,8.6-14.1,14.6-14.1c3.9,0.2,7.6,1.5,10.7,3.8
		c1,0.6,2.1,0.7,2.1-1.1v-1.7h3.5v35.8h-4.3c-2,0-2.6-0.7-2.6-2.5c0-5.4-1-18-2.1-23.1c-1.1-5.2-3.8-8.5-7.4-8.5c-4.5-0.1-5,6-5,8.6
		V299c-0.2,3.4,2.4,6.3,5.8,6.5c0.1,0,0.1,0,0.2,0h0.1c3.5-0.1,6.2-3.1,6.1-6.6C34,299,34,258.4,34,258.4z M148.6,193.5h-20.5v3.3
		h5.4v103.8c-0.1,2.2-1,3.1-4.3,3.2h-1.1v2.9h23.1v-2.9h-2.4c-3.9-0.1-5.3-1.7-5.4-5.2v-40.2h6.7c9.8,0,15.5-4.7,15.5-11v-42
		C165.6,199.2,160.8,193.5,148.6,193.5L148.6,193.5z M155.7,225.5v22.3c0,3.5-2.2,6.8-6.6,6.7h-5.7v-57.7h5.2c3.9,0,7.1,3.2,7.1,7.1
		C155.7,203.9,155.7,225.5,155.7,225.5z M78.1,254.8l5.4-45.5l6.1,45.6C89.6,254.9,78.1,254.8,78.1,254.8z M91.7,193.5l13.1,105.1
		c0,2.8,2.3,5.1,5.1,5c0.2,0,0.3,0,0.5,0h0.6v2.9H90.3v-2.9h1.5c3.2-0.1,3.5-1.1,3.5-3.8l-5.2-41.6H77.6l-4.9,41.6
		c0,0.8,0.3,1.6,0.8,2.2c1.4,1.1,3.2,1.7,5,1.5v2.9H62.4v-3.2c5-0.3,5.2-1.1,5.8-4.4l0-0.1l13.1-105.4H91.7L91.7,193.5z"/>
	
		<linearGradient id="SVGID_1_" gradientUnits="userSpaceOnUse" x1="178.3167" y1="448.9395" x2="482.813" y2="69.322" gradientTransform="matrix(1 0 0 -1 0 502)">
		<stop  offset="0" style="stop-color:#00FFF0"/>
		<stop  offset="1" style="stop-color:#EB00FF"/>
	</linearGradient>
	<path class="st1" d="M184.8,196.3c0-6.4,5.2-11.5,11.5-11.5h279.9c6.4,0,11.5,5.2,11.5,11.5v107.4c0,6.4-5.2,11.5-11.5,11.5H196.3
		c-6.4,0-11.5-5.2-11.5-11.5V196.3z"/>
	<path class="st2" d="M218.6,222.7h10.2l-2.9,14.3h9.5l-1.7,7.8h-9.5l-4.9,23.3c-0.2,1-0.5,2-0.6,2.9c-0.2,0.9-0.3,1.7-0.3,2.2
		c0,1,0.2,1.9,0.6,2.6c0.5,0.6,1.5,0.9,3.1,0.9h2.6c1-0.1,2-0.2,3-0.5l-1.7,7.7c-2.8,0.6-5.7,1-8.7,1c-1.9,0-3.5-0.2-4.7-0.7
		c-1.1-0.4-2.1-1.1-2.9-1.9c-0.7-0.8-1.2-1.8-1.5-2.9c-0.2-1.1-0.4-2.2-0.4-3.3c0-0.9,0.1-1.9,0.2-3c0.2-1.1,0.3-1.9,0.5-2.3l5.4-26
		h-8.3l1.7-7.8h8.3C215.7,236.9,218.6,222.7,218.6,222.7z M237.6,218.8h10.5l-5.2,24.8h0.2c1.8-2.4,4.2-4.4,6.9-5.8
		c2.7-1.4,5.7-2.2,8.7-2.2c4.8,0,8.3,1.1,10.5,3.4c2.3,2.3,3.4,5.3,3.4,9.2c0,0.9,0,1.8-0.1,2.9c0,1-0.2,2-0.4,2.9l-6.4,30.4h-10.5
		l6.1-29.4c0.2-0.8,0.3-1.5,0.5-2.3c0.2-0.7,0.3-1.4,0.3-2.1c0-0.4,0-0.9-0.1-1.7c0-0.8-0.2-1.6-0.6-2.3c-0.4-0.8-1.2-1.5-2.2-2
		c-1-0.6-2.4-0.8-4.3-0.8c-2.1,0-4,0.5-5.6,1.4c-1.6,0.9-3,1.9-4.3,3.2c-1.2,1.2-2.3,2.8-3.2,4.6c-0.9,1.8-1.5,3.7-1.9,5.6
		l-5.3,25.8h-10.5C223.9,284.5,237.6,218.8,237.6,218.8z M277,236.9h9.9l-1.9,9.3l0.2,0.2c0.7-1.3,1.6-2.6,2.7-3.9
		c1.1-1.3,2.3-2.4,3.6-3.4c1.3-1,2.6-1.9,4.1-2.5c1.5-0.7,3.1-1,4.8-1c0.9,0,1.7,0,2.5,0.1c0.9,0,1.7,0.1,2.6,0.2l-2.2,10
		c-1.2-0.2-2.4-0.4-3.7-0.4c-2.7,0-5.1,0.5-7.1,1.5c-2,0.9-3.7,2.2-5.1,3.9c-1.4,1.7-2.5,3.6-3.3,5.7c-0.9,2.1-1.5,4.4-2,6.8
		l-4.4,21.1h-10.5L277,236.9z M329.8,256.5c0.1-0.3,0.1-0.6,0.1-0.7v-2.2c0-2.8-0.9-5.1-2.7-6.9c-1.8-1.8-4.2-2.8-7.4-2.8
		c-3.9,0-7.1,1.2-9.4,3.6c-2.3,2.3-4,5.3-5.1,9C305.4,256.5,329.8,256.5,329.8,256.5z M337.4,269.8c-1.7,5.6-4.4,9.7-8.4,12.2
		c-3.9,2.5-8.8,3.8-14.5,3.8c-3,0-5.8-0.5-8.4-1.4c-2.4-0.9-4.7-2.3-6.5-4.1c-1.9-1.9-3.3-4.1-4.3-6.5c-1-2.6-1.6-5.5-1.6-8.7
		c0-3.7,0.6-7.3,1.7-10.8c1.1-3.4,2.8-6.6,5.1-9.4c2.3-2.8,5.1-5,8.3-6.6c3.3-1.7,7.1-2.6,11.3-2.6c4.2,0,7.7,0.7,10.3,2.1
		c2.6,1.4,4.7,3.2,6.2,5.3s2.5,4.5,2.9,7.1c0.5,2.4,0.8,4.9,0.8,7.4c0,1.2-0.1,2.2-0.2,3.2s-0.2,1.9-0.4,2.7h-35.4
		c-0.1,0.3-0.1,0.6-0.2,0.8v2.2c0,3.3,0.9,6,2.6,8c1.8,2,4.7,3,8.7,3c2.8,0,5.2-0.6,7.3-1.9s3.4-3.2,4.1-5.8L337.4,269.8
		L337.4,269.8z M344,271.4c0,1.2,0.2,2.1,0.7,2.9c0.6,0.7,1.2,1.3,2,1.8c0.8,0.4,1.7,0.8,2.7,1c1,0.2,2,0.3,2.9,0.3
		c2.6,0,4.7-0.4,6.4-1.3c1.8-0.9,3.2-2,4.3-3.5c1.2-1.5,2.1-3.2,2.7-5.2c0.7-2,1.2-4.2,1.6-6.4l-0.2-0.2c-0.7,0.7-1.7,1.3-2.9,1.6
		c-1.2,0.3-2.4,0.5-3.6,0.6c-1.5,0.1-3.2,0.2-5.2,0.4c-1.9,0.1-3.7,0.5-5.4,1c-1.6,0.5-3.1,1.3-4.3,2.4
		C344.6,268,344,269.5,344,271.4z M375.6,270.7c-0.2,0.9-0.4,1.7-0.6,2.5c-0.2,0.8-0.3,1.5-0.3,2.2c0,0.7,0.2,1.2,0.5,1.6
		c0.3,0.4,0.9,0.6,1.7,0.6c0.6,0,1.2-0.1,1.8-0.2c0.6-0.2,1.2-0.3,1.8-0.4l-1.7,7.5c-1.3,0.3-2.7,0.6-4,0.8
		c-1.3,0.3-2.7,0.5-4.1,0.5c-1.8,0-3.3-0.6-4.4-1.7c-1.2-1.1-1.8-2.6-1.9-4.4c-2.1,2.1-4.6,3.7-7.4,4.6c-2.8,1-5.7,1.5-8.7,1.5
		c-2,0-3.8-0.3-5.6-0.8c-1.7-0.5-3.3-1.3-4.8-2.4c-1.4-1.1-2.5-2.4-3.2-4c-0.8-1.6-1.2-3.4-1.2-5.5c0-2.9,0.6-5.4,1.7-7.4
		c1.1-2,2.6-3.7,4.4-5c1.9-1.3,4.1-2.3,6.4-2.9c2.5-0.6,5-1,7.5-1.2c3.6-0.2,7.1-0.5,10.5-0.8c1.9-0.1,3.3-0.7,4.1-1.8
		c0.9-1.2,1.4-2.6,1.4-4.4c0-2.3-0.8-3.8-2.4-4.5c-1.6-0.8-3.5-1.2-5.6-1.2c-2.9,0-5.5,0.5-7.6,1.6c-2.1,1-3.5,2.9-4.2,5.9h-9.9
		c0.6-2.9,1.5-5.4,2.9-7.4c1.3-2,3-3.6,5-4.9c2-1.3,4.3-2.2,6.6-2.7c2.6-0.6,5.3-0.8,8-0.8c4.3,0,7.6,0.4,10,1.3
		c2.5,0.8,4.2,1.8,5.3,2.9c1.2,1.2,1.9,2.4,2.1,3.7c0.2,1.2,0.4,2.3,0.4,3.1c0,2.1-0.3,4.5-0.9,7.2L375.6,270.7L375.6,270.7z
		 M419,284.5h-10l1.5-6.4l-0.2-0.2c-2.1,3.1-4.4,5.2-6.9,6.3c-2.5,1.1-5.3,1.7-8,1.7c-1.3,0-3.1-0.2-5.2-0.6
		c-2.2-0.4-4.3-1.3-6.2-2.5c-2-1.3-3.7-3.3-5.1-5.9c-1.4-2.6-2.1-6.1-2.1-10.6c0-3.9,0.6-7.6,1.7-11.2c1.1-3.6,2.8-6.9,5.1-9.8
		c2.2-2.9,4.9-5.2,8.1-6.9c3.2-1.8,6.8-2.7,11-2.7c3.2,0,6.1,0.6,8.7,1.7c2.6,1.2,4.5,3.2,5.7,6.1h0.2l5.2-24.7H433L419,284.5z
		 M414.5,255.3c0-1.5-0.2-3-0.6-4.4c-0.3-1.3-1-2.6-1.8-3.6c-0.8-1.1-2-1.9-3.2-2.5c-1.3-0.6-2.9-0.9-4.8-0.9c-2.9,0-5.5,0.7-7.5,2
		c-2.1,1.3-3.9,3.1-5.2,5.2c-1.4,2.2-2.4,4.7-3,7.3c-0.6,2.6-0.9,5.3-0.9,7.9c0,3.6,0.9,6.3,2.7,8.3c1.8,2,4.5,2.9,8.2,2.9
		c2.7,0,5.1-0.7,7.1-2.1c2-1.4,3.8-3.2,5.1-5.3c1.4-2.2,2.5-4.6,3.1-7.2C414.1,260.4,414.4,257.9,414.5,255.3z M455.2,250.8
		c-0.1-2.4-1-4.1-2.8-5.2c-1.7-1.1-4-1.7-6.8-1.7c-1,0-2,0.1-3,0.3c-0.9,0.2-1.8,0.5-2.6,1c-0.8,0.5-1.4,1.1-1.8,1.8
		c-0.4,0.7-0.6,1.7-0.6,2.9c0,1.1,0.4,2,1.2,2.7c0.9,0.7,2,1.3,3.3,1.8c1.3,0.5,2.9,1,4.5,1.5c1.7,0.4,3.3,1,5,1.6
		c1.4,0.6,2.8,1.2,4.1,1.8c1.3,0.7,2.5,1.5,3.5,2.5c1,1,1.9,2.1,2.5,3.5c0.6,1.3,0.9,3,0.9,4.9c0,2.8-0.6,5.1-1.8,7.1
		c-1.2,2-2.8,3.6-4.8,4.9c-2.1,1.3-4.4,2.3-6.8,2.8c-2.5,0.6-5.1,0.9-7.6,0.9c-2.8,0-5.3-0.3-7.7-0.8c-2.2-0.4-4.4-1.3-6.3-2.6
		c-1.8-1.3-3.3-3.1-4.2-5.1c-1-2.1-1.6-4.8-1.7-8.1h9.9c-0.1,3,0.8,5.2,2.9,6.4c2,1.2,4.6,1.8,7.6,1.8c1.1,0,2.2-0.1,3.4-0.3
		c1.2-0.2,2.2-0.6,3.2-1.1s1.8-1.2,2.4-2c0.7-0.9,1-2.1,1-3.4c0-1.2-0.5-2.2-1.4-3c-1-0.9-2.2-1.6-3.4-2c-1.5-0.7-3.1-1.2-4.7-1.7
		c-1.7-0.5-3.4-1-5.1-1.7c-1.4-0.5-2.7-1.1-4-1.7c-1.2-0.7-2.3-1.5-3.3-2.4c-1-1-1.8-2.1-2.3-3.4c-0.6-1.3-0.8-2.8-0.8-4.6
		c0-2.6,0.6-4.8,1.7-6.6c1.1-1.8,2.7-3.4,4.5-4.5c1.9-1.2,4-2.1,6.3-2.6c2.4-0.6,4.8-0.8,7.2-0.8c2.4,0,4.9,0.2,7.3,0.7
		c2.3,0.4,4.2,1.2,5.9,2.4c1.7,1.2,3.1,2.8,4,4.7c1,2,1.4,4.4,1.4,7.4C465.1,250.8,455.2,250.8,455.2,250.8z"/>
</g>
</svg>
