<svg width="500" height="500" viewBox="0 0 500 500" fill="none" xmlns="http://www.w3.org/2000/svg">
<rect width="500" height="500" fill="#3478F6"/>
<path d="M158.359 242.785C157.687 241.532 156.714 240.584 155.441 239.939C154.202 239.259 152.734 238.919 151.036 238.919C148.099 238.919 145.747 239.904 143.978 241.872C142.209 243.805 141.324 246.399 141.324 249.656C141.324 253.128 142.244 255.847 144.084 257.816C145.959 259.748 148.524 260.715 151.779 260.715C154.008 260.715 155.883 260.142 157.404 258.997C158.961 257.852 160.093 256.205 160.801 254.058H149.285V247.294H169.027V255.83C168.354 258.12 167.204 260.249 165.577 262.218C163.985 264.186 161.951 265.779 159.474 266.996C156.997 268.212 154.202 268.821 151.089 268.821C147.409 268.821 144.119 268.016 141.218 266.405C138.352 264.759 136.105 262.486 134.478 259.587C132.886 256.688 132.09 253.378 132.09 249.656C132.09 245.934 132.886 242.624 134.478 239.725C136.105 236.79 138.352 234.517 141.218 232.907C144.084 231.261 147.356 230.437 151.036 230.437C155.494 230.437 159.244 231.529 162.287 233.712C165.365 235.895 167.399 238.919 168.39 242.785H158.359Z" fill="white"/>
<path d="M189.446 238.222V245.845H201.599V252.931H189.446V261.198H203.191V268.552H180.371V230.867H203.191V238.222H189.446Z" fill="white"/>
<path d="M242.201 230.867V238.222H232.33V268.552H223.255V238.222H213.384V230.867H242.201Z" fill="white"/>
<path d="M275.628 249.227C277.786 249.692 279.52 250.783 280.829 252.501C282.138 254.183 282.792 256.116 282.792 258.299C282.792 261.448 281.696 263.954 279.502 265.815C277.344 267.64 274.319 268.552 270.427 268.552H253.073V230.867H269.843C273.629 230.867 276.583 231.744 278.706 233.497C280.864 235.251 281.943 237.631 281.943 240.637C281.943 242.856 281.36 244.699 280.192 246.167C279.06 247.634 277.539 248.654 275.628 249.227ZM262.148 246.113H268.092C269.578 246.113 270.71 245.791 271.489 245.147C272.302 244.467 272.709 243.482 272.709 242.194C272.709 240.906 272.302 239.921 271.489 239.241C270.71 238.561 269.578 238.222 268.092 238.222H262.148V246.113ZM268.835 261.144C270.356 261.144 271.524 260.804 272.338 260.124C273.187 259.408 273.611 258.388 273.611 257.064C273.611 255.74 273.169 254.702 272.285 253.951C271.435 253.199 270.25 252.823 268.729 252.823H262.148V261.144H268.835Z" fill="white"/>
<path d="M303.449 261.466H315.336V268.552H294.374V230.867H303.449V261.466Z" fill="white"/>
<path d="M343.602 268.928C340.099 268.928 336.88 268.105 333.943 266.459C331.042 264.813 328.725 262.522 326.991 259.587C325.293 256.617 324.444 253.289 324.444 249.602C324.444 245.916 325.293 242.606 326.991 239.671C328.725 236.736 331.042 234.446 333.943 232.8C336.88 231.153 340.099 230.33 343.602 230.33C347.105 230.33 350.306 231.153 353.208 232.8C356.144 234.446 358.444 236.736 360.107 239.671C361.805 242.606 362.654 245.916 362.654 249.602C362.654 253.289 361.805 256.617 360.107 259.587C358.409 262.522 356.109 264.813 353.208 266.459C350.306 268.105 347.105 268.928 343.602 268.928ZM343.602 260.554C346.574 260.554 348.944 259.552 350.713 257.547C352.518 255.543 353.42 252.895 353.42 249.602C353.42 246.274 352.518 243.626 350.713 241.657C348.944 239.653 346.574 238.651 343.602 238.651C340.595 238.651 338.189 239.635 336.384 241.604C334.615 243.572 333.731 246.238 333.731 249.602C333.731 252.931 334.615 255.597 336.384 257.601C338.189 259.569 340.595 260.554 343.602 260.554Z" fill="white"/>
<path d="M372.482 249.656C372.482 245.934 373.278 242.624 374.87 239.725C376.462 236.79 378.673 234.517 381.504 232.907C384.369 231.261 387.607 230.437 391.215 230.437C395.638 230.437 399.423 231.618 402.572 233.981C405.721 236.343 407.826 239.564 408.888 243.643H398.91C398.167 242.069 397.106 240.87 395.726 240.047C394.382 239.224 392.843 238.812 391.109 238.812C388.314 238.812 386.05 239.796 384.316 241.765C382.583 243.733 381.716 246.363 381.716 249.656C381.716 252.949 382.583 255.579 384.316 257.547C386.05 259.516 388.314 260.5 391.109 260.5C392.843 260.5 394.382 260.088 395.726 259.265C397.106 258.442 398.167 257.243 398.91 255.669H408.888C407.826 259.748 405.721 262.969 402.572 265.331C399.423 267.658 395.638 268.821 391.215 268.821C387.607 268.821 384.369 268.016 381.504 266.405C378.673 264.759 376.462 262.486 374.87 259.587C373.278 256.688 372.482 253.378 372.482 249.656Z" fill="white"/>
<path d="M442.362 268.552L429.838 251.911V268.552H420.763V230.867H429.838V247.401L442.256 230.867H452.923L438.488 249.334L453.454 268.552H442.362Z" fill="white"/>
<path d="M77.1716 249.629V286L46 268.186V231.814L77.1716 249.629Z" fill="white"/>
<path opacity="0.25" d="M77.1738 249.629L108.345 231.814V268.186L77.1738 286V249.629Z" fill="white"/>
<path opacity="0.5" d="M77.1716 214L108.343 231.815L77.1716 249.629L46 231.815L77.1716 214Z" fill="white"/>
</svg>
