<?xml version="1.0" encoding="utf-8"?>
<!-- Generator: Adobe Illustrator 25.4.1, SVG Export Plug-In . SVG Version: 6.00 Build 0)  -->
<svg version="1.1" id="Layer_1" xmlns="http://www.w3.org/2000/svg" xmlns:xlink="http://www.w3.org/1999/xlink" x="0px" y="0px"
	 viewBox="0 0 500 500" style="enable-background:new 0 0 500 500;" xml:space="preserve">
<style type="text/css">
	.st0{fill:#8C929D;}
	.st1{fill:#E24329;}
	.st2{fill:#FCA326;}
	.st3{fill:#FC6D26;}
	.st4{display:none;}
	.st5{display:inline;opacity:0.1;fill:#E828E3;enable-background:new    ;}
	.st6{display:inline;}
	.st7{font-family:'ArialMT';}
	.st8{font-size:24px;}
</style>
<g id="logo_art">
	<g>
		<g>
			<path id="path14_3_" class="st0" d="M351,210.4h-10.6l0,79.3h43.1v-9.8H351L351,210.4L351,210.4z"/>
			<g id="g24_3_" transform="translate(977.327440, 143.284396)">
				<path id="path26_3_" class="st0" d="M-552.9,132.5c-2.7,2.8-7.1,5.6-13.2,5.6c-8.1,0-11.4-4-11.4-9.2c0-7.9,5.5-11.6,17.1-11.6
					c2.2,0,5.7,0.2,7.5,0.6L-552.9,132.5L-552.9,132.5z M-563.9,84.4c-8.6,0-16.5,3-22.6,8.1l3.8,6.5c4.3-2.5,9.7-5.1,17.3-5.1
					c8.7,0,12.6,4.5,12.6,12v3.9c-1.7-0.3-5.2-0.6-7.4-0.6c-18.6,0-28.1,6.5-28.1,20.2c0,12.2,7.5,18.4,18.9,18.4
					c7.7,0,15-3.5,17.6-9.2l2,7.8h7.5v-40.6C-542.5,93-548.1,84.4-563.9,84.4L-563.9,84.4z"/>
			</g>
			<g id="g28_3_" transform="translate(1099.766904, 143.128930)">
				<path id="path30_3_" class="st0" d="M-630.6,138.5c-4,0-7.5-0.5-10.1-1.7V104v-3.8c3.6-3,8.1-5.2,13.8-5.2
					c10.3,0,14.2,7.3,14.2,19C-612.7,130.7-619.1,138.5-630.6,138.5 M-626.1,84.6c-9.5,0-14.6,6.5-14.6,6.5V80.8l0-13.6h-4.8h-5.6
					l0,77.3c5.2,2.2,12.3,3.4,20.1,3.4c19.9,0,29.4-12.7,29.4-34.6C-601.7,96-610.5,84.6-626.1,84.6"/>
			</g>
			<g id="g32_5_" transform="translate(584.042117, 143.630796)">
				<path id="path34_5_" class="st0" d="M-348.9,75.4c9.4,0,15.5,3.1,19.5,6.3l4.6-8c-6.2-5.5-14.6-8.4-23.6-8.4
					c-22.6,0-38.5,13.8-38.5,41.7c0,29.2,17.1,40.5,36.7,40.5c9.8,0,18.1-2.3,23.6-4.6l-0.2-31.2v-3.7v-6.1h-29v9.8h18.5l0.2,23.7
					c-2.4,1.2-6.6,2.2-12.3,2.2c-15.7,0-26.2-9.9-26.2-30.7C-375.7,85.6-364.8,75.4-348.9,75.4"/>
			</g>
			<g id="g36_4_" transform="translate(793.569045, 142.577463)">
				<path id="path38_4_" class="st0" d="M-483.5,67.8h-10.4l0,13.3v5.5v3.2v5.6V127v0.1c0,12.8,5.6,21.4,21.4,21.4
					c2.2,0,4.3-0.2,6.4-0.6v-9.3c-1.5,0.2-3.1,0.3-4.8,0.3c-8.7,0-12.6-4.5-12.6-12V95.3h17.4v-8.7h-17.4L-483.5,67.8L-483.5,67.8z"
					/>
			</g>
			<path id="path40_33_" class="st0" d="M273.3,289.6h10.4v-60.5h-10.4V289.6L273.3,289.6z"/>
			<path id="path42_3_" class="st0" d="M273.3,220.8h10.4v-10.4h-10.4V220.8L273.3,220.8z"/>
		</g>
		<g>
			<path id="path50_5_" class="st1" d="M84.2,325.8L84.2,325.8l30.3-93.3H53.9L84.2,325.8L84.2,325.8z"/>
			<path id="path66_12_" class="st2" d="M11.4,232.5L11.4,232.5l-9.2,28.4c-0.8,2.6,0.1,5.4,2.3,7l79.8,58L11.4,232.5L11.4,232.5z"
				/>
			<path id="path74_5_" class="st1" d="M11.4,232.5h42.5l-18.3-56.2c-0.9-2.9-5-2.9-6,0L11.4,232.5L11.4,232.5z"/>
			<path id="path82_12_" class="st2" d="M157,232.5L157,232.5l9.2,28.4c0.8,2.6-0.1,5.4-2.3,7l-79.8,58L157,232.5L157,232.5z"/>
			<path id="path86_5_" class="st1" d="M157,232.5h-42.5l18.3-56.2c0.9-2.9,5-2.9,6,0L157,232.5L157,232.5z"/>
			<polygon class="st3" points="84.2,325.8 114.5,232.5 157,232.5 			"/>
			<polygon class="st3" points="84.2,325.8 11.4,232.5 53.9,232.5 			"/>
		</g>
	</g>
</g>
<g id="spacing_guides" xmlns:sketch="http://www.bohemiancoding.com/sketch/ns" class="st4">
	<path id="path40_32_" sketch:type="MSShapeGroup" class="st5" d="M-384-29.5v124H884v-124H-384L-384-29.5z"/>
	<path id="path40_31_" sketch:type="MSShapeGroup" class="st5" d="M-384,405.5v124H884v-124H-384L-384,405.5z"/>
	<path id="path40_30_" sketch:type="MSShapeGroup" class="st5" d="M-121.3,405.1h62v-310h-62V405.1L-121.3,405.1z"/>
	<path id="path40_29_" sketch:type="MSShapeGroup" class="st5" d="M79.2,530.5h62v-561h-62V530.5L79.2,530.5z"/>
	<text transform="matrix(1 0 0 1 -126.7471 165.5)" class="st6 st7 st8">H: 2.5 x</text>
	<text transform="matrix(1 0 0 1 85.4727 253.332)" class="st6 st7 st8">1/2 x</text>
	<text transform="matrix(1 0 0 1 238.2881 470.9978)" class="st6 st7 st8">1x</text>
	<text transform="matrix(1 0 0 1 238.2881 35.9988)" class="st6 st7 st8">1x</text>
	<path id="path40_27_" sketch:type="MSShapeGroup" class="st5" d="M-383,530.5h124v-561h-124V530.5L-383,530.5z"/>
	<text transform="matrix(1 0 0 1 -331.7119 253.332)" class="st6 st7 st8">1x</text>
	<path id="path40_3_" sketch:type="MSShapeGroup" class="st5" d="M759,530.5h124v-561H759V530.5L759,530.5z"/>
	<text transform="matrix(1 0 0 1 808.2881 253.332)" class="st6 st7 st8">1x</text>
</g>
</svg>
