<?xml version="1.0" encoding="utf-8"?>
<!-- Generator: Adobe Illustrator 25.4.1, SVG Export Plug-In . SVG Version: 6.00 Build 0)  -->
<svg version="1.1" id="Layer_1" xmlns="http://www.w3.org/2000/svg" xmlns:xlink="http://www.w3.org/1999/xlink" x="0px" y="0px"
	 viewBox="0 0 500 500" style="enable-background:new 0 0 500 500;" xml:space="preserve">
<style type="text/css">
	.st0{fill:#3F5D9A;}
</style>
<g>
	<path class="st0" d="M159.8,226.5c-1.3-3.6-3.3-6.8-4.6-10.4c-6.3-17-17.8-29.1-34.4-36.5c-3.2-1.4-6.6-2.1-9.8-3.4
		c-4.6-1.9-9.2-3.3-14.1-4.2c-1.8-0.3-3.6-0.2-5.3-0.9c-3.7,0-7.3,0-11.1-0.3c-0.3,0.5-0.8,0.4-1.2,0.4c-4.6,0.6-9.1,1.5-13.5,3.1
		c-1,0.4-2.1,0.6-3.2,0.8c-14.1,2.1-26.1,8.5-36.1,18.6c-2.7,2.8-4.7,6-7.4,8.7c-13.3,13.7-19.1,30-17.3,49c0,0.6,0.1,1.2,0,1.8
		c-0.6,4.9-0.6,9.9,0.2,14.8c3,19.4,12.8,34.1,29.8,44c6.4,3.8,13.8,5.3,20.3,8.8c4,2.2,8.6,2.8,12.9,4.3
		c10.4,3.6,20.9,4.5,31.7,2.8c9.7-1.6,18.2-5.9,26.5-10.8c3.7-2.2,6.9-5.1,10.5-7.3c18.5-11.2,28.1-27.7,29.5-49.2
		c0.2-3.1-0.3-6.3-0.1-9.4C163.7,242.8,162.6,234.5,159.8,226.5z M153.4,261.5c0-0.3,0.1-0.6,0.2-0.9c2.6-6,4.2-12.3,4.8-18.8
		c0-0.2,0-0.5,0.4-0.7c1.9,5.9,3.1,11.8,1.4,18.1c-1.8,6.4-4.1,12.5-7.6,18.1c-0.1,0.2-0.3,0.4-0.8,1
		C153.1,272.5,153.5,267,153.4,261.5z M156.7,237.8c-0.2,6.1-1.2,12-3.2,17.8c-0.1,0.3-0.3,0.7-0.4,1c-1.1-5.9-2.6-11.6-5.1-16.9
		c-0.1-0.2-0.2-0.5-0.2-0.8c0-6,0.1-12-1.2-18.2c1.4,1,2.1,2.1,2.9,3.1c2.5,3.2,4.6,6.7,6.4,10.4
		C156.5,235.3,156.8,236.5,156.7,237.8z M70.8,318.9c4.4-0.7,8.7-2.1,12.9-3.5c0.6-0.2,1.2-0.5,1.8-0.3c5.4,1.8,11,2.7,17.2,3
		c-3,1.6-5.8,2.6-8.5,3.5c-2.8,0.9-5.6,1.5-8.5,2c-1.7,0.3-3.2,0-4.8-0.3c-4.3-0.9-8.4-2-12.5-3.8C69.2,318.9,70,319,70.8,318.9z
		 M65.2,317.7c-0.5,0.1-0.9-0.1-1.3-0.3c-6.8-3.6-12.7-8.3-17.7-14.2c-0.2-0.2-0.3-0.4-0.7-1.1c12.3,4,24.1,7.9,36,11.7
		C76.2,316.1,70.8,317.4,65.2,317.7z M88,314c11.5-3.7,22.6-7.3,33.6-10.9c-1.4,2.2-3.2,4-5,5.8c-2.5,2.2-5.2,4.1-7.9,6
		c-1.6,1.1-3.2,1.6-5.1,1.5C98.5,316.2,93.4,315.6,88,314z M85.8,312.7c-0.8,0.2-1.4,0.1-2.1-0.1c-13.1-4.3-26.3-8.6-39.4-12.8
		c-0.8-0.2-1.4-0.7-1.9-1.4c-4.8-6.6-9.6-13.3-14.5-19.9c-0.4-0.6-0.7-1.3-0.8-2.1c-0.4-3.2-0.6-6.4-0.6-9.7c0-4.8,0-9.6,0-14.4
		c0-6.4,0-12.9-0.1-19.4c0-1.1,0.3-2,0.9-2.8c6-8.2,11.9-16.4,17.9-24.6c0.4-0.6,1-1,1.7-1.2c12.3-4,24.6-8,36.9-12
		c0.8-0.3,1.6-0.3,2.4,0c11.4,3.7,22.8,7.4,34.2,11.1c0.8,0.2,1.5,0.8,2,1.5c5.6,7.8,11.3,15.6,17,23.4c0.4,0.5,0.8,1.1,1.2,1.6
		c3.9,5.1,6.1,10.6,5.6,17.4c-0.5,7.1-0.1,14.1-0.1,21.2c0,1.1-0.3,2-1,2.9c-6.7,9.2-13.4,18.4-20.1,27.6c-0.5,0.7-1.1,1.2-1.9,1.5
		C110.7,304.6,98.2,308.6,85.8,312.7z M139.7,211.4c-4.8-3.6-10-6.4-15.7-8.4c-0.7-0.2-1.3-0.6-1.8-1.3c-3-4.3-6.4-8.2-10.3-11.6
		c-0.1-0.1-0.2-0.3-0.4-0.6c4.8,0.5,9.3,1.6,13.6,3.5c11.2,4.9,10.3,4.2,15.8,15c0.9,1.8,1.6,3.7,2.2,6
		C141.7,212.9,140.7,212.1,139.7,211.4z M145.4,222.2c0.5,4.3,0.9,8.5,0.8,13.3c-1.8-2.9-3.4-5.4-5.1-7.8
		c-5.1-7-10.1-13.9-15.2-20.9c-0.3-0.3-0.5-0.7-0.7-1.1c0-0.1-0.1-0.2-0.1-0.3c0.1,0,0.2,0.1,0.3,0.1c5.8,2,10.7,5.4,15.6,9
		C143.7,216.5,145,219,145.4,222.2z M111.6,192.3c2.4,2.5,4.9,4.9,7,7.7c0.3,0.3,0.8,0.6,0.7,1.4c-10.3-3.4-20.6-6.7-31.4-10.2
		c5.3-1.5,10.1-2,15.1-2.3C106.5,188.7,109.2,189.8,111.6,192.3z M96.8,187.6c-3.6,0.4-7.1,1.2-10.5,2.3c-0.8,0.2-1.5,0.3-2.3,0
		c-6-2-12-3.8-18.3-4.4c5.5-3.6,11.4-5.9,17.8-7.5c0.3,0,0.7-0.1,1.1,0c7.2,1.6,14,4.6,20.4,8.9C102.1,187.2,99.4,187.3,96.8,187.6z
		 M70.1,187.9c3.9,0.5,7.7,1.7,11.8,3.2c-2.4,0.8-4.5,1.5-6.6,2.2c-8.5,2.8-17,5.6-25.5,8.3c-0.5,0.2-1.1,0.6-1.7,0.3
		c2.4-3.8,5.3-7.1,8.6-10C63.6,186,61.2,186.8,70.1,187.9z M58.9,187.8c-5.2,4-9.5,8.8-13.2,14.2c-0.6,0.9-1.3,1.4-2.3,1.7
		c-3.9,1.2-7.6,2.9-11.3,4.7c-0.1,0-0.3,0.1-0.4,0c0-0.2,0.1-0.3,0.1-0.4c2.9-7,7.3-13,12.7-18.3c0.3-0.2,0.6-0.4,1-0.5
		c4.5-1.2,8.9-1.9,13.5-2C59.3,187.5,59.1,187.7,58.9,187.8z M32.7,210.1c3.1-1.6,6.2-3.1,9.5-4.1c0.1,0.2,0.2,0.3,0.3,0.4
		c-5.2,7.1-10.3,14.2-15.5,21.3c0-4.7,1-9.1,2.3-13.5C29.8,212.2,30.9,211,32.7,210.1z M26.5,218.4c-0.9,3.7-1.4,7.5-1.6,11.4
		c0,1-0.3,1.8-0.8,2.6c-4.5,7.2-7.3,15-8.6,23.4c-0.1,0.3,0.1,0.7-0.4,1c-1.3-2.9-2-6-2.6-9c-1-5-1.2-10-1-15c0-1.5,0.5-2.8,1.3-4
		c3.6-5.3,7.8-10,12.9-13.9c0.4-0.4,0.8-0.9,1.8-0.9C27.1,215.5,26.7,216.9,26.5,218.4z M24.8,274c-3.2-4.1-6-8.3-8-13
		c-0.5-1.2,0-2.6,0.2-3.9c0.9-7.8,3.4-15.2,7.5-22C24.8,248.1,24.5,261,24.8,274z M14.2,259.6c0.4,1,0.5,1.9,0.5,2.9
		c-0.1,6,0.6,11.9,2.1,17.7c0.2,0.4,0.2,0.9,0.3,1.3c-0.8,0.1-0.9-0.5-1.2-0.8c-6.5-8.1-10.5-17.4-12-27.7c-0.3-2,0.4-4,0.9-6
		c0.8-3.5,2-7,3.5-10.3c0.3-0.6,0.4-1.2,1.1-1.7c0.3,2.9,0.2,5.6,0.5,8.2C10.6,248.9,12,254.3,14.2,259.6z M16.8,265.6
		c2.6,4.4,5.8,8.4,8.7,12.7c0.4,0.6,0.4,1.5,0.6,2.2c0.9,4.1,2.1,8,3.8,11.8c0.2,0.3,0.5,0.7,0.2,1.2c-3.4-2.1-6.6-4.5-9.3-7.4
		c-1.2-1.3-1.4-3.4-1.9-5.1C17.4,276,16.6,270.9,16.8,265.6z M28.6,282.6c-0.1-0.1-0.1-0.1-0.2-0.1
		C28.5,282.5,28.5,282.5,28.6,282.6C28.6,282.5,28.6,282.6,28.6,282.6c3.8,5.1,7.6,10.2,11.4,15.3c-3.4-1.1-6.9-1.7-8.2-5.7
		C30.7,289,29,286,28.6,282.6z M145.3,274.4c0.2,3-0.6,5.7-1.1,8.5c-0.9,5.1-3.6,8.9-8.2,11.4c-2.6,1.4-5.1,3.1-8.1,4
		C133.7,290.3,139.5,282.4,145.3,274.4z M145.3,286.3c0.5-2.8,1.1-5.5,1.7-8.3c0.1-0.7,0.3-1.4,0.3-2c-0.1-4.1,1.7-7.5,4.2-10.8
		c0.3,2.2-0.1,4.3-0.3,6.4c-0.3,3.1-1,6.1-1.8,9.1C148.7,283.2,147.1,284.8,145.3,286.3C145.2,286.4,145.2,286.3,145.3,286.3z
		 M147.9,266.4c0-7.2,0-14.3,0-21.8c0.9,1.4,1.1,2.8,1.5,4.1c1.1,3.6,1.7,7.3,2,11c0.1,0.8-0.1,1.4-0.4,2.1
		c-0.9,1.7-1.8,3.4-2.7,5.1c-0.1,0-0.2-0.1-0.3-0.1C148,266.7,147.9,266.5,147.9,266.4z M156.3,230.5c-2-3.3-4-6.7-6.6-9.5
		c-2.8-2.8-4.6-6-5.7-9.8c-0.9-3-2.4-5.9-4-8.8c2.2,0.6,3.5,2.3,4.9,3.8C154,216,155.1,218.9,156.3,230.5z M125,183.8
		c10.1,5.4,18.1,12.9,23.8,22.8c0.1,0.2,0.1,0.4,0.2,0.6c0.3,0.2,0.4,0.6,0.1,0.9c-0.1-0.3-0.3-0.5-0.4-0.7
		c-3.6-3.8-7.4-7.4-11.7-10.2c-0.3-0.2-0.6-0.5-0.8-0.8c-3.7-4.8-7.8-9.1-12.7-12.7c-0.1-0.1-0.2-0.2-0.3-0.4
		C123.9,183,124.5,183.5,125,183.8z M122.3,185c3,2.1,5.6,4.6,8.1,7.3c0.4,0.4,1,0.7,0.8,1.5c-6.7-3.5-13.9-5.6-21.5-6.3
		c-0.7,0-1.3-0.1-1.9-0.5c-5.5-4.2-11.6-7.2-18.2-9.3c-0.2-0.1-0.4-0.2-0.9-0.4c2.6-0.6,5-0.6,7.3-0.7c3.9-0.1,7.8,0.4,11.7,1
		C113.4,178.5,117.8,181.8,122.3,185z M99.9,174.7c-5.2,0-10.3,0.3-15.2,1.3c-0.2,0-0.5,0.1-0.8,0c-3.7-0.7-7.4-1.1-11.3-1.3
		C78.4,172.5,93.9,172.4,99.9,174.7z M62.8,177.6c2.2-1.1,4.5-1,6.8-1.1c3.1-0.1,6.3,0.1,9.4,0.7c-5.8,2-11.2,4.5-16.3,7.8
		c-0.3,0.2-0.7,0.3-1.1,0.3c-4.4,0-8.8,0.4-13.2,1.2c2.1-2,4.4-3.5,6.8-5C57.6,180,60.2,178.8,62.8,177.6z M55.9,178.8
		c-2.5,1.9-5.3,3.4-7.6,5.4c-2.7,2.5-5.8,4.3-9.3,5.4c-2.8,0.9-5.4,2.4-8,3.9c-0.4,0.3-0.9,0.7-1.7,0.3
		C36.9,186.5,45.6,181.3,55.9,178.8z M35.5,193.1c1.2-0.6,2.6-1.1,3.9-1.7c0.2-0.1,0.5,0,0.8,0c0,0.7-0.5,1-0.9,1.3
		c-4.2,5-7.6,10.5-10.1,16.6c-0.2,0.7-0.6,1.3-1.2,1.7c-5.8,3.8-10.8,8.5-14.9,14.1c-0.1,0.2-0.2,0.5-0.7,0.5
		c0.5-3.3,1.4-6.4,2.5-9.5c1-2.9,2.4-5.6,3.7-8.3C22.1,200.4,28.8,196.7,35.5,193.1z M14.8,210.3c0.5,0.8,0.1,1.2-0.1,1.6
		c-2.4,5.4-3.9,11.1-4.6,17c-0.1,0.6-0.2,1.1-0.5,1.6c-2.4,4.2-4.3,8.6-5.7,13.2c-0.1,0.2,0,0.5-0.6,0.7
		C3.5,231.8,7.3,220.6,14.8,210.3z M38.7,313.3c-0.2,0.2-0.4,0.1-0.6-0.1c-5.3-2.1-10.1-5.2-14.4-8.9
		c-12.9-11.2-19.5-25.4-20.3-42.4c-0.1-0.4,0-0.8,0.2-1.2c0.5,1.6,1,3.1,1.6,4.7c2.8,7.8,7.2,14.7,13,20.7c0.4,0.4,0.8,0.8,1,1.3
		c4.1,10.2,10.6,18.6,19.2,25.5C38.6,313,38.9,313,38.7,313.3z M45.3,315.5c-9.4-5.8-16.8-13.4-22-23.2c-0.2-0.4-0.4-0.8-0.6-1.2
		c0.4-0.4,0.7-0.2,1,0s0.5,0.4,0.7,0.5c5.3,3.1,9.3,7.2,12.5,12.5c2.7,4.5,6.8,8.2,11,11.5c0.3,0.3,0.9,0.5,1,1.1
		C47.6,316.5,46.5,316.2,45.3,315.5z M50.2,315.2c-5.4-4.5-10.3-9.3-14.1-15.2c-0.3-0.5-0.8-0.8-0.8-1.7c3.2,1.7,6.7,2.2,9.1,5.4
		c4.3,5.8,9.9,10.2,16.1,14.1C56.8,317.9,53.3,317.8,50.2,315.2z M57.4,319.7c2.4,0,4.4,0,6.3,0c0.4,0,0.7,0.1,1,0.2
		c3.6,1.7,7.3,3.1,11.3,4.2C70.9,324.9,62.9,323,57.4,319.7z M75.8,326.2c8.2-1.3,16.1,0.6,24-0.7C91.9,327.4,84,327.5,75.8,326.2z
		 M92.3,324.3c0.3-0.6,0.9-0.6,1.3-0.7c4-1.2,7.9-2.7,11.6-4.7c1.1-0.6,2.2-0.9,3.4-1c4.4-0.3,8.7-1.3,13-2.3
		C112.8,321.7,102.8,323.9,92.3,324.3z M127.4,310.9c-0.4,0.5-1,0.8-1.6,1.1c-4.4,1.8-9,3-13.7,3.7c-0.4,0-0.8,0-1.3,0
		c2.1-1.7,4.1-3.2,6-4.8c2.8-2.4,5.3-5.1,7.6-8c0.6-0.9,1.3-1.4,2.3-1.8c4.2-1.7,8.3-3.8,11.9-6.7c0.2-0.2,0.5-0.2,0.9-0.1
		c0,0.7-0.4,1.3-0.7,1.9C135.7,301.7,132,306.6,127.4,310.9z M143,291.6c0.6-1.5,2-2.2,3.2-3.1c-2.2,5.7-5.4,10.7-9.6,15
		C139,299.7,141.2,295.8,143,291.6z M139.8,302.8c2.9-3.5,5.3-7,7-11c2.3-5.7,5.2-11,8.6-16.1c2.3-3.4,3.7-7.2,5-11.1
		c0.2-0.4,0.2-0.9,0.6-1.3C162.9,272.9,148,301.2,139.8,302.8z M158.2,228.4c2,4.6,2.7,9.4,3.2,14.6
		C159.2,238.3,158,233.5,158.2,228.4z"/>
	<path class="st0" d="M223.4,253.1c-3.2,0-6.4,0-9.6,0c-3.4,0-6.8,0-10.1,0.1c-1.4,0-2.3,0.8-2.3,2.1c-0.1,1.4,0.7,2.2,2.1,2.3
		c0.6,0,1.1,0,1.7,0c5,0,9.9,0.1,14.9,0c1.2,0,1.5,0.4,1.5,1.5c-0.1,4.3-0.1,8.6,0,12.9c0,1.1-0.3,1.7-1.1,2.4
		c-6.1,4.9-13.1,6.6-20.7,5.1c-10.4-2-18.1-10.3-19.6-20.9c-1.5-10.1,3.8-20.3,13-25.1c9.1-4.8,20.6-3.3,28.2,3.7
		c0.4,0.4,0.9,0.8,1.4,1.1c1,0.5,2,0.2,2.7-0.6s0.8-1.7,0.2-2.6c-0.4-0.5-0.9-1-1.4-1.4c-7.5-6.7-16.3-8.7-26-6.8
		c-11.6,2.3-24.9,14.3-22.5,32.2c1.5,11.6,8.1,19.7,19.1,23.6c11.1,3.9,21.3,1.7,30.1-6.4c0.8-0.7,1.1-1.5,1.1-2.6
		c0-6,0-11.9,0-17.9C226.1,253.9,225.3,253.1,223.4,253.1z"/>
	<path class="st0" d="M320.5,245.8c-2.6-5.9-5.2-11.8-7.8-17.7c-0.5-1-1.1-1.9-2.4-1.9c-1.4,0-2,0.9-2.4,2c0,0.1-0.1,0.2-0.1,0.3
		c-5.4,12.2-10.7,24.4-16.1,36.6c-2.3,5.2-4.6,10.5-6.9,15.7c-0.5,1.1-0.5,2.2,0.5,3c0.9,0.7,1.9,0.7,2.8,0.1c0.6-0.4,0.8-1,1.1-1.6
		c2.2-4.8,4.3-9.6,6.4-14.5c0.4-0.9,0.8-1.3,1.9-1.3c8.6,0.1,17.2,0.1,25.8,0c1.1,0,1.5,0.4,1.9,1.3c2,4.6,4.1,9.3,6.1,13.9
		c0.3,0.6,0.5,1.3,0.9,1.8c0.6,0.8,1.5,1.1,2.5,0.7c1-0.3,1.5-1,1.5-2.4c0-0.3-0.3-0.8-0.5-1.5C330.6,268.8,325.6,257.3,320.5,245.8
		z M319.5,262c-6.6,0-13.3,0-19.9,0c-0.9,0-1.6,0.1-1-1.2c3.9-8.6,7.7-17.3,11.5-26c0-0.1,0.2-0.2,0.4-0.5
		c4.1,9.3,8.1,18.4,12.2,27.7C321.5,262,320.5,262,319.5,262z"/>
	<path class="st0" d="M274.7,279.6c-4.8-5.1-9.5-10.2-14.2-15.3c-0.3-0.4-0.9-0.7-0.9-1.4c0.2,0,0.4-0.1,0.7-0.1
		c9.9-1.9,16.1-9.9,15.3-20c-0.6-8-7.9-16.5-18.3-16.5c-6.7,0-13.5,0-20.2,0c-0.4,0-0.9,0-1.3,0.1c-1.1,0.3-1.6,1.1-1.6,2.1
		c0,1.2,0.6,1.9,1.7,2.2c0.5,0.2,1,0.1,1.6,0.1c6.5,0,12.9,0,19.4,0c4.7,0,8.6,1.8,11.4,5.6c3.3,4.4,3.7,9.3,1.4,14.2
		c-2.3,4.9-6.4,7.8-11.9,7.9c-6.9,0.2-13.8,0.1-20.7,0.1c-2.2,0-3,0.8-3,3c0,6,0,12,0,18c0,0.8-0.1,1.7,0,2.6
		c0.1,1.3,0.8,2.1,2.2,2.2c1.3,0.1,2.2-0.9,2.3-2.3c0-0.4,0-0.9,0-1.3c0-5.5,0.1-10.9,0-16.4c0-1.1,0.3-1.4,1.4-1.4
		c4,0.1,7.9,0.1,11.8,0c1,0,1.7,0.4,2.4,1.1c3.2,3.6,6.5,7,9.7,10.5c2.7,2.9,5.4,5.8,8.1,8.7c1.2,1.2,2.5,1.4,3.5,0.5
		c1.1-0.9,1-2.3-0.2-3.6C275.1,280,274.9,279.8,274.7,279.6z"/>
	<path class="st0" d="M372.8,226.5c-0.9,0.4-1.2,1.1-1.5,1.9c-2.2,5-4.4,10.1-6.6,15.1c-4.8,10.9-9.6,21.8-14.5,33
		c-0.4-0.7-0.6-1.2-0.7-1.5c-6.7-15.1-13.3-30.3-20-45.5c-0.3-0.7-0.6-1.5-1-2.1c-0.7-1-1.7-1.3-2.8-0.8c-1.1,0.5-1.6,1.5-1.2,2.7
		c0.1,0.5,0.4,1,0.6,1.5c4.5,10.1,8.9,20.3,13.4,30.4c3.1,7.1,6.2,14.1,9.3,21.2c0.4,0.9,0.8,1.8,2,2c1.6,0.2,2.2-0.7,2.8-2
		c5.1-11.7,10.3-23.4,15.4-35.1c2.6-5.8,5.1-11.6,7.7-17.4c0.4-1.1,0.6-2.1-0.4-3C374.5,226.2,373.7,226.1,372.8,226.5z"/>
	<path class="st0" d="M440.1,226.2c-0.3,0-0.5,0-0.7,0c-13,0-25.9,0-38.9,0c-0.3,0-0.7,0-1,0c-1.7,0.1-2.6,0.9-2.6,2.3
		c0.1,1.3,0.9,2.1,2.6,2.1c5.5,0.1,10.9,0.1,16.4,0c1.5,0,1.8,0.5,1.8,1.9c0,15.8,0,31.6,0,47.4c0,0.8,0,1.7,0.1,2.6
		c0.2,1.2,1,1.8,2.1,1.8c1.3,0.1,2-0.5,2.3-1.7c0.2-0.5,0.1-1,0.1-1.6c0-8,0-16,0-24c0-8.1,0.1-16.3-0.2-24.5
		c-0.1-1.6,0.4-1.9,1.9-1.9c5.4,0.1,10.7,0,16.1,0c1.9,0,2.9-0.8,2.9-2.2C443,227,442,226.2,440.1,226.2z"/>
	<path class="st0" d="M386.6,226.4c-1.2,0-1.9,0.6-2.2,1.8c-0.1,0.5-0.1,1.1-0.1,1.6c0,8.4,0,16.9,0,25.4c0,8.6,0,17.2,0.1,25.9
		c0,0.5-0.1,1,0,1.5c0.2,1.2,0.9,2,2.2,2c1.3-0.1,2-0.9,2.2-2.1c0-0.4,0-0.9,0-1.3c0-17.1,0-34.3,0-51.4c0-0.5,0-1.1-0.1-1.6
		C388.5,227.1,387.7,226.4,386.6,226.4z"/>
	<path class="st0" d="M498.5,229.1c0.3-0.6,0.3-1,0.2-1.2c0-0.6-0.4-1.2-0.9-1.6c-1-0.7-2-0.6-2.9,0.3c-0.5,0.5-0.8,1.1-1.1,1.6
		c-4.4,7-16.3,25.8-17.8,28.1c-1,1.5-1,1.5-2-0.1c-5.8-9.3-11.7-18.5-17.5-27.7c-0.3-0.5-0.6-1.1-1.1-1.6c-0.9-0.9-1.9-1-2.9-0.3
		c-0.9,0.7-1.2,1.7-0.7,2.8c0.3,0.5,0.5,0.9,0.8,1.3c5.7,9.1,11.3,18.2,17.2,27.1c2.2,3.3,3.4,6.6,3.1,10.6
		c-0.3,4.5-0.1,8.9-0.1,13.4c0,2.1,1.6,3.2,3.2,2.4c1.1-0.6,1.3-1.6,1.3-2.7c0-5.8,0-11.6,0-17.4c0-0.9,0.2-1.8,0.7-2.6
		c1.5-2.4,18.7-29.4,19.6-30.9C498,230.1,498.3,229.6,498.5,229.1C498.5,229.2,498.5,229.2,498.5,229.1
		C498.5,229.2,498.5,229.2,498.5,229.1z"/>
</g>
</svg>
