<?xml version="1.0" encoding="utf-8"?>
<!-- Generator: Adobe Illustrator 25.4.1, SVG Export Plug-In . SVG Version: 6.00 Build 0)  -->
<svg version="1.1" id="Layer_1" xmlns="http://www.w3.org/2000/svg" xmlns:xlink="http://www.w3.org/1999/xlink" x="0px" y="0px"
	 viewBox="0 0 500 500" style="enable-background:new 0 0 500 500;" xml:space="preserve">
<style type="text/css">
	.st0{fill-rule:evenodd;clip-rule:evenodd;fill:#798CE5;}
	.st1{fill:#798CE5;}
</style>
<g>
	<path class="st0" d="M409.6,41.1c0.4,0.4,0.6,0.9,0.6,1.5c0.2,2.6,19.3,264.9-159.4,326c-0.5,0.2-1.1,0.2-1.7,0
		C70.4,307.5,89.5,45.2,89.7,42.6c0.1-1.1,0.9-2,1.9-2.3L249.4,1.7c0.4-0.1,0.8-0.1,1.2,0l157.7,38.5
		C408.8,40.4,409.3,40.7,409.6,41.1z M380.6,69.1c0.3,0.3,0.5,0.7,0.5,1.2h0c0.2,2.2,15.8,216.3-130.5,266.1c-0.4,0.2-0.9,0.2-1.3,0
		C103,286.6,118.7,72.4,118.9,70.3c0.1-0.9,0.7-1.6,1.6-1.9l129-31.5c0.3-0.1,0.7-0.1,1,0l129,31.5C380,68.5,380.3,68.8,380.6,69.1
		L380.6,69.1z"/>
	<path class="st1" d="M248.2,83.9l-86,21c-0.6,0.2-1,0.7-1,1.3c-0.1,1.4-10.6,144.2,87,177.4c0.3,0.1,0.6,0.1,0.9,0
		c97.5-33.3,87.1-176,87-177.4c0-0.6-0.5-1.1-1.1-1.2l-86-21C248.6,83.9,248.4,83.9,248.2,83.9 M90.4,470.7v-12.9h20.9v38.1
		c-10.1,1.7-18.2,2.5-24.5,2.5c-11.2,0-18.9-3.1-23.1-9.2c-4.1-6.1-6.2-15.8-6.2-29.1s2.2-22.9,6.5-28.8c4.4-5.9,11.8-8.8,22.3-8.8
		c6.5,0,13.6,0.8,21.2,2.3l3.8,0.8l-0.4,11.5c-8.4-0.9-15.4-1.4-20.8-1.4c-5.3,0-9.1,0.6-11.3,1.9s-3.8,3.7-4.8,7.2
		c-1,3.5-1.5,9.4-1.5,17.9c0,8.4,1,14.3,3.1,17.7c2,3.4,6.3,5.1,12.7,5.1l8.7-0.4v-14.2L90.4,470.7L90.4,470.7z M139,472.6
		c0,8.6,4.3,12.8,12.8,12.8c8.5,0,12.8-4.3,12.8-12.8v-48.9H179v48.5c0,9-2.3,15.6-6.9,19.8c-4.5,4.2-11.3,6.3-20.5,6.3
		s-16-2.1-20.6-6.3c-4.5-4.2-6.8-10.9-6.8-19.8v-48.5H139V472.6L139,472.6z M187.5,497l16.1-73.3h27.6l16.1,73.3h-14.5l-2.9-13.3
		h-25.1l-2.9,13.3H187.5L187.5,497z M214.9,436l-7.3,34.8h19.6L220,436H214.9z M271.5,472.5V497H257v-73.3h27.8
		c16.9,0,25.3,8.1,25.3,24.2c0,9.6-3.5,16.6-10.6,21.1l10.2,28h-15.9l-8.3-24.6L271.5,472.5L271.5,472.5z M285,459.7
		c3.4,0,6-1.1,7.7-3.2c1.7-2.2,2.5-5,2.5-8.5s-0.9-6.3-2.7-8.4c-1.8-2.1-4.3-3.1-7.7-3.1h-13.3v23.3
		C271.5,459.7,285,459.7,285,459.7z M346.5,497h-24.1v-73.3h24.1c6.2,0,11.3,0.7,15.3,2c4,1.3,7.1,3.5,9.3,6.6
		c2.3,3,3.8,6.6,4.6,10.8c0.8,4.1,1.3,9.5,1.3,16.1c0,6.6-0.4,12.1-1.2,16.5c-0.8,4.3-2.3,8.2-4.4,11.6c-2.1,3.4-5.2,5.9-9.3,7.4
		C358.1,496.3,352.9,497,346.5,497L346.5,497z M361.8,467.9c0.1-2.3,0.2-5.5,0.2-9.5c0-4.1-0.1-7.4-0.4-9.8c-0.2-2.3-0.9-4.6-2-6.7
		c-1-1.9-2.7-3.4-4.8-4.1c-2-0.8-4.8-1.2-8.3-1.2h-9.6v47.5h9.6c5.3,0,9.1-1.4,11.5-4.1C360.1,477.8,361.3,473.7,361.8,467.9z
		 M382.6,497l16.1-73.3h27.6l16.1,73.3h-14.6l-2.8-13.3H400l-2.8,13.3H382.6L382.6,497z M410,436l-7.3,34.8h19.6l-7.3-34.8H410z"/>
</g>
</svg>
