<?xml version="1.0" encoding="utf-8"?>
<!-- Generator: Adobe Illustrator 25.4.1, SVG Export Plug-In . SVG Version: 6.00 Build 0)  -->
<svg version="1.1" id="Layer_1" xmlns="http://www.w3.org/2000/svg" xmlns:xlink="http://www.w3.org/1999/xlink" x="0px" y="0px"
	 viewBox="0 0 500 500" style="enable-background:new 0 0 500 500;" xml:space="preserve">
<style type="text/css">
	.st0{fill:#FFFFFF;}
</style>
<g>
	<path class="st0" d="M362.7,183.3c44.8,0,89.2,0,133.8,0c0,44.2,0,88.3,0,132.6c-1,0-1.8,0.1-2.7,0.1c-12.7,0-25.4,0-38.1,0
		c-3.7,0-3.9-0.2-3.9-3.9c0-26.7,0-53.5,0-80.2c0-1.2,0-2.4,0-3.8c-14.8,0-29.3,0-44.2,0c0,29.1,0,58.1,0,87.3
		c-15.1,0-29.9,0-44.8,0C362.7,271.4,362.7,227.5,362.7,183.3z"/>
	<path class="st0" d="M92.9,226.9c0-14.5,0-28.7,0-43.1c14.8,0,29.4,0,44.2,0c0,43.9,0,87.8,0,131.8c-14.4,0-28.9,0-43.7,0
		c0-1.1,0-2.2,0-3.2c0-12.1,0-24.2,0-36.3c0-2.7-1-4.2-3.8-4.2c-13.1,0-26.2,0-39.3,0c-0.5,0-0.9,0.2-1.7,0.3c0,14.3,0,28.6,0,43.1
		c-15.1,0-30,0-45,0c0-43.7,0-87.4,0-131.3c14.7,0,29.3,0,44.3,0c0,14.3,0,28.6,0,43C63,226.9,77.8,226.9,92.9,226.9z"/>
	<path class="st0" d="M183.2,272.2c44.6,0,88.9,0,133.5,0c0,14.2,0,28.3,0,43c-44.4,2-88.9,1.6-133.5,0.7
		C183.2,301.2,183.2,286.8,183.2,272.2z"/>
	<path class="st0" d="M317,183.8c0,14.5,0,28.8,0,43.2c-44.7,0-89.3,0-134.1,0c0-14.4,0-28.7,0-43.2
		C227.6,183.8,272.1,183.8,317,183.8z"/>
</g>
</svg>
