<?xml version="1.0" encoding="UTF-8" standalone="no"?><!-- Generator: Gravit.io --><svg xmlns="http://www.w3.org/2000/svg" xmlns:xlink="http://www.w3.org/1999/xlink" style="isolation:isolate" viewBox="0 0 560 128" width="560pt" height="128pt"><defs><clipPath id="_clipPath_X84HxVGiaeB0MG9TwbuK8ORxq5demDb7"><rect width="560" height="128"/></clipPath></defs><g clip-path="url(#_clipPath_X84HxVGiaeB0MG9TwbuK8ORxq5demDb7)"><rect width="560" height="128" style="fill:rgb(204,204,204)" fill-opacity="0"/><path d=" M 345.962 15.84 L 345.962 2.768 L 444.174 2.768 L 444.174 15.84 L 402.55 15.84 L 402.55 125.232 L 387.586 125.232 L 387.586 15.84 L 345.962 15.84 L 345.962 15.84 Z  M 542.902 110.268 L 542.902 110.268 L 542.902 110.268 Q 526.734 127.984 500.246 127.984 L 500.246 127.984 L 500.246 127.984 Q 473.758 127.984 457.762 110.268 L 457.762 110.268 L 457.762 110.268 Q 441.594 92.896 441.594 64 L 441.594 64 L 441.594 64 Q 441.594 35.276 457.762 17.56 L 457.762 17.56 L 457.762 17.56 Q 473.758 0.016 500.246 0.016 L 500.246 0.016 L 500.246 0.016 Q 526.734 0.016 542.902 17.56 L 542.902 17.56 L 542.902 17.56 Q 558.898 35.448 558.898 64 L 558.898 64 L 558.898 64 Q 558.898 92.724 542.902 110.268 Z  M 468.598 100.98 L 468.598 100.98 L 468.598 100.98 Q 480.466 114.74 500.246 114.74 L 500.246 114.74 L 500.246 114.74 Q 520.026 114.74 531.894 100.98 L 531.894 100.98 L 531.894 100.98 Q 543.762 87.392 543.762 64 L 543.762 64 L 543.762 64 Q 543.762 40.608 531.894 27.02 L 531.894 27.02 L 531.894 27.02 Q 520.026 13.26 500.246 13.26 L 500.246 13.26 L 500.246 13.26 Q 480.466 13.26 468.598 27.02 L 468.598 27.02 L 468.598 27.02 Q 456.73 40.608 456.73 64 L 456.73 64 L 456.73 64 Q 456.73 87.392 468.598 100.98 Z  M 24.322 51.96 L 81.254 51.96 L 81.254 2.768 L 104.474 2.768 L 104.474 125.232 L 81.254 125.232 L 81.254 72.944 L 24.322 72.944 L 24.322 125.232 L 1.102 125.232 L 1.102 2.768 L 24.322 2.768 L 24.322 51.96 L 24.322 51.96 Z  M 124.426 2.768 L 214.726 2.768 L 214.726 23.58 L 147.646 23.58 L 147.646 52.476 L 208.362 52.476 L 208.362 72.428 L 147.646 72.428 L 147.646 104.42 L 214.382 104.42 L 214.382 125.232 L 124.426 125.232 L 124.426 2.768 L 124.426 2.768 Z  M 310.014 34.76 L 310.014 34.76 L 310.014 2.768 L 332.374 2.768 L 332.374 125.232 L 306.574 125.232 L 272.518 70.708 L 272.518 70.708 Q 258.586 48.864 250.674 33.9 L 250.674 33.9 L 250.674 33.9 Q 251.362 53.164 251.362 93.24 L 251.362 93.24 L 251.362 125.232 L 229.002 125.232 L 229.002 2.768 L 254.802 2.768 L 289.03 57.292 L 289.03 57.292 Q 304.338 82.06 310.702 94.1 L 310.702 94.1 L 310.702 94.1 Q 310.014 68.472 310.014 34.76 Z " fill-rule="evenodd" fill="rgb(23,23,23)"/></g></svg>
