<?xml version="1.0" encoding="utf-8"?>
<!-- Generator: Adobe Illustrator 25.4.1, SVG Export Plug-In . SVG Version: 6.00 Build 0)  -->
<svg version="1.1"
	 id="svg2" sodipodi:docname="homebase-logo.ai" xmlns:cc="http://creativecommons.org/ns#" xmlns:dc="http://purl.org/dc/elements/1.1/" xmlns:inkscape="http://www.inkscape.org/namespaces/inkscape" xmlns:rdf="http://www.w3.org/1999/02/22-rdf-syntax-ns#" xmlns:sodipodi="http://sodipodi.sourceforge.net/DTD/sodipodi-0.dtd" xmlns:svg="http://www.w3.org/2000/svg"
	 xmlns="http://www.w3.org/2000/svg" xmlns:xlink="http://www.w3.org/1999/xlink" x="0px" y="0px" viewBox="0 0 500 500"
	 style="enable-background:new 0 0 500 500;" xml:space="preserve">
<style type="text/css">
	.st0{clip-path:url(#SVGID_00000142870469750806510070000013588503818652476561_);}
	.st1{fill:#81FEB7;}
</style>
<sodipodi:namedview  bordercolor="#666666" borderopacity="1" gridtolerance="10" guidetolerance="10" id="namedview4" inkscape:pageopacity="0" inkscape:pageshadow="2" inkscape:window-height="480" inkscape:window-width="640" objecttolerance="10" pagecolor="#ffffff">
	</sodipodi:namedview>
<g id="g10" transform="matrix(1.3333333,0,0,-1.3333333,0,1055.9973)" inkscape:groupmode="layer" inkscape:label="homebase-logo">
	<g id="g12">
		<g>
			<defs>
				<rect id="SVGID_1_" x="-62.3" y="392.2" width="499.5" height="424.6"/>
			</defs>
			<clipPath id="SVGID_00000076582645869382412840000004407534277350522278_">
				<use xlink:href="#SVGID_1_"  style="overflow:visible;"/>
			</clipPath>
			<g id="g14" style="clip-path:url(#SVGID_00000076582645869382412840000004407534277350522278_);">
				<g id="g20" transform="translate(195.3105,694.3828)">
					<path id="path22" class="st1" d="M-116.6,30.1L-116.6,30.1L-116.6,30.1z M-131.6,17.2L-131.6,17.2L-131.6,17.2z M-129.8,15.6
						l0-7.6c0-0.6-0.1-1.2-0.3-1.7c-0.7-1.5-2.1-2.4-3.6-2.4h-6c-0.8,0-1.5-0.7-1.5-1.5v-118.1h-8V5.6c0,3.5,2.8,6.3,6.3,6.3h3.6
						c0.8,0,1.5,0.7,1.5,1.5l0,5.5c0,3.5,2.7,6.2,6.1,6.2l10.3,0l0,5c0,3.5,2.9,6.2,6.5,6.2c3.5,0,6.3-2.8,6.3-6.3l0-5l10.2,0
						c3.4,0,6.1-2.7,6.1-6.1v-5.5c0-0.8,0.7-1.5,1.5-1.5h3.6c3.5,0,6.3-2.8,6.3-6.3v-121.2h-8V2.4c0,0.8-0.7,1.5-1.5,1.5h-6
						c-2.2,0-4,1.8-4,4v7.7c0,0.8-0.7,1.5-1.5,1.5l-26.5,0C-129.1,17.2-129.8,16.5-129.8,15.6"/>
				</g>
				<g id="g24" transform="translate(501.7802,331.9311)">
					<path id="path26" class="st1" d="M-299.8,246.8h-8v54.4c0,0.8-0.4,1.6-1.1,2.1l-33.2,25.3c-0.6,0.4-1.4,0.4-1.9,0l-29.9-25.2
						c-0.6-0.5-1-1.3-1-2.1v-54.4h-8v56.3c0,2.1,1,4,2.6,5.3l33,27.8c0.1,0.1,0.1,0.1,0.2,0.2c2.4,1.8,5.7,1.7,8.1-0.1l36.6-27.8
						c1.7-1.3,2.6-3.2,2.6-5.3V246.8z"/>
				</g>
				<g id="g28" transform="translate(642.5322,331.9311)">
					<path id="path30" class="st1" d="M-384,246.8h-8v93.8c0,0.6-0.5,1.2-1.2,1.2h-3.7c-2,0-3.6,1.6-3.6,3.6v6.2
						c0,0.7-0.6,1.2-1.2,1.2h-16.9c-0.7,0-1.2-0.6-1.2-1.2v-6.2c0-2-1.6-3.6-3.6-3.6h-3.6c-0.6,0-1.2-0.5-1.2-1.2v-93.8h-8v97.5
						c0,3.1,2.5,5.5,5.5,5.5h2c0.5,0,0.9,0.4,0.9,0.9v4.8c0,3,2.4,5.4,5.4,5.4h24.5c3,0,5.4-2.4,5.4-5.4v-4.8c0-0.5,0.4-0.9,0.9-0.9
						h2.1c3,0,5.5-2.5,5.5-5.5V246.8z"/>
				</g>
				<g id="g32" transform="translate(661.6797,760.4507)">
					<path id="path34" class="st1" d="M-395.4-9.4L-395.4-9.4L-395.4-9.4z M-332.8-181.7h-8v129c0,1.3-0.6,2.6-1.7,3.4l-46.3,35.2
						c-0.8,0.6-2,0-2-1l0-67.6c0-0.2,0-0.4,0-0.6v-98.4h-8v99c0,0.2,0,0.4,0,0.6v72.6l0,2c-0.1,3.1,1.5,4.5,2.5,5
						c1.5,0.9,3.4,0.8,4.9-0.1c0.8-0.5,2.7-1.6,2.7-1.6c0.1-0.1,0.2-0.1,0.3-0.2l53-40.3c0,0,0.1-0.1,0.1-0.1c1.5-1.2,2.3-3,2.3-5
						V-181.7z"/>
				</g>
				<g id="g36" transform="translate(608.0713,12.7924)">
					<path id="path38" class="st1" d="M-363.4,437.6h-114.3c-1.3,0-2.4,1.1-2.4,2.4v15.8c0,1.3,1.1,2.4,2.4,2.4h114.3
						c1.3,0,2.4-1.1,2.4-2.4v-15.8C-361,438.7-362.1,437.6-363.4,437.6"/>
				</g>
				<g id="g40" transform="translate(747.9043,169.9516)">
					<path id="path42" class="st1" d="M-447,343.7l-16.2-27.9c-1.5-1.8-3.5-2.7-5.4-2.7h-184.5c-2,0-4,1-5.6,2.9l-15.2,27.8
						c-0.7,0.9-0.3,2.5,0.6,2.5h225.5C-446.7,346.2-446.3,344.5-447,343.7"/>
				</g>
				<g id="g44" transform="translate(894.4658,205.8471)">
					<path id="path46" class="st1" d="M-534.6,322.2h-344.7c-2.2,0-4,2-4,4.5l-7.3,32.7c0,2.5,1.8,4.5,4,4.5h359.3c2.2,0,4-2,4-4.5
						l-7.3-32.7C-530.7,324.2-532.4,322.2-534.6,322.2"/>
				</g>
			</g>
		</g>
	</g>
</g>
</svg>
