<?xml version="1.0" encoding="utf-8"?>
<!-- Generator: Adobe Illustrator 25.4.1, SVG Export Plug-In . SVG Version: 6.00 Build 0)  -->
<svg version="1.1" id="Layer_1" xmlns="http://www.w3.org/2000/svg" xmlns:xlink="http://www.w3.org/1999/xlink" x="0px" y="0px"
	 viewBox="0 0 500 500" style="enable-background:new 0 0 500 500;" xml:space="preserve">
<style type="text/css">
	.st0{fill-rule:evenodd;clip-rule:evenodd;fill:#FFFFFF;}
</style>
<path class="st0" d="M2.8,207.1v213.7c0,9.4,7.9,17.1,17.7,17.1h141.2c9.8,0,17.7-7.6,17.7-17.1V379c0-37.7,31.6-68.3,70.6-68.3
	s70.6,30.6,70.6,68.3v41.8c0,9.4,7.9,17.1,17.7,17.1h141.3c9.8,0,17.7-7.6,17.7-17.1V207.4c0-16.8-5-33.2-16.6-45.7
	C420.9,98,337.4,62,250,62.2c-87.7-1.1-171.6,35.2-231,99.7C7.7,174.3,2.8,190.5,2.8,207.1z"/>
</svg>
