<?xml version="1.0" encoding="utf-8"?>
<!-- Generator: Adobe Illustrator 25.4.1, SVG Export Plug-In . SVG Version: 6.00 Build 0)  -->
<svg version="1.1" id="Layer_1" xmlns="http://www.w3.org/2000/svg" xmlns:xlink="http://www.w3.org/1999/xlink" x="0px" y="0px"
	 viewBox="0 0 500 500" style="enable-background:new 0 0 500 500;" xml:space="preserve">
<style type="text/css">
	.st0{fill-rule:evenodd;clip-rule:evenodd;fill:#486581;}
</style>
<g id="Page-1">
	<g id="Group-9" transform="translate(0.500000, -47.250000)">
		<g id="Group-3-Copy" transform="translate(0.000000, 48.000000)">
			<path id="Fill-19" class="st0" d="M297.5,155.5c-3.8,0-6.8-3.1-6.8-6.8c0-3.8,3.1-6.8,6.8-6.8c3.8,0,6.8,3.1,6.8,6.8
				C304.4,152.4,301.3,155.5,297.5,155.5z"/>
			<path id="Fill-20" class="st0" d="M436.5,155.4c35.6,6.6,56.5,16.5,57.7,17.7c1.2,1.2-5.2,3.3-7.6,3.3c0,0-48.6-18.6-108.1-13.7
				l-44.7-5.4c16.3-4.4,19.8-7.5,25.1-13.6C358.8,143.7,400.9,148.8,436.5,155.4z"/>
			<path id="Fill-21" class="st0" d="M153.5,188.7c0-28.4,7.2-36.2-4.7-74.5C93.3,63.4,24.5,0.3,23.1,1.8
				c-2.4,2.4,6.5,26.8,9.8,32.8c3.3,6,106.5,97.5,104.2,99.8c-2.3,2.3-97.5-85.2-97.5-85.2s-34.9-9-34.9-3.5s133,102.1,131.3,103.8
				C134.2,151.2,33.3,81,33.3,81S6.2,82.3,6.2,86.2s130.8,75.7,129,77.5c-1.8,1.8-94.4-46.3-94.4-46.3s-25.7-1-25.7,4.2
				c0,5.2,121.4,54,119.4,56c-2,2-75.6-28-75.6-28s-24.2-0.4-24.2,5.2s98.8,34.5,98.8,36.5s-66.8-15.7-66.8-15.7
				s-27.8,5.5-23.1,10.3c5,5,94.8,14.3,94.8,16.8c0,2.5-53.3-4.2-53.3-4.2s-18.3,9.2-18.3,13.2c0,4,74.5,6.1,72.5,8.1
				c-1.9,1.9-41.1,2.1-41.1,2.1s-16.8,10.8-13.6,14c3.2,3.2,55.3-7.2,54-5.9c-1.3,1.3-38,11.4-38,13.7c0,2.3,16.1,5.5,20.4,5.5
				c4.3,0,24.9-11.4,24.9-10.1c0,1.3-26.2,19-26.2,22.4c0,3.5,12.7,1.6,14,1.3c2.2-0.7,12.5-8.7,12.5-7.3c0,1.4-11.6,12.3-9.8,14.1
				c1.8,1.8,7.9-1,7.9-1s10.5-8.6,13.1-13.2C161.4,248.4,153.5,218.2,153.5,188.7z"/>
			<path id="Fill-22" class="st0" d="M123.7,381.6c8.9,72,61.2,115.1,62.9,115.1c1.6,0,0.2-17.1,0.2-17.1s-18.8-18.8-26.6-30
				c-7.8-11.2-17-36-16.1-36.9c0.9-0.9,6.5,12.7,15.3,27.7c8.8,15.1,27.3,34.6,29.1,34.6c1.8,0-2.1-19.8-2.1-19.8
				s-25.8-24.8-32.9-38c-7.1-13.2-10.1-32.5-9.2-32.5c0.9,0,2.5,13.7,12,30.1c9.5,16.4,34.1,38.5,34.6,37.9
				c0.6-0.6,1.5-13.8,1.5-13.8s-26.1-20.1-34.4-34.8c-8.4-14.7-10.3-37.4-8.9-37.4c1.3,0,2,13.5,9.7,31.2
				c7.7,17.7,37.9,38.2,38.4,37.7c0.5-0.5,1-14.4,1-15.8c0-1.4-8.1-4.4-14.9-9.5c-6.8-5.1-14.7-14.9-13.6-14.9
				c1.1,0,6.8,6.8,13.8,11.4c7,4.6,19,11,21.9,11c2.9,0,20.1-6.7,18.4-8.3c-1.7-1.7-27.3-2.9-48.5-24c-20.9-20.9-22-59.4-20.6-59.4
				s2.2,21.4,11.8,39.6c9.6,18.1,23.6,27.2,23.6,27.2s1-14.4,10.2-25.9c10-12.5,43.9-27.7,66.6-61.1c22.6-33.4,31.3-83.5,43.6-105.2
				c11.2-19.6,26.5-32.6,65.3-35.9l-40.4-6.6v-1.6c12.4-4.7,16-8.9,19.5-12.6c-6.4-0.8-16.5-2.3-21.4-4.6
				c-7.5-3.5-14.3-13.5-37.4-14.8c-48-2.7-73.2,56.8-73.2,56.8c-1.8-0.6-30.2-26.6-67-60.3c8.6,28.9,2.2,43.8,2.2,72.2
				c0,29.5,9,58.1,4,66.5C157.1,268.4,113,295.4,123.7,381.6z M297.5,158.5c-12.2,0-13.4-8.9-13.4-9.9c0-1,1.2-9.9,13.4-9.9
				c12.2,0,13,8.9,13,9.9C310.6,149.6,309.8,158.5,297.5,158.5z"/>
		</g>
	</g>
</g>
</svg>
