<svg width="500" height="500" viewBox="0 0 500 500" fill="none" xmlns="http://www.w3.org/2000/svg">
<g clip-path="url(#clip0_3734_24800)">
<circle cx="250" cy="250" r="250" fill="url(#paint0_linear_3734_24800)"/>
<path fill-rule="evenodd" clip-rule="evenodd" d="M191.186 167.188H266.311C284.265 167.188 300.093 170.658 313.795 177.596C327.655 184.377 338.365 193.995 345.924 206.453C353.641 218.91 357.5 233.418 357.5 249.975C357.5 266.532 353.641 281.039 345.924 293.497C338.365 305.954 327.655 315.652 313.795 322.59C300.093 329.371 284.265 332.761 266.311 332.761H191.186V299.647H144.447V261.802H191.186V238.149H144.447V200.304H191.186V167.188ZM264.421 301.302C280.958 301.302 294.108 296.729 303.873 287.584C313.795 278.28 318.756 265.744 318.756 249.975C318.756 234.206 313.795 221.749 303.873 212.603C294.108 203.299 280.958 198.647 264.421 198.647H229.457V301.302H264.421Z" fill="white"/>
</g>
<defs>
<linearGradient id="paint0_linear_3734_24800" x1="0" y1="0" x2="575.476" y2="111.922" gradientUnits="userSpaceOnUse">
<stop stop-color="#3B4E80"/>
<stop offset="1" stop-color="#18264A"/>
</linearGradient>
<clipPath id="clip0_3734_24800">
<rect width="500" height="500" fill="white"/>
</clipPath>
</defs>
</svg>
