<?xml version="1.0" encoding="utf-8"?>
<!-- Generator: Adobe Illustrator 26.0.2, SVG Export Plug-In . SVG Version: 6.00 Build 0)  -->
<svg version="1.1" id="Calque_1" xmlns="http://www.w3.org/2000/svg" xmlns:xlink="http://www.w3.org/1999/xlink" x="0px" y="0px"
	 viewBox="0 0 150.1 115.3" style="enable-background:new 0 0 150.1 115.3;" xml:space="preserve">
<style type="text/css">
	.st0{fill:#0E74FF;}
	.st1{fill:#EB3448;}
</style>
<g>
	<g>
		<g>
			<path class="st0" d="M104.8,40.1c0-3.9-0.8-7.7-2.2-11.3c0,0,0,0,0,0c-3-7.3-9-13.3-16.4-16.2c-3.6-1.4-7.3-2.2-11.1-2.2
				c-3.2,0-6.4,0.5-9.4,1.5c-12.1,4.1-20.3,15.4-20.3,28.2c0,16.4,13.3,29.7,29.7,29.7c12.9,0,24.2-8.2,28.3-20.5c0,0,0,0,0,0
				C104.3,46.3,104.8,43.2,104.8,40.1z M87.1,15.9c5.2,2.6,9.4,6.8,12,11.9h-12V15.9z M86.3,30.6h14.1c1.1,3,1.7,6.2,1.7,9.4
				c0,2.5-0.4,5-1,7.4H69.4l8.4-8.4L86.3,30.6z M84.3,14.7v13.9L67.4,45.5V14.2C73,12.6,78.9,12.8,84.3,14.7z M75.1,67
				c-14.9,0-27-12.1-27-27c0-10.9,6.6-20.7,16.6-24.9v33.7c0,0.2,0,0.4,0.1,0.5c0,0,0,0,0,0c0,0,0,0,0,0c0.1,0.3,0.4,0.6,0.7,0.7
				c0,0,0,0,0,0c0,0,0,0,0,0c0.2,0.1,0.3,0.1,0.5,0.1h34C95.9,60.4,86.1,67,75.1,67z"/>
		</g>
	</g>
	<g>
		<polygon class="st0" points="16,73.6 12.2,73.6 12.2,90.1 24.3,90.1 24.3,87 16,87 		"/>
		<rect x="26.4" y="73.6" class="st0" width="3.8" height="16.4"/>
		<path class="st0" d="M60.2,73.4c-5.2,0-9,3.6-9,8.5s3.8,8.5,9,8.5c5.2,0,9-3.6,9-8.5C69.2,76.9,65.3,73.4,60.2,73.4z M60.2,87.1
			c-2.9,0-5.1-2.1-5.1-5.3s2.2-5.3,5.1-5.3c2.9,0,5.1,2.1,5.1,5.3S63.1,87.1,60.2,87.1z"/>
		<polygon class="st0" points="75.8,73.6 72,73.6 72,90.1 84.1,90.1 84.1,87 75.8,87 		"/>
		<path class="st0" d="M115.7,83.6l-8.2-10h-3.1v8.8c-1.1,0-3.1,0-5.1,0l-3.9-8.8h-3.8l-7.3,16.4h3.9l1.5-3.5h0l1.3-3.1l2.5-6.1
			l2.1,5.1c-1.2,0-2.1,0-2.1,0l-1.1,3h4.5l0.5,1.1l1.5,3.5h4l-2.1-4.6h3.8v4.6h3.8v-10l8.2,10h3.1V73.6h-3.8V83.6z"/>
		<path class="st0" d="M42.8,76.6h5.7H50c0.7-1.3,1.7-2.4,2.8-3.3H42.2c0,0-0.1,0-0.1,0c0,0-0.1,0-0.1,0h-0.1v0
			c-5.1,0.1-8.8,3.6-8.8,8.5c0,5,3.8,8.5,9,8.5c2.3,0,4.8-0.7,6.6-2.1v-6.7h-3.5v4.8c-1,0.5-1.9,0.7-3,0.7c-3.1,0-5.3-2.2-5.3-5.3
			c0-3,2-5,4.9-5.2v0H42.8z"/>
		<path class="st0" d="M134.4,81.6v4.8c-1,0.5-1.9,0.7-3,0.7c-3.1,0-5.3-2.2-5.3-5.3c0-3,2-5,4.9-5.2v0h1h2.6
			c0.7-1.3,1.7-2.4,2.8-3.3h-6c0,0-0.1,0-0.1,0s-0.1,0-0.1,0h-0.1v0c-5.1,0.1-8.8,3.6-8.8,8.5c0,5,3.8,8.5,9,8.5
			c2.3,0,4.8-0.7,6.6-2.1v-6.7H134.4z"/>
	</g>
	<g>
		<g>
			<polygon class="st1" points="39.8,95.5 37.7,99.1 35.4,95.5 34.3,95.5 34.3,101.4 35.6,101.4 35.6,97.9 37.3,100.8 37.9,100.8 
				39.7,97.8 39.7,101.4 41,101.4 41,95.5 			"/>
		</g>
		<g>
			<path class="st1" d="M54,97.6c0-1.3-1-2.1-2.6-2.1h-2.6v3.2H47l-1.4-3.2h-1.4l-2.6,5.9H43l0.5-1.3l0.4-1l0.9-2.3l0.8,1.8h-0.8
				l-0.4,1.1h1.6l0.2,0.4l0.5,1.3h1.4l-0.7-1.7h1.4v1.7h1.4v-1.6h1.2h0.1l1.1,1.6h1.5l-1.3-1.9C53.5,99.2,54,98.5,54,97.6z
				 M51.3,98.6h-1.1v-2.1h1.1c0.8,0,1.3,0.4,1.3,1C52.6,98.3,52.1,98.6,51.3,98.6z"/>
		</g>
		<g>
			<rect x="55" y="95.5" class="st1" width="1.4" height="5.9"/>
		</g>
		<g>
			<path class="st1" d="M60.7,96.5c0.6,0,1.1,0.2,1.5,0.7l0.9-0.8c-0.6-0.7-1.4-1-2.5-1c-1.9,0-3.2,1.3-3.2,3.1
				c0,1.8,1.4,3.1,3.2,3.1c0.8,0,1.7-0.3,2.4-0.8v-2.4h-1.2v1.7c-0.3,0.2-0.7,0.3-1.1,0.3c-1.1,0-1.9-0.8-1.9-1.9
				C58.8,97.3,59.6,96.5,60.7,96.5z"/>
		</g>
		<g>
			<path class="st1" d="M67.2,95.4c-1.9,0-3.2,1.3-3.2,3.1c0,1.8,1.4,3.1,3.2,3.1c1.9,0,3.2-1.3,3.2-3.1
				C70.4,96.7,69,95.4,67.2,95.4z M67.2,100.3c-1.1,0-1.8-0.8-1.8-1.9c0-1.1,0.8-1.9,1.8-1.9c1.1,0,1.8,0.8,1.8,1.9
				C69,99.6,68.2,100.3,67.2,100.3z"/>
		</g>
		<g>
			<polygon class="st1" points="72.8,95.5 71.4,95.5 71.4,101.4 75.8,101.4 75.8,100.3 72.8,100.3 			"/>
		</g>
		<g>
			<path class="st1" d="M79.2,95.5h-2.7v5.9h2.7c1.9,0,3.3-1.2,3.3-3C82.5,96.6,81.1,95.5,79.2,95.5z M79.1,100.3h-1.2v-3.7h1.2
				c1.2,0,1.9,0.7,1.9,1.8C81.1,99.6,80.3,100.3,79.1,100.3z"/>
		</g>
		<g>
			<g>
				<path class="st0" d="M29.3,100.1h-2.7l-0.5,1.3h-1.4l2.6-5.9h1.3l2.6,5.9h-1.4L29.3,100.1z M28.9,99.1L28,96.8L27,99.1H28.9z"/>
			</g>
		</g>
		<g>
			<g>
				<path class="st0" d="M90.7,97.6c0,1.3-1,2.1-2.5,2.1H87v1.6h-1.4v-5.9h2.5C89.8,95.5,90.7,96.3,90.7,97.6z M89.4,97.6
					c0-0.6-0.4-1-1.2-1H87v2h1.1C88.9,98.6,89.4,98.2,89.4,97.6z"/>
			</g>
			<g>
				<path class="st0" d="M95.4,101.3l-1.1-1.6h-0.1h-1.2v1.6h-1.4v-5.9h2.5c1.6,0,2.5,0.8,2.5,2.1c0,0.9-0.4,1.5-1.2,1.8l1.3,1.9
					H95.4z M94.2,96.6h-1.1v2h1.1c0.8,0,1.2-0.4,1.2-1C95.4,97,95,96.6,94.2,96.6z"/>
			</g>
			<g>
				<path class="st0" d="M97.5,98.4c0-1.7,1.4-3,3.2-3c1.8,0,3.2,1.3,3.2,3c0,1.7-1.4,3-3.2,3C98.8,101.4,97.5,100.2,97.5,98.4z
					 M102.5,98.4c0-1.1-0.8-1.9-1.8-1.9c-1,0-1.8,0.8-1.8,1.9s0.8,1.9,1.8,1.9C101.7,100.3,102.5,99.5,102.5,98.4z"/>
			</g>
			<g>
				<path class="st0" d="M103.9,100.6l0.8-0.9c0.3,0.4,0.7,0.6,1.1,0.6c0.5,0,0.8-0.3,0.8-1v-2.8h-2.1v-1.1h3.4v3.8
					c0,1.4-0.7,2.2-2.1,2.2C105.1,101.4,104.4,101.1,103.9,100.6z"/>
			</g>
			<g>
				<path class="st0" d="M113.8,100.3v1.1h-4.5v-5.9h4.4v1.1h-3.1v1.3h2.7v1.1h-2.7v1.4H113.8z"/>
			</g>
			<g>
				<path class="st0" d="M114.5,98.4c0-1.8,1.4-3,3.2-3c1,0,1.9,0.4,2.4,1l-0.9,0.8c-0.4-0.5-0.9-0.7-1.5-0.7
					c-1.1,0-1.9,0.8-1.9,1.9s0.8,1.9,1.9,1.9c0.6,0,1.1-0.2,1.5-0.7l0.9,0.8c-0.6,0.7-1.4,1-2.4,1
					C115.9,101.4,114.5,100.2,114.5,98.4z"/>
			</g>
			<g>
				<path class="st0" d="M122.2,96.6h-1.9v-1.1h5.1v1.1h-1.9v4.7h-1.4V96.6z"/>
			</g>
		</g>
	</g>
</g>
</svg>
