<?xml version="1.0" encoding="utf-8"?>
<!-- Generator: Adobe Illustrator 25.4.1, SVG Export Plug-In . SVG Version: 6.00 Build 0)  -->
<svg version="1.1" id="Layer_1" xmlns="http://www.w3.org/2000/svg" xmlns:xlink="http://www.w3.org/1999/xlink" x="0px" y="0px"
	 viewBox="0 0 500 500" style="enable-background:new 0 0 500 500;" xml:space="preserve">
<style type="text/css">
	.st0{fill:url(#SVGID_1_);}
	.st1{opacity:0.75;}
	.st2{fill:#FFFFFF;}
</style>
<linearGradient id="SVGID_1_" gradientUnits="userSpaceOnUse" x1="-13.7847" y1="-13.0066" x2="560.52" y2="559.6041">
	<stop  offset="0" style="stop-color:#0F61FF"/>
	<stop  offset="0.16" style="stop-color:#1360FC"/>
	<stop  offset="0.3278" style="stop-color:#205CF4"/>
	<stop  offset="0.499" style="stop-color:#3555E6"/>
	<stop  offset="0.6728" style="stop-color:#524BD2"/>
	<stop  offset="0.8466" style="stop-color:#783FB9"/>
	<stop  offset="1" style="stop-color:#9F329F"/>
</linearGradient>
<rect class="st0" width="500" height="500"/>
<g class="st1">
	<g>
		<path class="st2" d="M236.1,292.5v19.2h-81.7V188.3h23.9v104.2H236.1z"/>
		<path class="st2" d="M256.7,188.3h41.5c6.7,0,12.8,0.7,18.4,2c5.5,1.4,10.2,3.4,14.1,6.2c3.9,2.8,6.9,6.3,9,10.5
			c2.1,4.2,3.2,9.2,3.2,15c-0.1,3.7-0.7,7.2-2,10.6c-1.3,3.3-3.2,6.2-5.6,8.7c-1.4,1.4-2.9,2.6-4.6,3.7c-1.7,1.1-3.6,2.1-5.7,2.9
			v0.1c4.1,1.1,7.3,2.6,9.7,4.3c2.4,1.8,4.4,3.8,6.1,6.1c1.7,2.5,3,5.2,3.8,8.1c0.8,2.9,1.2,5.9,1.2,9c0,5.9-1,11.2-3.1,15.7
			s-4.9,8.3-8.7,11.4c-3.8,3.1-8.4,5.3-13.8,6.9s-11.5,2.3-18.3,2.3h-45V188.3z M298.4,240.1c3.6-0.1,6.8-0.5,9.6-1.3
			c2.8-0.8,5-2,6.7-3.7c1.4-1.3,2.5-2.9,3.3-4.7c0.8-1.9,1.1-4,1.1-6.4c0-2.5-0.3-4.7-1-6.5c-0.7-1.9-1.6-3.4-2.9-4.7
			c-1.7-1.8-4-3-6.8-3.8c-2.9-0.8-6.2-1.2-10-1.3h-17.6v32.4H298.4z M280.6,292.5h21.2c3.1,0,5.9-0.4,8.4-1.2
			c2.5-0.8,4.5-1.9,6.1-3.2c1.8-1.5,3.2-3.4,4.1-5.5c0.9-2.1,1.4-4.5,1.4-7.2c0-2.8-0.4-5.3-1.1-7.5c-0.7-2.2-1.8-4.1-3.3-5.6
			c-1.5-1.6-3.5-2.8-5.9-3.6c-2.4-0.8-5.3-1.3-8.6-1.4h-22.2V292.5z"/>
	</g>
</g>
</svg>
