<?xml version="1.0" encoding="utf-8"?>
<!-- Generator: Adobe Illustrator 25.4.1, SVG Export Plug-In . SVG Version: 6.00 Build 0)  -->
<svg version="1.1" id="Layer_1" xmlns="http://www.w3.org/2000/svg" xmlns:xlink="http://www.w3.org/1999/xlink" x="0px" y="0px"
	 viewBox="0 0 500 500" style="enable-background:new 0 0 500 500;" xml:space="preserve">
<style type="text/css">
	.st0{opacity:0.75;fill:#FFFFFF;}
</style>
<g>
	<path class="st0" d="M415.7,178.1c5.1-1.5,9.7-3.1,14.4-4.1c9-2,18-1.8,27,0c12.2,2.4,22,8.5,29.7,18c5.6,7,9.6,14.9,10.7,23.9
		c0.9,7.3,1.4,14.6,1.4,21.9c0.2,22,0.1,44,0.1,66c0,5.3-0.3,5.6-5.4,5.6c-9.2,0-18.5,0-27.7,0c-4.5,0-5.2-0.7-5.2-5.2
		c0-24.4,0.1-48.7-0.1-73.1c-0.1-8.3-2.5-16.2-10.6-20c-8.7-4.1-17.8-3.9-26,1.9c-5.7,4-8,10.3-8.1,16.9
		c-0.2,23.9-0.2,47.7-0.2,71.6c0,8,0,8-8.1,8c-8.5,0-17,0-25.5,0c-4.9,0-5.5-0.6-5.5-5.3c0-55,0-109.9,0-164.9
		c0-4.6,0.4-5.1,5.2-5.1c4.5,0,9.1-0.4,13.4,0.4c12.4,2.3,20.4,12.3,20.5,25C415.8,165.7,415.7,171.9,415.7,178.1z"/>
	<path class="st0" d="M181.5,303.6c-8.6,4.7-19.7,7.8-30.6,7.2c-24.5-1.4-45.7-15.2-51.6-41.8c-1.4-6.4-2.1-13.1-2.2-19.6
		C96.9,226.2,97,203,97,179.8c0-5,0.4-5.5,5.3-5.3c5.2,0.2,10.5,0.2,15.5,1.3c10.4,2.3,17.4,11.5,17.5,22.3
		c0.1,16.2-0.2,32.5,0.1,48.7c0.1,5.5,0.9,11.2,2.6,16.5c2.2,6.7,7.6,10.5,14.7,10.9c4.7,0.3,9.6,0.3,14-0.8
		c9.5-2.4,13.9-11.6,14-21.6c0.3-23.7,0.1-47.4,0.1-71.2c0-6,0.1-6.2,6.1-6c4.7,0.1,9.5,0,14.1,0.9c11.2,2.1,18.6,11.6,18.7,24.3
		c0.3,31.5,0.1,62.9,0.1,94.4c0,3.9-0.4,7.7-0.4,11.6c0,2.5-1.1,3.7-3.6,3.7c-8.4,0-16.8,0.4-25.1-0.2
		C187.6,308.9,185.4,308.1,181.5,303.6z"/>
	<path class="st0" d="M38.9,195.4c0,11.9-0.3,23.7,0.1,35.6c0.4,10.7,1.9,21.3,6.2,31.3c4.4,10.4,8.9,13.2,20.2,12.6
		c8.4-0.5,15.9-3.3,22-9c2.3-2.1,3.2-1.8,4,1.1c1.5,5.3,2.6,10.7,4.8,15.7c2.2,5,5.3,9.6,8.4,14.1c1.5,2.2,1.6,3.3-0.7,4.8
		c-15.3,9.8-32.1,13.8-50,11.4c-25.5-3.4-39.2-20.4-46.9-43.3c-4.3-13-6.2-26.4-6.1-40.1c0.1-29.1,0-58.2,0-87.3
		c0-5.3,0-5.5,5.4-5.2c5.9,0.3,12.1,0.1,17.7,1.7c8.6,2.4,14.7,11.5,14.8,20.5C39,171.2,38.9,183.3,38.9,195.4
		C38.9,195.4,38.9,195.4,38.9,195.4z"/>
	<path class="st0" d="M364.9,196.6c0-9-6.4-18.5-15.2-20.5c-6.7-1.5-14-1.8-23.5-1.5c0,0,0,0,0,0v6.2c0,0.2,0,0.4,0,0.5
		c-1.9-0.9-3.2-1.7-4.6-2.2c-5.9-2.1-11.6-5.1-17.6-5.9c-16.6-2.2-32.4,0.7-46.3,10.7c-27.4,19.7-31.7,44.2-27.4,73.3
		c2.6,18.2,12.8,32.3,27.9,42.6c16.5,11.2,34.4,14.7,53.7,8.5c4.8-1.5,9.3-3.8,14.4-5.9c0.6,8.9-2,16.3-8.9,21.6
		c-13.1,10-31.3,7.5-41.9-5.3c-0.9-1.1-2.5-2.4-3.9-2.4c-11-0.2-22-0.1-33-0.1c-2.6,0-3.6,1.6-3,4c0.9,3.5,1.6,7.1,3.1,10.3
		c9.6,21.2,27.5,30.6,49.2,34.4c12.2,2.2,24.3,0.9,36.1-2.9c23.4-7.5,40-29.2,40.5-53.1C365.4,271.5,364.9,234,364.9,196.6z
		 M299.2,274.6c-11.1,1.1-20.5-4.3-26.1-14.3c-6.3-11.1-7.4-22.6-2.1-34.4c4-8.9,10.6-14.4,19-16.4c2.5-0.7,5.1-1.1,7.7-1.1
		c16.5,0,29.8,14.8,29.8,33.1C327.6,259.3,315,273.8,299.2,274.6z"/>
</g>
</svg>
