<?xml version="1.0" encoding="utf-8"?>
<!-- Generator: Adobe Illustrator 25.4.1, SVG Export Plug-In . SVG Version: 6.00 Build 0)  -->
<svg version="1.1" id="Layer_1" xmlns="http://www.w3.org/2000/svg" xmlns:xlink="http://www.w3.org/1999/xlink" x="0px" y="0px"
	 viewBox="0 0 500 500" style="enable-background:new 0 0 500 500;" xml:space="preserve">
<style type="text/css">
	.st0{fill:#7996C9;}
	.st1{fill:#88D1C3;}
	.st2{fill:#FF8080;}
	.st3{fill:#FFFFFF;}
	.st4{fill:#4F457C;}
	.st5{opacity:0.15;}
	.st6{opacity:0.15;enable-background:new    ;}
</style>
<g>
	<path class="st0" d="M152.9,196.6c-1.6-3.1-5.1-4.5-8.3-3.2c-3.1,1.2-5,4.7-4.4,8.2l-9.4,5.7l2.3,4.3l9.3-5.7
		c2.5,2.3,6.2,2.3,8.8,0C153.9,203.6,154.6,199.7,152.9,196.6L152.9,196.6z"/>
	<path class="st1" d="M41.5,241.8L21,227c8.7-7.3,25-17.1,38.9-17.8"/>
	<path class="st0" d="M104.8,262c23.3-13.7,36.8-34.4,30.1-46.2c-6.7-11.8-31-10.2-54.4,3.5c-23.3,13.7-36.8,34.4-30.1,46.2
		C57.1,277.3,81.4,275.7,104.8,262z"/>
	<path class="st2" d="M15.8,261.9c-5.6,3.6-11.6,13.8-13.2,20.8c6.2,2,17.1,1.3,22.7-2.3c3-1.9,4.8-5.4,4.8-9.2
		c0-3.8-1.8-7.3-4.8-9.2C22.4,260,18.7,260,15.8,261.9L15.8,261.9z"/>
	<path class="st3" d="M97.3,248.8c23.3-13.7,36.8-34.4,30.1-46.2c-6.7-11.8-31-10.2-54.4,3.5c-23.3,13.7-36.8,34.4-30.1,46.2
		C49.6,264.1,73.9,262.5,97.3,248.8z"/>
	<path class="st1" d="M89.4,245.5c20.8-12.2,33.7-29.3,28.7-38.1c-5-8.8-26-6-46.8,6.2c-20.8,12.2-33.7,29.3-28.7,38.1
		C47.6,260.5,68.5,257.7,89.4,245.5z"/>
	<path class="st3" d="M121.7,227.9l6.4,11.7c0,0,2.9-2.4,3.9-4.6c1-2.2,5.5-10.8,2.2-17c-3.3-6.2-4.7-8.1-5.7-4.6
		C127.7,216.8,121.7,227.9,121.7,227.9z"/>
	<path class="st1" d="M68.3,261.4c-7.2,1.3-10.4,1-15-0.1c-4.6-1.2-4,0.7-6.6,3.9C44.2,268.3,37,293,37,293s9.7,1,20.6-5.5
		c10.9-6.5,36.9-25,36.7-31.1c-0.2-6.1-2.4-1.3-9.4,0.7C77.9,259.2,68.3,261.4,68.3,261.4z"/>
	<path class="st3" d="M24.6,230.2c11.7-6.5,24.9-12.5,32.4-10.8c0,0,3.9-7.2,2.6-7.9c-1.3-0.6-28.4,10.8-33.6,14.8
		C20.8,230.3,24.6,230.2,24.6,230.2z"/>
	<path class="st1" d="M52.7,237.2c-6.4,1.7-12.6,4.1-18.6,7c-4.6,2.5-6.5,3.4-6.2,5.7s5.7,15.6,8.3,17.1c2.7,1.5,6.8-0.7,8.2-4.3
		c1.4-3.6,1.4-5.4,5.9-10.8C54.9,246.4,62.9,236.6,52.7,237.2z"/>
	<path class="st3" d="M30.1,253.9c7.1-4.4,14.8-7.7,22.9-9.7l-2.6,5.2l-18.6,11.1L30.1,253.9z"/>
	<path class="st3" d="M41.8,288.8c7.6-3,29.5-11.8,43.5-30.9c0,0,9.7-6.8,11.1-6.7c1.5,0.1-8.7,17.4-23.1,25.9
		C58.9,285.6,39.5,295,41.8,288.8z"/>
	<path class="st1" d="M59.1,238.2c-7.7-13.7-2.3-29.7,11-37.6c5.5-3.3,10.6-3.8,16.5-3c8.2,1.2,16.2,3.9,20.6,11.9
		C114.9,223.3,66.7,251.9,59.1,238.2z"/>
	<path class="st4" d="M135.8,217.6l-7.6-13.4c-5.2-9-19.3-11.4-36.7-6.3c-12.5-4-26.2,0.7-33.7,11.6c-13.5,1.2-28.7,9.9-37.7,17.2
		c-0.8,0.6-1.2,1.6-1.2,2.7c0,1,0.5,2,1.4,2.6l16.3,11.7c-2.6,1.2-5.1,2.5-7.6,4c-4.9,2.9-1.8,13.4,1.9,19.9c2.8,5,6,8.5,9,10.2
		l-3.9,13c-0.3,1.1-0.1,2.2,0.6,3.1c0.7,0.9,1.7,1.4,2.8,1.4c0.2,0,0.4,0,0.7-0.1c14.7-3.3,28.5-9.6,40.7-18.7
		c8.5-2.1,16.7-5.5,24.2-10C129.6,252.2,143.2,230.6,135.8,217.6z M124.1,206.7c2.7,4.8,1.4,11.8-3.7,19.7
		c-5.5,8.4-14.5,16.5-25.5,22.9c-16.2,9.5-33.6,13.2-43.8,9.7l8.7-12.6c2,0.9,4.2,1.4,6.4,1.3c6.8,0,15.5-3.3,23.5-7.9
		c13.2-7.7,24.2-19.3,19.4-27.8c-2.5-4.4-6.1-8.2-10.4-10.8C110.9,198.6,120.6,200.6,124.1,206.7z M69.6,204.8
		c12.3-7.2,28-2.9,35.1,9.6c1.6,2.8-1,6.9-2.9,9.2c0.8-1.7,0.7-3.7-0.2-5.4c-5.4-9.5-16.5-14.2-26.9-11.3
		c-10.5,2.8-17.8,12.4-17.8,23.5C55.8,220,60.8,210,69.6,204.8z M24.5,229.3c8.3-6.3,19.9-12.6,30.2-14.5c-0.8,1.8-1.4,3.8-1.9,5.7
		c-6.6,6.5-11.2,13.2-13.4,19.5L24.5,229.3z M54.4,239.3l-1,0.1c-3.1,0.3-6.2,0.8-9.2,1.6c1.9-4.6,4.6-8.9,7.9-12.7
		C52.2,232.1,52.9,235.8,54.4,239.3z M35.5,266.3c-0.2-0.4-0.5-0.7-0.7-1c-3.8-6.8-4.2-12.5-3.7-13.4c10.9-6.4,16.9-7,22.7-7.7
		l1.6-0.2l-8.7,12.6c-0.9,1.3-1.6,2.8-2,4.4l-1.2,4.1l-3.3,1.9C38.7,268.1,36.6,267.8,35.5,266.3z M41,290.1l7.9-26.8
		c3.5,1.2,7.2,1.8,11,1.8c9.8,0,21.8-3.3,33.6-9.6C81.2,276.7,53.7,287.2,41,290.1z M89.2,269c2-2.1,3.8-4.3,5.5-6.6l1.9,3.3
		C94.2,266.9,91.7,268,89.2,269z M102.4,262.6c-0.9,0.6-1.9,1.1-2.9,1.6l-2.8-4.9c1.2-2,2.4-4.1,3.3-6.3l4.6,8.1
		C104,261.6,103.2,262.1,102.4,262.6z M107.5,259.3l-5.2-9.1c1.7-1.1,3.3-2.3,4.9-3.5l5.2,9.1C110.9,257,109.3,258.2,107.5,259.3
		L107.5,259.3z M115,253.7l-5.1-9.1c1.6-1.3,3.1-2.7,4.6-4l5.1,9C118.2,250.9,116.7,252.3,115,253.7L115,253.7z M122,247l-5.1-8.9
		c1.5-1.6,2.9-3.2,4.2-4.8l5,8.8C124.9,243.8,123.5,245.4,122,247L122,247z M128.2,239.1l-4.9-8.7c0.3-0.5,0.7-0.9,1-1.4
		c0.9-1.4,1.8-2.9,2.6-4.5l4.6,8.2C130.6,235,129.5,237.1,128.2,239.1L128.2,239.1z M132.7,228.2l-4.3-7.5c0.5-1.3,0.9-2.7,1.2-4.1
		l1.9,3.4C132.9,222.6,133.3,225.4,132.7,228.2L132.7,228.2z"/>
	<g class="st5">
		<path class="st6" d="M100,307.1c18.3,0,33.2-4.2,33.2-9.3s-14.9-9.3-33.2-9.3s-33.2,4.2-33.2,9.3S81.6,307.1,100,307.1z"/>
	</g>
	<path class="st4" d="M229.4,271c0,0.7-0.6,1.2-1.2,1.2h-8.4c-0.7,0-1.2-0.5-1.3-1.2v-32.7l-11.3,19.9c-0.3,0.8-1,1.3-1.9,1.3h-6.5
		c-0.8,0-1.6-0.5-1.9-1.3l-11.7-19.9V271c0,0.7-0.6,1.2-1.2,1.2h-8.4c-0.7,0-1.2-0.5-1.2-1.2v-51.2c0-0.7,0.6-1.2,1.2-1.2h8.9
		c0.9-0.1,1.8,0.4,2.2,1.3l15.1,26.5l15.2-26.5c0.3-0.9,1.2-1.4,2.1-1.3h9c0.7,0,1.2,0.5,1.2,1.2V271z"/>
	<path class="st4" d="M282,268.6c0,0.6-0.5,1.1-1.2,1.2H272c-0.6,0-1.1-0.5-1.2-1.2v-14.1h-21.1v14.1c0,0.6-0.5,1.1-1.2,1.2h-8.8
		c-0.6,0-1.1-0.5-1.2-1.2v-30.4c-0.1-6.6,2.7-13,7.8-17.3c8.3-6.3,19.7-6.3,28,0c5.3,4.3,7.7,10.9,7.7,17.3L282,268.6z M252.9,229.4
		c-2,2.1-3.3,5.1-3.3,9.3v5.9h21.2v-5.9c0-4.2-1.3-7.2-3.2-9.3c-2-1.9-4.7-2.9-7.4-2.8C257.5,226.6,254.9,227.6,252.9,229.4z"/>
	<path class="st4" d="M319.2,270.9c-0.2,0.8-1,1.3-1.8,1.2h-9.4c-0.8,0.1-1.6-0.4-1.9-1.2l-19.4-50.7c-0.4-0.9-0.1-1.6,0.9-1.6h9.5
		c0.9-0.1,1.8,0.4,2,1.3l13.5,38.1h0.2l14-38.1c0.2-0.9,1.1-1.5,2-1.3h9.4c0.9,0,1.3,0.7,0.9,1.6L319.2,270.9z"/>
	<path class="st4" d="M379.8,252l11.8,18.1c0.6,0.9,0.6,2-0.7,2h-10c-1,0.2-1.9-0.3-2.3-1.2l-10.7-17.4h-10.3v17.4
		c0,0.3-0.1,0.6-0.3,0.8c-0.2,0.2-0.5,0.3-0.9,0.3h-9c-0.7,0-1.2-0.5-1.3-1.2v-51.2c0-0.7,0.6-1.2,1.3-1.2h23.3
		c5.3,0,10,0.9,13.7,3.6c4,2.9,6.3,7.9,6.3,13.8c0.1,5.1-2.1,9.9-6.1,13.1C383.2,250.3,381.6,251.3,379.8,252z M357.7,228.1V244
		h11.2c2.9,0,5.3-0.2,7-1.3c2.2-1.4,3.4-3.9,3.3-6.5c0-3.1-1.2-5.2-3.1-6.5c-1.9-1.1-4.1-1.6-6.3-1.5H357.7z"/>
	<path class="st4" d="M433.2,219.7c0.4-0.8,1.2-1.3,2.1-1.2h10.5c1.3,0,1.5,0.9,0.8,2l-20.2,29.3V271c0,0.6-0.6,1.1-1.2,1.1H416
		c-0.7,0-1.2-0.5-1.2-1.2v-21.1l-20.1-29.3c-0.7-1-0.5-2,0.8-2H406c0.9-0.1,1.7,0.4,2,1.2l12.6,18.9L433.2,219.7z"/>
	<path class="st4" d="M467.4,250.1l-4.4,4.4V271c0,0.3-0.1,0.6-0.3,0.8c-0.2,0.2-0.5,0.3-0.8,0.3h-9c-0.7,0-1.2-0.5-1.3-1.2v-51.2
		c0-0.7,0.6-1.2,1.3-1.2h9c0.3,0,0.6,0.1,0.8,0.3c0.2,0.2,0.3,0.5,0.3,0.8v20.4l18.7-20.4c0.6-0.7,1.5-1.2,2.5-1.2h11.5
		c1,0,1.4,0.9,0.6,1.8l-20.8,21.4l21.5,28.3c0.7,0.9,0.8,2-0.6,2h-10.7c-0.9,0.1-1.8-0.4-2.3-1.2L467.4,250.1z"/>
</g>
</svg>
