<svg width="500" height="500" viewBox="0 0 500 500" fill="none" xmlns="http://www.w3.org/2000/svg">
<g clip-path="url(#clip0_1361_2060)">
<path d="M453.75 0H47.5C21.6117 0 0.625 20.9867 0.625 46.875V453.125C0.625 479.013 21.6117 500 47.5 500H453.75C479.638 500 500.625 479.013 500.625 453.125V46.875C500.625 20.9867 479.638 0 453.75 0Z" fill="url(#paint0_linear_1361_2060)"/>
<mask id="mask0_1361_2060" style="mask-type:alpha" maskUnits="userSpaceOnUse" x="75" y="59" width="352" height="403">
<path fill-rule="evenodd" clip-rule="evenodd" d="M177.072 73.5624C204.642 66.0624 233.611 59.4218 250.798 59.4218C267.986 59.4218 296.939 66.0858 324.486 73.5311L324.525 73.5389C349.052 80.294 373.414 87.6399 397.587 95.5702L397.611 95.578C404.225 97.7661 410.084 101.783 414.509 107.164C418.976 112.598 421.814 119.185 422.697 126.164C437.626 238.789 402.931 322.234 360.798 377.484C342.83 401.264 321.378 422.197 297.165 439.578C288.888 445.54 280.11 450.776 270.931 455.226L270.853 455.265C263.798 458.578 256.54 461.125 250.775 461.125C244.978 461.125 237.697 458.586 230.618 455.234C223.048 451.664 214.095 446.445 204.392 439.586L204.345 439.555C180.256 422.252 158.903 401.428 141.001 377.781C140.863 377.592 140.732 377.396 140.611 377.195C98.5403 321.953 63.9856 238.594 78.8919 126.133L78.9232 125.891C79.8285 118.993 82.6623 112.491 87.0987 107.133C91.5352 101.775 97.394 97.7778 104.001 95.6014M177.064 73.5624C148.986 81.1405 120.65 90.1327 104.001 95.5936L177.064 73.5624Z" fill="url(#paint1_linear_1361_2060)"/>
</mask>
<g mask="url(#mask0_1361_2060)">
<path d="M147.229 245.781H157.033V203.25H157.197L184.471 245.813H196.939V190.313H187.119V231.516H186.986L160.205 190.313H147.244V245.781H147.229ZM212.635 230.133C213.986 233.563 216.041 236.671 218.668 239.258C221.295 241.844 224.434 243.851 227.885 245.149C231.635 246.555 235.611 247.274 239.604 247.219C243.662 247.224 247.686 246.463 251.463 244.977C254.932 243.619 258.093 241.578 260.76 238.977C263.407 236.373 265.482 233.247 266.854 229.797C268.338 226.039 269.057 222 268.979 217.961C269.028 213.83 268.285 209.727 266.791 205.875C265.427 202.405 263.351 199.26 260.697 196.641C258.059 194.047 254.89 192.056 251.408 190.805C247.613 189.429 243.592 188.782 239.557 188.899C235.556 188.867 231.584 189.571 227.838 190.977C224.385 192.274 221.275 194.289 218.65 196.891C216.002 199.547 213.932 202.695 212.557 206.188C211.099 210.054 210.407 214.167 210.518 218.297C210.463 222.346 211.201 226.367 212.689 230.133H212.635ZM222.096 209.914C222.979 207.57 224.275 205.438 225.955 203.609C227.643 201.813 229.65 200.352 231.939 199.383C234.393 198.328 237.041 197.805 239.721 197.859C242.398 197.838 245.053 198.356 247.525 199.383C249.791 200.352 251.854 201.789 253.541 203.609C255.213 205.438 256.541 207.594 257.393 209.914C258.307 212.406 258.744 215.008 258.721 217.656C258.744 220.463 258.276 223.253 257.338 225.899C256.479 228.305 255.189 230.516 253.479 232.399C251.802 234.247 249.751 235.717 247.463 236.711C245.006 237.785 242.348 238.323 239.666 238.289C236.999 238.325 234.356 237.787 231.916 236.711C229.649 235.706 227.619 234.237 225.955 232.399C224.25 230.509 222.938 228.3 222.096 225.899C221.165 223.252 220.708 220.462 220.744 217.656C220.721 215 221.189 212.375 222.127 209.891L222.096 209.914ZM292.557 245.781H301.596L314.393 203.531H314.557L327.385 245.781H336.729L352.783 190.313H342.799L331.994 230.297H331.822L319.635 190.313H309.955L297.549 230.297H297.385L287.01 190.313H276.205L292.557 245.781Z" fill="#00C26F"/>
<path fill-rule="evenodd" clip-rule="evenodd" d="M251.423 75.3511C236.72 75.3511 209.806 81.328 181.876 88.9374H181.861C154.165 96.4136 126.126 105.304 109.595 110.734C105.833 111.981 102.498 114.266 99.9769 117.324C97.4563 120.383 95.85 124.092 95.345 128.023C80.9307 236.304 114.298 315.757 154.306 368.078C154.462 368.281 154.603 368.492 154.736 368.703C171.587 390.848 191.643 410.359 214.243 426.594C223.306 433 231.454 437.719 238.033 440.82L238.056 440.828C244.806 444.031 249.361 445.203 251.392 445.203C253.399 445.203 257.899 444.031 264.658 440.867C272.997 436.822 280.972 432.065 288.493 426.648L288.501 426.64C311.401 410.201 331.692 390.403 348.689 367.914C388.634 315.578 421.892 236.195 407.501 128.047C406.979 124.092 405.361 120.363 402.829 117.281C400.317 114.226 396.991 111.946 393.236 110.703C369.315 102.857 345.209 95.5899 320.939 88.9061C292.993 81.3511 266.118 75.3511 251.423 75.3511ZM177.696 73.5624C205.267 66.0624 234.236 59.4218 251.423 59.4218C268.611 59.4218 297.564 66.0855 325.111 73.5311L325.149 73.5386C349.678 80.2943 374.039 87.6399 398.212 95.5699L398.236 95.578C404.85 97.7661 410.709 101.783 415.134 107.164C419.601 112.598 422.439 119.185 423.321 126.164C438.251 238.789 403.556 322.234 361.423 377.484C343.455 401.264 322.003 422.197 297.79 439.578C289.513 445.541 280.735 450.776 271.556 455.226L271.478 455.265C264.423 458.578 257.165 461.125 251.399 461.125C245.603 461.125 238.321 458.585 231.243 455.234C223.673 451.664 214.72 446.445 205.017 439.585L204.97 439.554C180.881 422.252 159.528 401.428 141.626 377.781C141.488 377.592 141.357 377.396 141.236 377.195C99.165 321.953 64.6107 238.594 79.5169 126.132L79.5482 125.891C80.4532 118.993 83.2875 112.491 87.7238 107.133C92.16 101.775 98.0188 97.778 104.626 95.6011M177.689 73.5624C149.611 81.1405 121.274 90.1324 104.626 95.5936L177.689 73.5624Z" fill="url(#paint2_linear_1361_2060)"/>
<path d="M157.662 279.078L164.537 302.797H164.678L172.646 279.078H176.967L184.936 302.797H185.068L191.943 279.078H196.92L187.498 308.281H182.811L174.928 284.312H174.795L166.912 308.281H162.193L152.779 279.078H157.662ZM225.311 292.992C224.24 292.992 222.904 293.047 221.279 293.187C219.717 293.266 218.178 293.516 216.701 293.922C215.248 294.313 214.021 294.914 212.951 295.734C212.444 296.144 212.041 296.667 211.775 297.262C211.509 297.856 211.387 298.506 211.42 299.156C211.42 300.117 211.615 300.937 211.982 301.656C212.412 302.322 212.969 302.896 213.623 303.344C214.316 303.774 215.073 304.09 215.865 304.281C216.701 304.438 217.568 304.523 218.404 304.523C219.943 304.523 221.256 304.281 222.342 303.789C223.49 303.297 224.436 302.609 225.193 301.789C225.951 300.914 226.506 299.922 226.842 298.797C227.232 297.625 227.404 296.422 227.404 295.125V293.016H225.303L225.311 292.992ZM227.482 289.625V288.859C227.482 283.82 224.943 281.297 219.857 281.297C216.365 281.297 213.35 282.453 210.748 284.719L208.209 281.789C210.998 278.977 215.193 277.547 220.811 277.547C222.264 277.547 223.623 277.766 224.943 278.172C226.311 278.586 227.459 279.242 228.436 280.125C229.412 280.945 230.193 282.008 230.779 283.297C231.365 284.586 231.678 286.117 231.678 287.906V300.938C231.678 302.063 231.701 303.242 231.811 304.5C231.951 305.703 232.068 306.719 232.201 307.484H228.131C227.992 306.724 227.888 305.957 227.818 305.187C227.795 304.359 227.764 303.539 227.764 302.742H227.623C226.572 304.528 225.058 305.997 223.24 306.992C221.326 307.879 219.232 308.31 217.123 308.25C215.803 308.25 214.545 308.055 213.295 307.703C212.1 307.388 210.973 306.858 209.967 306.141C209.04 305.401 208.263 304.492 207.678 303.461C207.099 302.297 206.812 301.01 206.842 299.711C206.842 297.32 207.451 295.492 208.686 294.148C209.967 292.773 211.529 291.758 213.373 291.102C215.279 290.445 217.287 290.039 219.412 289.852C221.561 289.68 223.545 289.602 225.334 289.602L227.482 289.625ZM252.576 308.281H248.357V261.109H252.576V308.281ZM273.92 308.281H269.701V261.109H273.92V308.281ZM313.248 290.664C313.248 287.875 312.404 285.625 310.709 283.93C308.998 282.172 306.623 281.297 303.576 281.297C302.221 281.294 300.88 281.573 299.639 282.117C298.357 282.617 297.24 283.297 296.264 284.172C295.339 285.035 294.565 286.046 293.975 287.164C293.42 288.247 293.131 289.447 293.131 290.664H313.248ZM293.021 294.062C293.162 295.516 293.521 296.883 294.115 298.203C294.693 299.484 295.482 300.609 296.459 301.562C297.436 302.469 298.553 303.211 299.834 303.758C301.123 304.305 302.49 304.578 303.975 304.578C306.24 304.578 308.139 304.086 309.756 303.102C311.396 302.063 312.662 300.883 313.506 299.539L316.74 302.172C315.181 304.208 313.148 305.833 310.818 306.906C308.656 307.871 306.311 308.359 303.943 308.336C301.74 308.336 299.67 307.945 297.772 307.211C295.958 306.459 294.314 305.351 292.936 303.953C291.551 302.552 290.45 300.897 289.693 299.078C288.922 297.135 288.534 295.06 288.553 292.969C288.553 290.75 288.943 288.719 289.693 286.859C290.405 285.048 291.478 283.401 292.847 282.018C294.216 280.635 295.851 279.544 297.654 278.812C299.475 278.008 301.459 277.625 303.584 277.625C305.85 277.625 307.857 278.016 309.615 278.805C311.404 279.602 312.881 280.672 314.061 281.984C315.287 283.266 316.209 284.805 316.85 286.586C317.49 288.336 317.803 290.203 317.803 292.203V294.062H293.021ZM346.912 282.062H338.334V299.297C338.334 300.359 338.443 301.266 338.67 301.977C338.896 302.633 339.17 303.148 339.561 303.539C339.951 303.922 340.404 304.195 340.904 304.359C341.491 304.496 342.091 304.562 342.693 304.555C344.206 304.536 345.691 304.15 347.021 303.43L347.217 307.242C344.624 308.337 341.756 308.604 339.006 308.008C338.151 307.783 337.352 307.381 336.662 306.828C335.885 306.185 335.27 305.369 334.865 304.445C334.348 303.205 334.111 301.866 334.17 300.523V282.117H327.889V278.367H334.17V270.125H338.365V278.367H346.936L346.912 282.062Z" fill="white"/>
</g>
</g>
<defs>
<linearGradient id="paint0_linear_1361_2060" x1="250.625" y1="0" x2="250.625" y2="500" gradientUnits="userSpaceOnUse">
<stop stop-color="#393A50"/>
<stop offset="1" stop-color="#171826"/>
</linearGradient>
<linearGradient id="paint1_linear_1361_2060" x1="250.783" y1="57.3827" x2="250.783" y2="463.125" gradientUnits="userSpaceOnUse">
<stop stop-color="#FB9600"/>
<stop offset="0.25" stop-color="#00C26F"/>
<stop offset="0.505" stop-color="#6696D6"/>
<stop offset="0.776" stop-color="#F28984"/>
<stop offset="1" stop-color="#5FCEF0"/>
</linearGradient>
<linearGradient id="paint2_linear_1361_2060" x1="251.408" y1="57.3827" x2="251.408" y2="463.125" gradientUnits="userSpaceOnUse">
<stop stop-color="#FB9600"/>
<stop offset="0.25" stop-color="#00C26F"/>
<stop offset="0.505" stop-color="#6696D6"/>
<stop offset="0.776" stop-color="#F28984"/>
<stop offset="1" stop-color="#5FCEF0"/>
</linearGradient>
<clipPath id="clip0_1361_2060">
<rect width="500" height="500" rx="46.875" fill="white"/>
</clipPath>
</defs>
</svg>
