<?xml version="1.0" encoding="utf-8"?>
<!-- Generator: Adobe Illustrator 25.4.1, SVG Export Plug-In . SVG Version: 6.00 Build 0)  -->
<svg version="1.1" id="Layer_1" xmlns="http://www.w3.org/2000/svg" xmlns:xlink="http://www.w3.org/1999/xlink" x="0px" y="0px"
	 viewBox="0 0 500 500" style="enable-background:new 0 0 500 500;" xml:space="preserve">
<style type="text/css">
	.st0{fill:#FFFFFF;}
</style>
<g>
	<g>
		<path class="st0" d="M404.5,281.8c-10.7,0.4-20.8,0.7-31,1c-9.3-13.5-18.5-26.9-28-40.5c-1.6,1.6-3.1,3.1-4.6,4.6
			c0,11.6,0,23.1,0,34.9c-9.6,0-18.9,0-28.5,0c0-45.1,0-90.3,0-135.7c9.9,0,19.9,0,30.2,0c-0.1,0.9-0.1,1.7-0.2,2.5
			c-0.4,2.3-1.3,4.7-1.3,7c-0.1,18.9-0.1,37.7-0.1,56.6c0,0.6,0.1,1.2,0.2,1.6c9.4-9.2,18.9-18.4,27.9-27.3
			c10.6,0.5,20.6,0.9,31.2,1.4c-12.1,12.2-23.9,24.2-36,36.4C377.6,243.3,390.9,262.3,404.5,281.8z"/>
		<path class="st0" d="M206.8,302c5.4-7.1,10.8-14.3,16.7-22c0.9,1.4,1.7,2.2,2,3.2c2.4,8,8.5,11.9,16.8,10.7c3.4-0.5,6.2-2.2,7-5.6
			c0.8-3.5,1.5-7.1,1.6-10.7c0.1-21.9,0.1-43.9,0.1-65.8c0-0.6-0.1-1.3-0.2-2.3c-10.4,0-20.7,0-31.1,0c0-7.6,0-14.8,0-22.3
			c20,0,39.9,0,60.1,0c0.1,1.3,0.2,2.4,0.2,3.6c0,27.6,0,55.1,0,82.7c0,5.7-0.2,11.5-1.8,17c-4.1,13.9-13.4,22.6-27.4,25.8
			c-16.8,3.9-31.4-0.5-43.3-13.2C207.3,302.8,207.2,302.5,206.8,302z"/>
		<path class="st0" d="M433.7,209.3c-6.2,0-12,0-18.1,0c0-7.4,0-14.6,0-22.2c6.3,0,12.5,0,19.2,0c0.3-7.3,0.7-14.1,1-21.2
			c10.4-1.4,20.5-2.7,31.1-4.1c-0.9,4.3-2,8.2-2.5,12.2c-0.6,4.1-0.7,8.3-1.1,12.9c9.5,0,18.8,0,28.5,0c0,4,0,7.5,0,11.1
			s0,7.3,0,11.3c-9.6,0-19.3,0-28.7,0c-0.3,0.9-0.2,1.5-0.3,2.1c-0.4,11.6-0.7,21.8-0.9,34.7c0.1,5.4,0.8,15.2,12.3,15.7
			c5.9-0.2,10.8-2.7,15.5-5.9c1.1-0.7,2.1-1.5,3.6-2.5c1.7,6.9,3.3,13.5,4.9,20.1c-10.3,7.6-21.6,11.6-34.4,10.9
			c-3-0.2-5.9-0.5-8.8-1.2c-8.9-2.2-14.8-8-18.1-16.4c-3.4-8.6-4.2-17.6-4.1-26.6c0.1-8,0.6-16.1,0.9-24.1
			C433.8,213.9,433.7,211.8,433.7,209.3z"/>
		<path class="st0" d="M263.4,174.5c-11.6-0.4-19.3-10.7-16-21.5c1.1-3.6,3.4-6.5,6.7-8.3c5.9-3.2,12.1-3.5,18-0.2
			c6.1,3.4,9.3,8.7,8.4,15.9c-0.9,6.7-5.2,10.7-11.3,13C267.3,174.1,265.3,174.2,263.4,174.5z"/>
		<path class="st0" d="M192.7,207.9c-4-11.7-12.4-19.3-24.8-22c-9.3-2.1-18.2-1.4-26.2,4.4c-1.6,1.2-3.1,2.6-5.2,4.2
			c0-1.9,0-3.1,0-4.3c0-10.8,0-21.6,0-32.4c0-3.2-0.4-6.4,1.4-9.4c0.3-0.6,0-1.5,0-2.3c-10.1,0-20.1,0-30.1,0c0,45.4,0,90.5,0,135.7
			c7.7,0,15.1,0,22.6,0c1-2.8,1.9-5.5,3-8.4c1,1,1.6,1.7,2.4,2.3c3.2,2.2,6.1,4.8,9.6,6.3c13,5.5,35.4,3.1,45.2-18.4
			C198.9,245.5,199.2,226.6,192.7,207.9z M166.1,251.8c-1.4,4.2-3.8,7.8-7.9,9.7c-7,3.2-14.2,2-18.1-6.5c-2.3-5.1-2.9-10.6-3.3-16.1
			c-0.1-1.5,0.6-14.5,1.4-19.4c0.4-2.2,1.2-4.5,2.2-6.6c4.6-9.5,16.2-10.5,22.1-1.7c2,2.9,3.5,6.4,4.3,9.9
			C169.4,231.4,169.5,241.7,166.1,251.8z"/>
		<g>
			<path class="st0" d="M449.7,356.3c0-0.9,0-1.8,0-2.6c0-9.3,0-18.6,0-27.8c0-2-0.2-4.1-0.4-6.1c-0.1-1.2-0.5-2.4-1.9-2.7
				c-1.3-0.3-2.3,0.5-3.1,1.4c-2.1,2.5-2.6,5.5-2.6,8.6c0,8.9,0,17.8,0,26.6c0,0.9,0,1.7,0,2.7c-3.1,0-6.1,0-9.4,0
				c0-0.8,0-1.6,0-2.4c0-10.1,0-20.1,0-30.2c0-1.5-0.2-3-0.4-4.4c-0.2-1.2-0.7-2.1-2-2.4s-2.5,0.1-3.1,1.1c-0.9,1.5-1.6,3.2-2,4.9
				c-0.4,1.6-0.3,3.3-0.3,4.9c0,8.5,0,17,0,25.5c0,0.9,0,1.9,0,3c-3.4,0-6.6,0-9.9,0c0-15.5,0-30.9,0-46.5c3.2,0,6.3,0,9.5,0
				c0.1,0.7,0.2,1.4,0.3,2.2c0.2-0.1,0.5,0,0.6-0.2c2.1-2.1,4.5-3.4,7.5-3.3c3.5,0.1,6.1,1.8,7.7,5.1c0.4-0.4,0.7-0.6,0.9-0.9
				c3.2-4,7.4-4.9,12.1-3.8c3.5,0.8,5.1,3.4,5.9,6.7c0.3,1.4,0.6,2.8,0.6,4.2c0,12.1,0,24.2,0,36.5
				C456.5,356.3,453.3,356.3,449.7,356.3z"/>
			<path class="st0" d="M349.8,342.5c2,2.3,4.1,4.7,6.1,7c-5.2,7-17.5,10.1-27,6.7c-9.8-3.4-16-12.7-15.8-23.3
				c0.3-11.6,7.3-20.5,17.1-23.5c9.5-2.9,20.9,0,26.1,8.2c-2.3,2.5-4.6,5.1-7.1,7.8c-0.4-0.6-0.8-1-0.8-1.3c-0.3-2.6-2.1-4-4.2-5
				c-8.5-3.8-16.3,0.5-18.5,8.4c-1.2,4.4-1.2,8.8,0.9,13.1c3.3,7,10.8,9.5,17.6,5.9C346.2,345.5,347.8,344,349.8,342.5z"/>
			<path class="st0" d="M282.4,357.6c-4.6,0-7.8-3.1-7.8-7.6c0-4.3,3.3-7.6,7.6-7.6c4.3,0,7.6,3.3,7.7,7.6
				C289.9,354.3,286.7,357.5,282.4,357.6z"/>
			<path class="st0" d="M385.5,308.3c-12.4,0-22.5,11.1-22.5,24.8s10.1,24.8,22.5,24.8s22.5-11.1,22.5-24.8S398,308.3,385.5,308.3z
				 M385.6,348.1c-6,0-10.9-6.8-10.9-15.3c0-8.4,4.9-15.3,10.9-15.3s10.9,6.8,10.9,15.3C396.6,341.3,391.7,348.1,385.6,348.1z"/>
		</g>
		<path class="st0" d="M82.4,201.1c-19.3-22.9-54.4-21.8-71.9,4.3c-8,12-10,25.2-7.9,39.2c3.6,23.6,22.1,39.8,45.4,39.8
			c6.7,0,13.2-1.1,19.2-4.1c14.5-7,23.2-18.6,26.2-34.3C96.6,229.4,93.5,214.2,82.4,201.1z M48.5,262.3c-10.7,0-19.3-12.4-19.3-27.7
			c0-8.8,2.9-16.6,7.4-21.7c1.2-1.4,2.6-2.6,4.1-3.5c2.4-1.5,5.1-2.4,7.9-2.4c10.7,0,19.3,12.4,19.3,27.7
			C67.8,249.9,59.2,262.3,48.5,262.3z"/>
	</g>
</g>
</svg>
