<svg width="160" height="171" viewBox="0 0 160 171" fill="none" xmlns="http://www.w3.org/2000/svg">
<g filter="url(#filter0_d_590_742)">
<path d="M115.356 97.5876L105.18 87.4052C103.35 85.5733 104.648 82.4488 107.232 82.4488H115.46C124.779 82.4488 132.336 74.8863 132.336 65.561H27.3875C27.3875 74.8863 34.945 82.4488 44.2641 82.4488H52.4917C55.0754 82.4488 56.3741 85.5733 54.5435 87.4052L44.3677 97.5876C43.2348 98.7213 43.2348 100.56 44.3677 101.694L52.1947 109.526C53.3276 110.66 55.1652 110.66 56.2981 109.526L66.4739 99.3434C68.3045 97.5116 71.427 98.8112 71.427 101.397V113.936C71.427 115.54 72.7258 116.84 74.3285 116.84H85.4022C87.0049 116.84 88.3037 115.54 88.3037 113.936V101.397C88.3037 98.8112 91.4262 97.5116 93.2568 99.3434L103.433 109.526C104.566 110.66 106.403 110.66 107.536 109.526L115.363 101.694C116.496 100.56 116.496 98.7213 115.363 97.5876H115.356Z" fill="white"/>
<path d="M37.3062 55.2203C41.4925 35.5605 58.984 20.7673 79.8605 20.7673C100.737 20.7673 118.228 35.5605 122.415 55.2203H37.3062Z" fill="white"/>
<path d="M79.862 29.843C92.1931 29.843 103.032 36.3617 109.111 46.1363H50.6128C56.6989 36.3617 67.5378 29.843 79.8689 29.843H79.862ZM79.8689 11.6833C50.8684 11.6833 27.2839 35.2833 27.2839 64.296H132.44C132.44 35.2833 108.856 11.6833 79.862 11.6833L79.8689 11.6833Z" fill="#D0B3FA"/>
<path d="M56.1326 55.2218C59.7939 45.6753 69.0508 38.8801 79.8621 38.8801C90.6734 38.8801 99.9304 45.6753 103.592 55.2218H56.1326Z" fill="white"/>
<path d="M79.8642 29.804C60.8253 29.804 45.3855 45.247 45.3855 64.3053H114.343C114.343 45.2539 98.9031 29.804 79.8642 29.804Z" fill="#9D5CFF"/>
<path d="M96.1967 64.2982H63.5349C63.5349 55.284 70.8576 47.9565 79.8658 47.9565C88.8741 47.9565 96.1967 55.284 96.1967 64.2982Z" fill="white"/>
</g>
<defs>
<filter id="filter0_d_590_742" x="0.222982" y="11.6833" width="159.278" height="159.278" filterUnits="userSpaceOnUse" color-interpolation-filters="sRGB">
<feFlood flood-opacity="0" result="BackgroundImageFix"/>
<feColorMatrix in="SourceAlpha" type="matrix" values="0 0 0 0 0 0 0 0 0 0 0 0 0 0 0 0 0 0 127 0" result="hardAlpha"/>
<feOffset dy="27.061"/>
<feGaussianBlur stdDeviation="13.5305"/>
<feComposite in2="hardAlpha" operator="out"/>
<feColorMatrix type="matrix" values="0 0 0 0 0.0326563 0 0 0 0 0.0694153 0 0 0 0 0.4125 0 0 0 0.17 0"/>
<feBlend mode="normal" in2="BackgroundImageFix" result="effect1_dropShadow_590_742"/>
<feBlend mode="normal" in="SourceGraphic" in2="effect1_dropShadow_590_742" result="shape"/>
</filter>
</defs>
</svg>
