<?xml version="1.0" encoding="utf-8"?>
<!-- Generator: Adobe Illustrator 25.4.1, SVG Export Plug-In . SVG Version: 6.00 Build 0)  -->
<svg version="1.1" id="Layer_1" xmlns="http://www.w3.org/2000/svg" xmlns:xlink="http://www.w3.org/1999/xlink" x="0px" y="0px"
	 viewBox="0 0 500 500" style="enable-background:new 0 0 500 500;" xml:space="preserve">
<style type="text/css">
	.st0{fill:#5C10AE;}
	.st1{fill:#FCFCFD;}
</style>
<g>
	<circle class="st0" cx="250" cy="250" r="249.5"/>
	<path class="st1" d="M227.7,290.5c0,32.4,0,62.9,0,93.9c-16.3,0-31.6,0-47.8,0c0-81.4,0-163.7,0-245.4c23.8-0.4,64.2-0.6,93.3-0.2
		c21.1,0.3,41.2,4.9,57.6,19.1c23.6,20.4,29.7,46.9,22.7,76.3c-6.7,28.5-26.2,45.2-53.9,52.7c-10.7,2.9-21.8,3.5-32.9,3.5
		C254.2,290.5,241.7,290.5,227.7,290.5z M228.4,250.7c18.1-0.6,35.7,1.6,53.1-1.7c13.5-2.6,21.6-11.9,23.8-25.7
		c1-5.9,0.9-11.7-0.1-17.6c-2.1-12.4-8.9-20.9-21.1-24.3c-18.3-5-34.9-2.5-55.7-2.7C228.4,203.3,228.4,226.3,228.4,250.7z"/>
	<path class="st1" d="M278.8,387.4c-18.2-0.1-29.7-11.7-29.5-29.7c0.2-16.5,13-28.4,30.2-28.2c16.5,0.2,29.6,13.3,29.3,29.5
		C308.6,375.7,296,387.5,278.8,387.4z"/>
	<path class="st0" d="M228.4,250.7c0-24.4,0-47.4,0-72c18.7,0.8,37.3-2.3,55.7,2.7c12.2,3.3,19,11.9,21.1,24.3
		c1,5.9,1,11.7,0.1,17.6c-2.2,13.8-10.3,23.1-23.8,25.7C264.1,252.3,246.5,250.1,228.4,250.7z"/>
</g>
</svg>
