<?xml version="1.0" encoding="utf-8"?>
<!-- Generator: Adobe Illustrator 25.4.1, SVG Export Plug-In . SVG Version: 6.00 Build 0)  -->
<svg version="1.1" id="Layer_1" xmlns="http://www.w3.org/2000/svg" xmlns:xlink="http://www.w3.org/1999/xlink" x="0px" y="0px"
	 viewBox="0 0 500 500" style="enable-background:new 0 0 500 500;" xml:space="preserve">
<style type="text/css">
	.st0{fill:url(#SVGID_1_);}
	.st1{opacity:0.75;}
	.st2{fill:#FFFFFF;}
</style>
<linearGradient id="SVGID_1_" gradientUnits="userSpaceOnUse" x1="-13.7847" y1="-13.0066" x2="560.52" y2="559.6041">
	<stop  offset="0" style="stop-color:#0F61FF"/>
	<stop  offset="0.16" style="stop-color:#1360FC"/>
	<stop  offset="0.3278" style="stop-color:#205CF4"/>
	<stop  offset="0.499" style="stop-color:#3555E6"/>
	<stop  offset="0.6728" style="stop-color:#524BD2"/>
	<stop  offset="0.8466" style="stop-color:#783FB9"/>
	<stop  offset="1" style="stop-color:#9F329F"/>
</linearGradient>
<rect class="st0" width="500" height="500"/>
<g class="st1">
	<g>
		<path class="st2" d="M230.7,311.7h-23.8V188.3h42.2c6.7,0,12.8,1,18.2,2.9c5.4,2,10.1,4.6,13.9,8.1c3.8,3.5,6.7,7.7,8.8,12.5
			c2.1,4.9,3.1,10.3,3.1,16.2c0,5.5-1,10.7-3.1,15.3c-2.1,4.7-5,8.7-8.8,12.1c-3.8,3.4-8.5,6.1-13.9,8.1c-5.4,1.9-11.5,2.9-18.2,2.9
			h-18.4V311.7z M249.1,247.1c3.4,0,6.3-0.5,8.8-1.5c2.5-1,4.6-2.4,6.3-4.2c1.6-1.8,2.9-3.8,3.7-6.1c0.8-2.3,1.2-4.7,1.2-7.2
			c0-2.9-0.4-5.6-1.2-8.1c-0.8-2.5-2-4.7-3.7-6.5c-1.7-1.9-3.8-3.3-6.3-4.4c-2.5-1.1-5.4-1.6-8.8-1.6h-18.4v39.5H249.1z"/>
	</g>
</g>
</svg>
