<svg width="450" height="501" viewBox="0 0 450 501" fill="none" xmlns="http://www.w3.org/2000/svg">
<path d="M449.481 82.522C449.481 127.536 412.7 164.244 366.994 164.244C321.288 164.244 284.506 127.804 284.506 82.522C284.506 37.2401 321.558 0.800293 366.994 0.800293C412.429 0.800293 449.481 37.2401 449.481 82.522ZM172.54 370.29C170.376 383.687 170.917 397.352 174.433 410.481C188.226 461.657 235.555 499.705 290.997 500.776C359.962 502.116 416.216 446.92 416.216 379.132C416.216 311.879 361.314 257.219 293.161 257.219C290.186 257.219 286.94 257.487 283.965 257.487C270.172 256.951 245.02 250.52 237.989 214.884C235.284 200.684 236.096 185.679 240.693 172.014C244.48 159.689 246.643 146.56 246.373 133.163C245.02 68.3212 191.742 15.2691 126.293 13.9294C56.7867 12.0538 0.262451 67.2494 0.262451 135.306C0.262451 192.377 39.7483 240.071 93.2975 253.468C100.059 255.879 111.147 260.434 123.047 266.865C159.558 286.692 179.571 327.151 172.81 367.878L172.54 370.29Z" fill="url(#paint0_linear_57_6)"/>
<defs>
<linearGradient id="paint0_linear_57_6" x1="190.861" y1="-63.9305" x2="280.81" y2="408.185" gradientUnits="userSpaceOnUse">
<stop stop-color="#3730A3"/>
<stop offset="1" stop-color="#818CF8"/>
</linearGradient>
</defs>
</svg>
