<?xml version="1.0" encoding="utf-8"?>
<!-- Generator: Adobe Illustrator 25.4.1, SVG Export Plug-In . SVG Version: 6.00 Build 0)  -->
<svg version="1.1" id="Layer_1" xmlns="http://www.w3.org/2000/svg" xmlns:xlink="http://www.w3.org/1999/xlink" x="0px" y="0px"
	 viewBox="0 0 500 500" style="enable-background:new 0 0 500 500;" xml:space="preserve">
<style type="text/css">
	.st0{clip-path:url(#SVGID_00000052826147963125327510000013788326685622619019_);}
	.st1{fill:url(#SVGID_00000114031167163718245330000003015982605683514248_);}
	.st2{fill:url(#SVGID_00000011709594722865928410000017432089680689970068_);}
	.st3{fill:url(#SVGID_00000139258294249839217750000010714948609237060286_);}
	.st4{fill:url(#SVGID_00000023238890856666224710000015211321635395766425_);}
	.st5{fill:url(#SVGID_00000124846078503445713290000000674058386268624565_);}
	.st6{fill:url(#SVGID_00000101786291692295342690000017434099711441815709_);}
	.st7{fill:url(#SVGID_00000014636091198834182370000013824441646320269244_);}
	.st8{fill:url(#SVGID_00000004528811290865661250000009720037742992905911_);}
	.st9{fill:#FFFFFF;}
</style>
<g>
	<defs>
		<rect id="SVGID_1_" x="-1.2" y="185.8" width="500.9" height="128.5"/>
	</defs>
	<clipPath id="SVGID_00000107553654640649034360000013704103915975696532_">
		<use xlink:href="#SVGID_1_"  style="overflow:visible;"/>
	</clipPath>
	<g style="clip-path:url(#SVGID_00000107553654640649034360000013704103915975696532_);">
		
			<linearGradient id="SVGID_00000170255460655332115770000004254978434367176086_" gradientUnits="userSpaceOnUse" x1="53.0305" y1="260.8539" x2="53.0305" y2="310.3537" gradientTransform="matrix(1 0 0 -1 0 501)">
			<stop  offset="0" style="stop-color:#A966E5"/>
			<stop  offset="1" style="stop-color:#7966E8"/>
		</linearGradient>
		<path style="fill:url(#SVGID_00000170255460655332115770000004254978434367176086_);" d="M87,235.8c-6.8-3.2-15.3-3.8-24.5-2.3
			c-2.1,0.3-4.1,0.7-6.1,1.1c-5,0.9-10.6,2.5-15.7,1.5c-1-0.2-2-0.5-2.8-1.3c-0.9-0.9-1.3-2.3-1-3.5c0.5-2.4,2.9-3.7,5-4.6
			c3-1.3,6.1-2,9.3-2.5c6.6-1.1,13.5-1.5,20.2-1.2c2.4,0.1,4.5-1.5,5.1-3.8l5.4-22c0.8-3.1-1.6-6.1-4.8-6.2
			c-21.5-0.1-43.4,1.2-58,12.2l6,8c10.9-8.2,28-10,45.6-10.2l-2.9,12c-9.5-0.1-29.9,0.9-37.6,10.1c-2.8,3.3-3.8,7.4-2.9,11.8
			c1.8,8.5,8.7,10.3,11.7,11c4.6,1.2,11.1,0,19.3-1.5c1.9-0.4,3.9-0.8,5.9-1.1c8-1.1,13-0.9,17.3,0.9C82.4,241,84.3,237.8,87,235.8z
			"/>
		
			<linearGradient id="SVGID_00000056388205054004514240000001030772512806557854_" gradientUnits="userSpaceOnUse" x1="75.5628" y1="264.0868" x2="91.562" y2="256.0272" gradientTransform="matrix(1 0 0 -1 0 501)">
			<stop  offset="0" style="stop-color:#A966E6"/>
			<stop  offset="1" style="stop-color:#3F2575"/>
		</linearGradient>
		<path style="fill:url(#SVGID_00000056388205054004514240000001030772512806557854_);" d="M71.6,232.9c3,1.9,3.9,6,2,8.9
			c-0.1,0.2-0.3,0.4-0.4,0.6c2.3,0.3,4.8,0.4,8.5,1.6c2.5,0.9,5.1,2.8,7.3,4l4.7-7.6c-2.7-1.6-5.8-4.3-9-5.4
			c-4.3-1.5-8.6-2.3-13.3-2.2C71.4,232.8,71.5,232.9,71.6,232.9z"/>
		
			<linearGradient id="SVGID_00000103948220024001790000000010571695508630519475_" gradientUnits="userSpaceOnUse" x1="17.4737" y1="301.5952" x2="17.4737" y2="265.1804" gradientTransform="matrix(1 0 0 -1 0 501)">
			<stop  offset="0.2865" style="stop-color:#6F6EBD"/>
			<stop  offset="1" style="stop-color:#1C1FEA"/>
		</linearGradient>
		<path style="fill:url(#SVGID_00000103948220024001790000000010571695508630519475_);" d="M8.4,235.8c-0.2,0-0.5,0-0.7,0
			c-2.7-0.4-4.6-2.9-4.2-5.6c3.1-21.7,20.2-29.9,21-30.3c2.5-1.2,5.4-0.1,6.6,2.4c1.2,2.5,0.1,5.4-2.4,6.6
			c-0.6,0.3-13.1,6.5-15.4,22.7C13,234,10.8,235.8,8.4,235.8z"/>
		
			<linearGradient id="SVGID_00000052823041842173781210000018275740698886269358_" gradientUnits="userSpaceOnUse" x1="17.4737" y1="301.5952" x2="17.4737" y2="265.1804" gradientTransform="matrix(1 0 0 -1 0 501)">
			<stop  offset="0.2292" style="stop-color:#8267E8"/>
			<stop  offset="1" style="stop-color:#2F3198"/>
		</linearGradient>
		<path style="fill:url(#SVGID_00000052823041842173781210000018275740698886269358_);" d="M8.4,235.8c-0.2,0-0.5,0-0.7,0
			c-2.7-0.4-4.6-2.9-4.2-5.6c3.1-21.7,20.2-29.9,21-30.3c2.5-1.2,5.4-0.1,6.6,2.4c1.2,2.5,0.1,5.4-2.4,6.6
			c-0.6,0.3-13.1,6.5-15.4,22.7C13,234,10.8,235.8,8.4,235.8z"/>
		
			<linearGradient id="SVGID_00000131369781416768189030000008738752910438623930_" gradientUnits="userSpaceOnUse" x1="18.6283" y1="223.6046" x2="8.347" y2="184.1376" gradientTransform="matrix(1 0 0 -1 0 501)">
			<stop  offset="0" style="stop-color:#E374FF"/>
			<stop  offset="1" style="stop-color:#EE4A93"/>
		</linearGradient>
		<path style="fill:url(#SVGID_00000131369781416768189030000008738752910438623930_);" d="M6.8,301l8.1-24.1c1.5-3.8,3.2-3.6,5.5-3
			c2.6,0.7,4.6,1.6,3.2,5.9L15.5,304c-1.5,4.4-3.2,3.6-5.5,3C7.4,306.2,5.5,304.7,6.8,301z"/>
		
			<linearGradient id="SVGID_00000052795424341899720020000014649476753086340491_" gradientUnits="userSpaceOnUse" x1="86.9153" y1="243.2798" x2="41.9429" y2="193.908" gradientTransform="matrix(1 0 0 -1 0 501)">
			<stop  offset="0" style="stop-color:#7A3CFE"/>
			<stop  offset="1" style="stop-color:#FCA543"/>
		</linearGradient>
		<path style="fill:url(#SVGID_00000052795424341899720020000014649476753086340491_);" d="M41.3,311.4c-5.1,0-10.4-0.5-15.7-1.5
			c-2.9-0.6-4.7-3.6-3.8-6.4l7.3-22.6c0.8-2.4,3.1-3.8,5.6-3.4c0.1,0,11,1.8,20.5-0.5c7.8-1.9,11.9-3.5,13.1-6.7
			c0.8-1.9,3-3.1,5-2.8c3.7,0.4,5.4,4.6,3.9,7.6c-4,8.1-12.4,9.9-19.7,11.7c-7.5,1.8-15.4,1.6-20.2,1.2L33.1,301
			c28.7,3.3,52-10.9,58.4-23.4c4.3-8.4,2.9-16,1-20.9l-0.1-0.2c0-0.1-3.7-9.9-11.1-12.3c-2.2-0.7-3.8-2.7-3.6-5
			c0.2-3.4,3.4-5.5,6.4-4.6c11.9,3.7,17.1,17,17.6,18.4c3.8,9.6,3.3,19.9-1.4,29.1C92.4,297.7,68.9,311.4,41.3,311.4z"/>
		
			<linearGradient id="SVGID_00000178188702158631606430000008073307933793103239_" gradientUnits="userSpaceOnUse" x1="73.4189" y1="218.7366" x2="45.6076" y2="220.6108" gradientTransform="matrix(1 0 0 -1 0 501)">
			<stop  offset="0" style="stop-color:#EFB253"/>
			<stop  offset="1" style="stop-color:#DB8185"/>
		</linearGradient>
		<path style="fill:url(#SVGID_00000178188702158631606430000008073307933793103239_);" d="M71,281.6c-3.7,0-6.8-3.1-6.8-6.8
			c0-0.2,0-0.5,0-0.7c-2.2,1.1-5.2,2-9.2,3c-2.7,0.6-5.4,1-8.1,1.1v10c3.3-0.1,6.9-0.5,10.4-1.4c4.7-1.1,9.8-2.3,13.9-5.1
			C71.2,281.6,71.1,281.6,71,281.6z"/>
		
			<linearGradient id="SVGID_00000172442357130503312850000008530959925091632789_" gradientUnits="userSpaceOnUse" x1="5.5407" y1="275.4703" x2="67.7629" y2="219.7978" gradientTransform="matrix(1 0 0 -1 0 501)">
			<stop  offset="0" style="stop-color:#E89331"/>
			<stop  offset="1" style="stop-color:#EDB355"/>
		</linearGradient>
		<path style="fill:url(#SVGID_00000172442357130503312850000008530959925091632789_);" d="M71.7,257.7c-2.1-1.2-6.2-2.5-9.4-2.2v0
			c-4.4,0.1-9.1,0.9-13.2,1.6c-2.3,0.4-4.5,0.8-6,0.9c-3.7,0.3-16.5,0.8-23.1-5.5c-8.9-8.5-8-20.8-4.1-29.6c1.1-2.5,0-5.4-2.5-6.6
			c-2.5-1.1-5.5,0-6.6,2.5c-5.2,11.8-6.3,28.8,6.4,40.8c9.3,8.9,24.6,8.7,30.7,8.2c2-0.2,4.3-0.5,6.9-1c3.8-0.6,8-1.5,11.7-1.5
			l0.6,0c0.8,0,1.6,0.1,2.4,0.3c0.8,0.2,1.5,0.7,2,1.2c0.5,0.6,0.7,1.5,0.7,2.5c-0.1,1-0.6,3.2-4,4.7c-2.1,1-3.1,3.4-2.6,5.7
			c0.8,3.1,4.3,4.7,7.2,3.3c8.6-4.1,9.4-10.8,9.4-10.8C79.4,263.5,74.6,259.4,71.7,257.7z"/>
		<path class="st9" d="M153.7,281.5c-4.4,0-8.6-0.7-12.7-2c-4-1.4-7.2-3.2-9.6-5.3l0,0c1.5-3.2,5.8-4.1,9.1-2.6
			c0.8,0.4,1.6,0.7,2.5,1c3.5,1.2,7.1,1.8,10.7,1.8c4.8,0,8.4-0.8,10.8-2.4c2.4-1.7,3.6-3.9,3.6-6.6c0-2-0.7-3.6-2-4.8
			c-1.3-1.3-2.9-2.2-4.8-2.9c-1.9-0.7-4.6-1.4-8.1-2.2c-4.4-1.1-7.9-2.1-10.6-3.2c-2.7-1.1-5-2.7-6.9-4.8c-1.9-2.2-2.8-5.2-2.8-8.9
			c0-3.1,0.8-5.9,2.4-8.4c1.7-2.5,4.2-4.5,7.5-6c3.3-1.5,7.5-2.2,12.4-2.2c3.4,0,6.8,0.4,10.1,1.3c3.3,0.9,6.2,2.2,8.6,3.8l-0.8,2.1
			c-1,2.4-3.9,3.3-6.3,2.3c-1.1-0.5-2.2-0.9-3.4-1.2c-2.8-0.8-5.5-1.2-8.2-1.2c-4.7,0-8.3,0.9-10.6,2.6c-2.3,1.7-3.5,3.9-3.5,6.7
			c0,2,0.7,3.6,2,4.9c1.3,1.2,3,2.2,4.9,2.9c2,0.7,4.7,1.4,8.1,2.2c4.4,1.1,7.9,2.1,10.6,3.2c2.7,1.1,4.9,2.7,6.8,4.8
			c1.9,2.2,2.9,5.1,2.9,8.7c0,3-0.8,5.8-2.5,8.4c-1.7,2.5-4.2,4.5-7.6,6C162.8,280.7,158.6,281.5,153.7,281.5z"/>
		<path class="st9" d="M236.2,236.3c5.5,0,9.9,1.6,13.1,4.8c3.3,3.2,4.9,8,4.9,14.3v17.4c0,4.4-3.6,8-8,8l0,0v-24.5
			c0-4.3-1-7.5-3-9.6c-1.9-2.2-4.7-3.2-8.4-3.2c-4,0-7.3,1.3-9.6,3.8c-2.4,2.5-3.6,6.1-3.6,10.8v18.7c0,2.2-1.8,4-4,4l0,0
			c-2.2,0-4-1.8-4-4v-20.5c0-4.3-1-7.5-3-9.6c-1.9-2.2-4.7-3.2-8.4-3.2c-4,0-7.3,1.3-9.6,3.8c-2.4,2.5-3.6,6.1-3.6,10.8v14.7
			c0,4.4-3.6,8-8,8l0,0v-44.1h4.2c1.9,0,3.4,1.5,3.4,3.4v3.2c1.6-2.3,3.7-4,6.3-5.2c2.6-1.2,5.6-1.8,8.9-1.8c3.4,0,6.5,0.7,9.1,2.1
			c2.7,1.4,4.7,3.4,6.2,6.1c1.7-2.6,4-4.5,6.9-6C229.2,237,232.5,236.3,236.2,236.3z"/>
		<path class="st9" d="M304.7,236.7v44.1H304c-3.9,0-7-3.1-7-7l0,0c-1.8,2.4-4,4.3-6.7,5.6c-2.7,1.3-5.7,1.9-9,1.9
			c-4.3,0-8.1-0.9-11.5-2.8c-3.4-1.9-6-4.5-8-7.9c-1.9-3.4-2.8-7.4-2.8-11.8c0-4.4,0.9-8.3,2.8-11.7c1.9-3.4,4.6-6,8-7.9
			c3.4-1.9,7.2-2.8,11.5-2.8c3.2,0,6.1,0.6,8.7,1.8c2.7,1.2,4.9,2.9,6.7,5.2l0,0c0-3.7,3-6.7,6.7-6.7H304.7z M282,274.3
			c2.8,0,5.3-0.6,7.6-1.9c2.3-1.3,4-3.2,5.3-5.5c1.3-2.4,1.9-5.1,1.9-8.2c0-3-0.6-5.7-1.9-8.1c-1.3-2.4-3-4.2-5.3-5.5
			c-2.3-1.3-4.8-1.9-7.6-1.9c-2.8,0-5.4,0.6-7.7,1.9c-2.2,1.3-4,3.1-5.3,5.5c-1.3,2.3-1.9,5-1.9,8.1c0,3,0.6,5.8,1.9,8.2
			c1.3,2.3,3.1,4.2,5.3,5.5C276.6,273.7,279.1,274.3,282,274.3z"/>
		<path class="st9" d="M321.3,244.1c1.4-2.6,3.4-4.5,6.2-5.8c2.7-1.3,6-1.6,9.9-1.6v4c0,1.4-1.2,2.6-2.6,2.6l0,0
			c-4.3,0-6.9,2-9.4,4.6c-2.4,2.6-3.7,6.2-3.7,11v14c0,4.4-3.6,8-8,8l0,0v-44.1h0.2C318,236.7,321.3,240,321.3,244.1L321.3,244.1z"
			/>
		<path class="st9" d="M364.3,278.2c-1.2,1-2.6,1.8-4.3,2.3c-1.7,0.5-3.5,0.7-5.3,0.7c-4.4,0-7.9-1.2-10.3-3.6
			c-2.4-2.4-3.7-5.8-3.7-10.2V235c0-4.4,3.6-8,8-8l0,0v9.6h12.6l0,0c0,3.6-2.9,6.6-6.6,6.6h-6.1v23.9c0,2.4,0.6,4.2,1.7,5.5
			c1.2,1.3,2.9,1.9,5.2,1.9c0.2,0,0.3,0,0.5,0C359.2,274.4,363,275.3,364.3,278.2L364.3,278.2z"/>
		<path class="st9" d="M381.6,281.3c-4.3,0-7.6-1.2-9.9-3.5c-2.3-2.4-3.5-5.7-3.5-10v-48.7l0,0c4.4,0,8,3.6,8,8v40.1
			c0,2.4,0.6,4.2,1.7,5.5c1.2,1.3,2.9,1.9,5.2,1.9l0,0c2.1,0,4.4,3,4.3,5.2l0,0.6C385.5,281,383.6,281.3,381.6,281.3z"/>
		<path class="st9" d="M388.8,236.7L388.8,236.7c4.4,0,8,3.6,8,8v36.1l0,0c-4.4,0-8-3.6-8-8V236.7z M392.8,228.2
			c-1.6,0-2.9-0.5-3.9-1.5c-1-1-1.5-2.2-1.5-3.7s0.5-2.7,1.5-3.7c1.1-1.1,2.4-1.6,3.9-1.6c1.6,0,2.8,0.5,3.8,1.5
			c1.1,0.9,1.6,2.1,1.6,3.6c0,1.5-0.5,2.8-1.6,3.8C395.6,227.7,394.3,228.2,392.8,228.2z"/>
		<path class="st9" d="M429.4,236.3c5.6,0,10,1.6,13.3,4.9c3.3,3.2,5,8,5,14.2v17.4c0,4.4-3.6,8-8,8l0,0v-24.5c0-4.3-1-7.5-3.1-9.6
			c-2.1-2.2-5-3.2-8.8-3.2c-4.3,0-7.7,1.3-10.2,3.8c-2.5,2.5-3.7,6.1-3.7,10.8v14.7c0,4.4-3.6,8-8,8l0,0v-36.4
			c0-4.2,3.4-7.7,7.7-7.7l0,0v6.7c1.6-2.3,3.8-4,6.5-5.2C422.8,236.9,426,236.3,429.4,236.3z"/>
		<path class="st9" d="M473.5,260.3l-9.1,8.5v12.1l0,0c-4.4,0-8-3.6-8-8v-46.1c0-4.2,3.4-7.6,7.6-7.6h0.4v39.6l16.9-15.5
			c4.6-4.2,10.6-6.5,16.8-6.5l0,0l-18.5,18.2l20.4,25.9l0,0c-6.2,0-12.1-2.8-16-7.6L473.5,260.3z"/>
	</g>
</g>
</svg>
