<?xml version="1.0" encoding="utf-8"?>
<!-- Generator: Adobe Illustrator 25.4.1, SVG Export Plug-In . SVG Version: 6.00 Build 0)  -->
<svg version="1.1"
	 id="Layer_1" xmlns:cc="http://creativecommons.org/ns#" xmlns:dc="http://purl.org/dc/elements/1.1/" xmlns:rdf="http://www.w3.org/1999/02/22-rdf-syntax-ns#" xmlns:svg="http://www.w3.org/2000/svg"
	 xmlns="http://www.w3.org/2000/svg" xmlns:xlink="http://www.w3.org/1999/xlink" x="0px" y="0px" viewBox="0 0 500 500"
	 style="enable-background:new 0 0 500 500;" xml:space="preserve">
<style type="text/css">
	.st0{fill:#66AACC;}
	.st1{fill:#006DCC;}
</style>
<g>
	<path class="st0" d="M131.1,196C78.9,66.7,105,131.3,131.1,196z"/>
	<path class="st1" d="M52.9,241.4V114.7L249.2,2l197.9,114.2v85.3L334.5,268l-114.2-65.7l29.7-17.2l82.9,48.5l82.9-48.5v-50.9
		L250,36.4l-165.9,97v90.8L52.9,241.4z"/>
	<path class="st0" d="M132.6,161.6l116.1-67.4l112,64.4l-28.6,17.1L250,127.2l-117.4,67.3V161.6z"/>
	<path class="st1" d="M447.1,258.6v126.7L250.8,498L52.9,383.8v-85.3L165.5,232l114.2,65.7L250,314.9l-82.9-48.5l-82.9,48.5v50.9
		L250,463.6l165.9-97v-90.8L447.1,258.6z"/>
	<path class="st0" d="M365.5,338.4l-116.1,67.4l-112-64.4l28.6-17.1l82.1,48.5l117.4-67.3V338.4z"/>
</g>
</svg>
