<?xml version="1.0" encoding="UTF-8"?>
<svg width="820px" height="143px" viewBox="0 0 820 143" version="1.1" xmlns="http://www.w3.org/2000/svg" xmlns:xlink="http://www.w3.org/1999/xlink">
    <!-- Generator: Sketch 48.2 (47327) - http://www.bohemiancoding.com/sketch -->
    <title>Logo Colour w background</title>
    <desc>Created with Sketch.</desc>
    <defs>
        <linearGradient x1="5.41882556%" y1="19.7231756%" x2="91.3860104%" y2="82.8125%" id="linearGradient-1">
            <stop stop-color="#F6614C" offset="0%"/>
            <stop stop-color="#FF4A36" offset="100%"/>
        </linearGradient>
        <linearGradient x1="42.8586648%" y1="0%" x2="42.8586662%" y2="100%" id="linearGradient-2">
            <stop stop-color="#F6614C" offset="0%"/>
            <stop stop-color="#FF7162" stop-opacity="0.310773324" offset="100%"/>
        </linearGradient>
        <linearGradient x1="88.59212%" y1="39.2675781%" x2="0%" y2="39.2675787%" id="linearGradient-3">
            <stop stop-color="#FF513D" offset="0%"/>
            <stop stop-color="#E64331" stop-opacity="0.69885077" offset="100%"/>
        </linearGradient>
        <path d="M34.5861259,14 C10.3042735,15.7192743 12.0498958,48.516831 34.5861259,49.033557 C52.0098237,48.888449 83.0784001,49.033557 89.8136612,49.033557 C97.6755485,49.6816275 99.8081719,62.2344536 89.8136612,63.9328859 C78.6169767,63.9328859 31.1529316,63.9328859 24.0465199,63.9328859 C16.2443296,63.6403104 12.7357936,52.6907508 22.4425236,49.033557 C17.2336527,46.1722945 16.1286409,42.4793152 15.4126888,40.9798658 C1.72108191,47.6387112 1.63709442,72.0884281 24.0465199,74 C39.4919831,74 78.180777,74 89.8136612,74 C110.547042,73.4065908 115.047372,41.8304583 89.8136612,38.966443 C73.7788446,38.966443 41.4253421,38.966443 34.5861259,38.966443 C25.5920543,37.6809197 24.5327416,25.9959889 34.5861259,24.0671141 C45.3097633,24.0671141 88.3724936,23.6603004 100.774851,24.0671141 C110.292198,26.9515782 108.76272,36.5448301 101.848368,38.7354105 C104.870888,40.5771812 107.837623,43.1832267 108.83765,46.7377831 C121.091177,41.3829436 123.470822,16.8376678 100.774851,14 C81.9927383,14 41.2497506,14 34.5861259,14 Z" id="path-4"/>
        <filter x="-1.8%" y="-3.3%" width="105.4%" height="110.0%" filterUnits="objectBoundingBox" id="filter-5">
            <feMorphology radius="1" operator="dilate" in="SourceAlpha" result="shadowSpreadOuter1"/>
            <feOffset dx="2" dy="2" in="shadowSpreadOuter1" result="shadowOffsetOuter1"/>
            <feComposite in="shadowOffsetOuter1" in2="SourceAlpha" operator="out" result="shadowOffsetOuter1"/>
            <feColorMatrix values="0 0 0 0 0   0 0 0 0 0   0 0 0 0 0  0 0 0 0.0897871377 0" type="matrix" in="shadowOffsetOuter1"/>
        </filter>
        <linearGradient x1="40.3023877%" y1="7.60671432%" x2="18.4699623%" y2="41.1079571%" id="linearGradient-6">
            <stop stop-color="#000000" offset="0%"/>
            <stop stop-color="#FFFFFF" offset="100%"/>
        </linearGradient>
        <linearGradient x1="59.6976123%" y1="92.3932857%" x2="81.5300377%" y2="58.8920429%" id="linearGradient-7">
            <stop stop-color="#000000" offset="0%"/>
            <stop stop-color="#FFFFFF" offset="100%"/>
        </linearGradient>
    </defs>
    <g id="Symbols" stroke="none" stroke-width="1" fill="none" fill-rule="evenodd">
        <g id="Logo-Colour-w-background">
            <g>
                <path d="M202.744,118.728 C190.36,118.728 177.544,113.976 168.184,105.048 L179.56,91.512 C186.328,97.56 195.112,101.592 203.176,101.592 C212.536,101.592 217.432,97.704 217.432,91.512 C217.432,85.032 211.816,83.016 203.464,79.56 L191.08,74.232 C181.432,70.2 172.072,62.424 172.072,48.744 C172.072,33.48 185.752,21.24 204.904,21.24 C215.848,21.24 226.936,25.704 234.712,33.48 L224.776,46.008 C218.584,41.112 212.536,38.376 204.904,38.376 C197.128,38.376 192.088,41.832 192.088,47.592 C192.088,53.928 198.568,56.232 206.632,59.544 L218.728,64.44 C230.104,69.192 237.592,76.536 237.592,89.928 C237.592,105.48 224.632,118.728 202.744,118.728 Z M271.888,118.728 C254.608,118.728 247.984,107.784 247.984,91.656 L247.984,61.272 L238.048,61.272 L238.048,46.584 L248.992,45.72 L251.296,26.712 L267.568,26.712 L267.568,45.72 L284.992,45.72 L284.992,61.272 L267.568,61.272 L267.568,91.512 C267.568,99.72 271.168,103.176 277.072,103.176 C279.52,103.176 282.112,102.456 284.128,101.736 L287.296,116.136 C283.408,117.432 278.368,118.728 271.888,118.728 Z M311.08,118.728 C298.264,118.728 289.912,109.512 289.912,97.416 C289.912,82.296 302.008,74.232 330.52,71.208 C330.232,64.584 327.064,59.688 318.712,59.688 C312.376,59.688 306.184,62.424 299.56,66.312 L292.504,53.352 C301.144,48.024 311.224,43.992 322.456,43.992 C340.6,43.992 350.248,54.648 350.248,75.816 L350.248,117 L334.12,117 L332.68,109.512 L332.248,109.512 C326.056,114.84 319.144,118.728 311.08,118.728 Z M317.56,103.464 C322.744,103.464 326.344,100.872 330.52,96.84 L330.52,83.16 C314.104,85.32 308.776,89.928 308.776,95.832 C308.776,101.016 312.232,103.464 317.56,103.464 Z M365.824,117 L365.824,15.768 L384.976,15.768 L384.976,75.528 L385.552,75.528 L409.312,45.72 L430.768,45.72 L406,74.952 L432.784,117 L411.472,117 L394.768,88.2 L384.976,99.288 L384.976,117 L365.824,117 Z M499.48,78.12 C499.48,81.72 499.048,85.32 498.616,87.048 L454.552,87.048 C456.568,99.144 465.496,103.608 474.424,103.608 C480.04,103.608 485.08,101.88 490.264,98.856 L496.744,110.808 C489.688,115.704 480.472,118.728 471.832,118.728 C451.672,118.728 436.12,104.904 436.12,81.432 C436.12,58.248 452.392,43.992 469.384,43.992 C489.4,43.992 499.48,58.536 499.48,78.12 Z M454.84,73.944 L482.632,73.944 C482.632,65.016 478.744,59.112 469.816,59.112 C463.336,59.112 456.856,63.288 454.84,73.944 Z M516.04,117 L516.04,22.968 L536.344,22.968 L562.408,71.784 L571.768,92.232 L572.344,92.232 C571.48,82.296 569.896,69.624 569.896,58.68 L569.896,22.968 L588.616,22.968 L588.616,117 L568.456,117 L542.392,68.184 L532.888,47.736 L532.312,47.736 C533.32,57.96 534.904,70.2 534.904,81 L534.904,117 L516.04,117 Z M639.88,118.728 C621.88,118.728 605.464,105.048 605.464,81.432 C605.464,57.672 621.88,43.992 639.88,43.992 C657.736,43.992 674.296,57.672 674.296,81.432 C674.296,105.048 657.736,118.728 639.88,118.728 Z M639.88,102.744 C649.096,102.744 654.136,94.392 654.136,81.432 C654.136,68.472 649.096,59.976 639.88,59.976 C630.52,59.976 625.624,68.472 625.624,81.432 C625.624,94.392 630.52,102.744 639.88,102.744 Z M701.224,117 L683.08,45.72 L702.664,45.72 L710.152,79.992 C711.448,87.048 712.312,93.816 713.464,101.016 L714.04,101.016 C715.336,93.816 716.632,86.76 718.36,79.992 L726.712,45.72 L743.992,45.72 L752.488,79.992 C754.216,87.048 755.512,93.816 756.952,101.016 L757.528,101.016 C758.824,93.816 759.688,87.048 760.984,79.992 L768.328,45.72 L786.616,45.72 L769.192,117 L746.152,117 L738.952,86.904 C737.656,80.28 736.36,73.8 735.064,66.168 L734.488,66.168 C733.192,73.8 732.04,80.424 730.6,87.048 L723.832,117 L701.224,117 Z" id="StakeNow" fill="#1A1A1B"/>
                <g id="Square">
                    <rect id="Rectangle-3" fill="url(#linearGradient-1)" x="0" y="1" width="149" height="142" rx="16"/>
                    <path d="M15.9860755,0.982235875 C34.1137433,0.966459726 47.1183848,0.972381101 55,1 C54.1953125,37.2421875 55.1621094,107.923828 55,143 C42.1217653,142.79318 29.1571064,142.733016 16.1060233,142.819506 L16.1060233,142.819509 C7.26966,142.878068 0.058900347,135.762252 0.000340872547,126.925889 C0.000106645651,126.890545 -1.04670747e-05,126.855201 -1.04637015e-05,126.819856 L-2.85587297e-06,16.9822312 C-2.01305611e-06,8.15111153 7.15495925,0.98992142 15.9860755,0.982235875 Z" id="Rectangle-3" fill="url(#linearGradient-2)"/>
                    <path d="M55.3806538,67.1638354 C79.5117188,66.7431641 124.754133,66.8361646 148.40918,67.1638354 C147.895218,80.3631707 147.810538,99.9958063 148.155142,126.061742 L148.155141,126.061742 C148.271954,134.897526 141.203832,142.155039 132.368048,142.271852 C132.307845,142.272648 132.247638,142.273104 132.187429,142.27322 C97.1624739,142.34084 71.5602154,142.329052 55.3806538,142.237855 C54.6193462,120.004119 55.3154297,96.1113281 55.3806538,67.1638354 Z" id="Rectangle-3" fill="url(#linearGradient-3)"/>
                </g>
                <g id="Icon" transform="translate(12.000000, 24.000000)">
                    <g id="Path-4" transform="translate(62.000000, 44.000000) rotate(-15.000000) translate(-62.000000, -44.000000) ">
                        <use fill="black" fill-opacity="1" filter="url(#filter-5)" xlink:href="#path-4"/>
                        <use stroke="#FFFFFF" stroke-width="2" fill="#FFFFFF" fill-rule="evenodd" xlink:href="#path-4"/>
                    </g>
                    <path d="M21.3230921,71.5883718 C19.9759571,68.6354509 19.7076199,64.0071657 28,61.5925229 C26.5002024,60.7346034 24.2010851,59.8665651 21.9890664,57.3973633 C20.2397695,55.4954959 19.6004982,53.3005905 18.9631406,52 C15.5705108,53.3365602 11.854269,56.6344192 9.96437634,60.575883 C7.97358082,64.7277847 7.75614479,68.7415457 8.1820608,72 C23.7596301,72 7.76053522,71.5883718 21.3230921,71.5883718 Z" id="Path-4" fill-opacity="0.15" fill="url(#linearGradient-6)" transform="translate(18.000000, 62.000000) rotate(-15.000000) translate(-18.000000, -62.000000) "/>
                    <path d="M99.6923905,14 C113.480083,14 99.537544,14.454535 115.373697,14.454535 C116.881339,18.1456081 116.465924,31.6495214 104.910498,36 C103.75853,32.0232599 102.631139,30.2816914 96,26.3238679 C96.7888976,25.9813919 101.206749,25.433601 102.788713,21.4257167 C104.132148,17.38758 101.39276,15.1329496 99.6923905,14 Z" id="Path-4" fill-opacity="0.15" fill="url(#linearGradient-7)" transform="translate(106.000000, 25.000000) rotate(-15.000000) translate(-106.000000, -25.000000) "/>
                </g>
                <path d="M801.186005,43.9480908 C793.336896,43.9480908 787,37.9712462 787,29.4740454 C787,21.0488548 793.336896,15 801.186005,15 C808.963104,15 815.299999,21.0488548 815.299999,29.4740454 C815.299999,37.9712462 808.963104,43.9480908 801.186005,43.9480908 Z M801.186005,40.5636125 C807.23486,40.5636125 811.55547,36.1709918 811.55547,29.4740454 C811.55547,22.777099 807.23486,18.3844783 801.186005,18.3844783 C795.13715,18.3844783 790.744529,22.777099 790.744529,29.4740454 C790.744529,36.1709918 795.13715,40.5636125 801.186005,40.5636125 Z M795.425191,36.4590325 L795.425191,22.2730278 L801.690076,22.2730278 C805.002544,22.2730278 807.5229,23.7132313 807.5229,26.9536892 C807.5229,28.6099233 806.658778,30.122137 804.930534,30.9142489 L808.026971,36.4590325 L803.850381,36.4590325 L801.618066,32.0664118 L799.38575,32.0664118 L799.38575,36.4590325 L795.425191,36.4590325 Z M799.38575,29.2580149 L800.897964,29.2580149 C802.482188,29.2580149 803.2743,28.3938928 803.2743,27.2417299 C803.2743,26.0895671 802.554198,25.2974552 800.969974,25.2974552 L799.38575,25.2974552 L799.38575,29.2580149 Z" id="®" fill-opacity="0.87" fill="#000000"/>
            </g>
        </g>
    </g>
</svg>