<svg width="480" height="480" viewBox="0 0 480 480" fill="none" xmlns="http://www.w3.org/2000/svg">
<path fill-rule="evenodd" clip-rule="evenodd" d="M240 0C372.479 0 480 107.496 480 239.944C480 372.393 372.479 480 240 480C107.521 480 0 372.504 0 240.056C0 107.607 107.521 0 240 0ZM240 16.375C363.454 16.375 463.733 116.63 463.733 240.056C463.733 363.481 363.454 463.736 240 463.736C116.546 463.736 16.2674 363.481 16.2674 240.056C16.2674 116.63 116.546 16.375 240 16.375Z" fill="url(#paint0_angular_803_106)"/>
<path fill-rule="evenodd" clip-rule="evenodd" d="M240.099 39.5469L265.341 155.167C268.472 169.351 275.517 182.458 285.888 192.729C296.161 203 309.174 210.141 323.458 213.271L439.008 238.508L323.361 263.745C309.174 266.875 296.063 273.918 285.79 284.286C275.517 294.557 268.374 307.567 265.244 321.848L240.099 437.371L214.856 321.75C211.725 307.567 204.68 294.459 194.309 284.188C184.036 273.918 171.023 266.777 156.739 263.647L41.1895 238.508L156.837 213.271C171.023 210.141 184.134 203.098 194.407 192.729C204.68 182.458 211.823 169.449 214.954 155.167L240.099 39.5469ZM240.099 128.756L246.752 159.275C250.665 177.078 259.569 193.316 272.386 206.228C285.301 219.14 301.542 227.943 319.349 231.856L349.875 238.508L319.349 245.159C301.542 249.072 285.301 257.973 272.386 270.787C259.471 283.699 250.567 299.937 246.752 317.74L240.099 348.259L233.445 317.74C229.532 299.937 220.628 283.699 207.811 270.787C194.896 257.875 178.655 248.974 160.848 245.159L130.322 238.508L160.848 231.856C178.655 227.943 194.896 219.042 207.811 206.228C220.726 193.316 229.63 177.078 233.445 159.275L240.099 128.756Z" fill="url(#paint1_linear_803_106)"/>
<path fill-rule="evenodd" clip-rule="evenodd" d="M240.116 211.552L249.211 227.486C249.436 227.87 249.7 228.227 250.018 228.545C250.336 228.863 250.693 229.127 251.077 229.352L267.029 238.471L251.09 247.563C250.706 247.788 250.349 248.053 250.031 248.371C249.714 248.688 249.449 249.046 249.224 249.429L240.116 265.377L231.022 249.443C230.797 249.059 230.532 248.701 230.214 248.384C229.897 248.066 229.539 247.802 229.155 247.577L213.204 238.471L229.142 229.379C229.526 229.154 229.883 228.889 230.201 228.572C230.519 228.254 230.784 227.897 231.009 227.513L240.116 211.552Z" fill="white"/>
<path fill-rule="evenodd" clip-rule="evenodd" d="M94.5031 226.829C112.008 214.412 124.525 199.356 132.935 181.757C138.901 192.512 147.604 202.778 158.753 212.848C164.033 211.577 169.119 209.72 174.008 207.275C156.112 192.708 144.377 177.651 139.488 161.03L132.935 139.13L125.894 160.933C115.626 192.61 93.9164 216.563 54.7017 231.815L38.3704 238.17L38.9571 238.366H41.2063L94.5031 226.829Z" fill="url(#paint2_linear_803_106)"/>
<path fill-rule="evenodd" clip-rule="evenodd" d="M323.435 213.239L327.738 214.217C337.517 204.635 345.145 193.783 350.915 181.757C360.303 198.574 376.145 214.315 398.246 229.567L439.025 238.464H440.492L429.54 232.304C390.031 209.915 365.29 187.33 357.467 161.128L350.915 139.228L343.874 161.03C337.713 180.095 327.347 196.423 311.406 209.719C315.318 211.088 319.328 212.359 323.435 213.239Z" fill="url(#paint3_linear_803_106)"/>
<defs>
<radialGradient id="paint0_angular_803_106" cx="0" cy="0" r="1" gradientUnits="userSpaceOnUse" gradientTransform="translate(239.024 245.161) rotate(90.2282) scale(245.163 245.163)">
<stop offset="0.159628" stop-color="white" stop-opacity="0.4"/>
<stop offset="0.353015" stop-color="white" stop-opacity="0.4"/>
<stop offset="0.410324" stop-color="white" stop-opacity="0.75"/>
<stop offset="0.502686" stop-color="white" stop-opacity="0.4"/>
<stop offset="0.588822" stop-color="white" stop-opacity="0.75"/>
<stop offset="0.645594" stop-color="white" stop-opacity="0.4"/>
<stop offset="0.839271" stop-color="white" stop-opacity="0.4"/>
<stop offset="0.99902" stop-color="white" stop-opacity="0.9"/>
</radialGradient>
<linearGradient id="paint1_linear_803_106" x1="38.9547" y1="238.458" x2="439.266" y2="238.458" gradientUnits="userSpaceOnUse">
<stop stop-color="white" stop-opacity="0.45"/>
<stop offset="0.5" stop-color="white"/>
<stop offset="1" stop-color="white" stop-opacity="0.45"/>
</linearGradient>
<linearGradient id="paint2_linear_803_106" x1="22.8584" y1="188.791" x2="173.649" y2="188.791" gradientUnits="userSpaceOnUse">
<stop stop-color="white" stop-opacity="0.26"/>
<stop offset="1" stop-color="white"/>
</linearGradient>
<linearGradient id="paint3_linear_803_106" x1="297.888" y1="188.791" x2="463.144" y2="188.791" gradientUnits="userSpaceOnUse">
<stop stop-color="white"/>
<stop offset="1" stop-color="white" stop-opacity="0.26"/>
</linearGradient>
</defs>
</svg>
