<svg width="100%" height="100%" viewBox="0 0 206 151" version="1.1" xmlns="http://www.w3.org/2000/svg">
    <rect x="0" y="0" width="205.987" height="150.114" style="fill:none;"/>
    <g>
        <path d="M146.619,13.236L154.551,12.43L154.558,23.489C154.559,24.97 155.107,26.398 156.098,27.499C159.572,31.359 168.026,40.753 171.945,45.108C173.27,46.58 174.003,48.49 174.003,50.47L174.003,91.251C174.003,92.908 172.66,94.251 171.003,94.251L130.146,94.251C128.489,94.251 127.146,92.908 127.146,91.251L127.146,50.488C127.146,48.497 127.885,46.576 129.22,45.098C133.148,40.749 141.592,31.401 145.071,27.549C146.067,26.446 146.619,25.013 146.619,23.527L146.619,13.236Z" style="fill:white;"/>
        <path d="M166.419,76.371C165.959,68.236 155.726,64.539 154.747,64.159C154.707,64.139 154.707,64.099 154.727,64.059L165.28,53.466L165.28,52.327C165.28,52.147 165.12,51.987 164.94,51.987L145.493,51.987L145.493,43.692L138.317,45.191L138.317,46.271L138.717,46.271C138.717,46.271 140.476,46.271 140.476,48.03L140.476,51.967L134.92,51.967C134.82,51.967 134.72,52.067 134.72,52.167L134.72,54.665L140.496,54.665L140.496,68.236C140.496,72.494 143.234,75.452 148.031,75.052C149.05,74.972 149.99,74.572 150.789,74.053C151.149,73.813 151.369,73.433 151.369,72.993L151.369,71.654C149.81,72.693 148.491,72.633 148.491,72.633C145.453,72.633 145.513,68.776 145.513,68.776L145.513,54.665L159.503,54.665L149.43,64.819C149.41,66.158 149.39,67.197 149.39,67.217C149.39,67.257 149.41,67.277 149.45,67.277C158.684,68.836 161.182,74.812 161.182,76.551C161.182,76.551 162.182,85.005 153.727,85.585C153.727,85.585 148.191,85.825 147.211,83.606C147.171,83.526 147.211,83.446 147.291,83.406C148.211,82.987 148.83,82.167 148.83,81.068C148.83,79.429 147.831,78.09 145.732,78.09C144.034,78.09 142.634,79.429 142.634,81.068C142.634,81.068 141.835,88.183 153.707,87.983C167.258,87.744 166.419,76.371 166.419,76.371Z" style="fill:rgb(13,97,255);fill-rule:nonzero;"/>
    </g>
    <path d="M40.243,37.963C37.125,37.135 32.809,36.554 28.984,37.712C18.861,41.649 19.791,57.966 35.413,69.669C38.271,71.81 42.353,74.096 46.195,75.477C42.989,63.705 41.085,51.153 40.243,37.963ZM177.261,8.845C181.669,8.005 186.069,7.035 190.467,5.962C192.816,5.381 195.303,5.895 197.229,7.361C199.155,8.827 200.313,11.087 200.378,13.506C201.581,61.557 191.825,103.01 161.253,131.935C160.078,133.038 158.692,133.894 157.178,134.45C132.456,143.444 107.732,143.502 83.008,134.454C81.503,133.898 80.125,133.046 78.955,131.948C67.556,121.164 59.05,108.638 52.926,94.674C21.987,90.175 0.891,62.211 6.342,38.681C10.952,18.785 32.045,19.672 39.726,20.689C39.73,18.315 39.763,15.919 39.823,13.506C39.889,11.087 41.047,8.827 42.973,7.361C44.899,5.895 47.385,5.381 49.735,5.962C72.068,11.408 94.446,14.226 116.869,14.254L120.136,14.276C128.971,14.355 137.797,14.006 146.619,13.236L146.619,23.527C146.619,25.013 146.067,26.446 145.071,27.549C141.592,31.401 133.148,40.749 129.22,45.098C127.885,46.576 127.146,48.497 127.146,50.488L127.146,91.251C127.146,92.908 128.489,94.251 130.146,94.251L171.003,94.251C172.66,94.251 174.003,92.908 174.003,91.251L174.003,50.47C174.003,48.49 173.27,46.58 171.945,45.108C168.026,40.753 159.572,31.359 156.098,27.499C155.107,26.398 154.559,24.97 154.558,23.489L154.551,12.43C161.835,11.586 169.113,10.456 176.379,9.012L177.261,8.845Z" style="fill:rgb(13,97,255);"/>
</svg>
