<?xml version="1.0" encoding="UTF-8" standalone="no"?>
<svg
   xmlns:dc="http://purl.org/dc/elements/1.1/"
   xmlns:cc="http://creativecommons.org/ns#"
   xmlns:rdf="http://www.w3.org/1999/02/22-rdf-syntax-ns#"
   xmlns:svg="http://www.w3.org/2000/svg"
   xmlns="http://www.w3.org/2000/svg"
   xmlns:sodipodi="http://sodipodi.sourceforge.net/DTD/sodipodi-0.dtd"
   xmlns:inkscape="http://www.inkscape.org/namespaces/inkscape"
   viewBox="344.2409 319.8451 99.999984 99.975987"
   width="1383.0564"
   height="1382.7245"
   preserveAspectRatio="none"
   version="1.1"
   id="svg242"
   sodipodi:docname="Original NoText.svg"
   inkscape:version="1.0.2 (e86c8708, 2021-01-15)">
  <metadata
     id="metadata246">
    <rdf:RDF>
      <cc:Work
         rdf:about="">
        <dc:format>image/svg+xml</dc:format>
        <dc:type
           rdf:resource="http://purl.org/dc/dcmitype/StillImage" />
        <dc:title></dc:title>
      </cc:Work>
    </rdf:RDF>
  </metadata>
  <sodipodi:namedview
     pagecolor="#ffffff"
     bordercolor="#666666"
     borderopacity="1"
     objecttolerance="10"
     gridtolerance="10"
     guidetolerance="10"
     inkscape:pageopacity="0"
     inkscape:pageshadow="2"
     inkscape:window-width="1492"
     inkscape:window-height="848"
     id="namedview244"
     showgrid="false"
     inkscape:zoom="0.097864871"
     inkscape:cx="3864.6698"
     inkscape:cy="2519.1046"
     inkscape:window-x="2061"
     inkscape:window-y="77"
     inkscape:window-maximized="0"
     inkscape:current-layer="g240" />
  <defs
     id="defs196" />
  <style
     id="style198">.companyName {fill:#4D4D4D;fill-opacity:1;}.icon1 {fill:#FF834F;fill-opacity:1;}.icon2 {fill:#FF4949;fill-opacity:1;}.icon3 {fill:#FFAE78;fill-opacity:1;}.icon4 {fill:#FF834F;fill-opacity:1;}.icon5 {fill:#FF4949;fill-opacity:1;}.icon6 {fill:#FFAE78;fill-opacity:1;}.icon7 {fill:#FF834F;fill-opacity:1;}.icon8 {fill:#FF4949;fill-opacity:1;}.shapeStroke-str {stroke:#313131;stroke-opacity:1;}.text {fill:#4D4D4D;fill-opacity:1;}</style>
  <g
     opacity="1"
     id="g240"
     transform="translate(-1.6104108e-5,-8.1669171)">
    <svg
       width="100"
       height="99.975998"
       x="344.24091"
       y="328.01199"
       version="1.1"
       preserveAspectRatio="none"
       viewBox="20.41044 20.569756 159.11983 159.08167"
       id="svg238">
      <g
         id="g236">
        <g
           id="g234">
          <path
             d="m 99.371,61.77 c -2.679,2.679 -6.943,2.829 -9.422,0.622 L 89.715,62.171 67.944,40.4 a 7.112,7.112 0 0 1 9.8,-10.302 l 0.257,0.245 21.528,21.528 c 2.679,2.679 2.608,7.134 -0.158,9.899 z m 23.898,56.381 -0.39,0.446 c -12.65,14.541 -34.405,15.255 -47.585,2.064 L 74.889,120.249 31.284,76.643 a 6.815,6.815 0 0 1 9.385,-9.881 l 0.254,0.242 43.606,43.606 c 7.882,7.882 21.32,7.343 28.798,-2.046 5.925,-7.333 4.919,-18.34 -1.687,-25.293 l -0.359,-0.369 -1.911,-1.911 c -2.627,-2.627 -2.608,-6.946 0.042,-9.597 2.568,-2.568 6.701,-2.666 9.345,-0.281 l 0.251,0.239 1.672,1.672 c 12.281,12.279 13.74,32.11 2.589,45.127 z m 15.638,19.735 c -6.929,6.929 -15.305,11.932 -24.65,14.533 -3.715,0.914 -7.442,-1.323 -8.341,-5.174 l -0.078,-0.378 -0.002,-0.48 c -0.476,-3.241 1.503,-6.248 4.653,-7.307 l 0.355,-0.11 c 7.428,-2.129 14.128,-6.419 19.621,-12.394 15.367,-17.274 13.768,-43.553 -2.391,-59.738 L 127.58,66.351 93.336,32.108 a 6.758,6.758 0 0 1 9.305,-9.797 l 0.252,0.24 34.244,34.244 c 22.401,22.401 23.748,58.631 1.77,81.091 z m -48.7,8.868 c -0.455,4.254 -4.464,6.838 -8.726,5.402 -8.673,-2.315 -16.696,-7.046 -23.431,-13.554 l -0.743,-0.73 -34.936,-34.936 a 6.66,6.66 0 0 1 9.162,-9.663 l 0.257,0.244 34.936,34.936 c 5.223,5.223 11.385,9.031 18.486,10.951 3.314,0.959 5.454,4.042 4.995,7.35 z m 88.676,-37.93 c -0.489,3.24 -3.424,5.384 -6.639,5.122 l -0.345,-0.037 -1.911,-0.463 c -3.107,-0.693 -4.761,-3.313 -4.496,-6.427 2.515,-19.345 -3.785,-38.618 -17.346,-52.579 L 147.495,53.779 131,37.284 a 6.829,6.829 0 0 1 9.401,-9.898 l 0.255,0.242 16.495,16.495 c 16.858,16.86 24.801,40.735 21.732,64.701 z m -24.027,48.308 c -29.834,30.306 -80.243,29.723 -110.892,0.065 l -0.923,-0.908 -15.328,-15.328 a 6.937,6.937 0 0 1 -0.121,-9.687 l 0.115,-0.118 a 6.6,6.6 0 0 1 9.079,-0.241 l 0.254,0.241 15.805,15.805 c 25.3,25.3 67.589,25.974 92.462,0.623 4.305,-4.783 8.373,-10.282 11.246,-16.019 1.676,-3.108 5.5,-4.545 8.605,-3.354 3.582,1.669 5.25,5.729 3.574,9.314 -3.351,7.172 -8.136,13.867 -13.876,19.607 z"
             data-color="1"
             class="icon1"
             id="path222" />
          <path
             d="m 100.629,100.74 c 2.766,-2.766 2.875,-7.182 0.242,-9.814 L 54.117,44.171 A 7.112,7.112 0 0 0 44.06,54.228 l 46.754,46.754 c 2.633,2.632 7.049,2.523 9.815,-0.242 z"
             data-color="2"
             class="icon2"
             id="path224" />
          <path
             opacity=".35"
             d="m 130.464,126.577 c -5.493,5.975 -12.193,10.266 -19.621,12.394 -3.355,0.946 -5.501,4.056 -5.008,7.416 l 0.002,0.48 c 0.736,4.081 4.585,6.496 8.419,5.552 9.345,-2.601 17.721,-7.604 24.65,-14.533 21.979,-22.46 20.631,-58.69 -1.77,-81.091 L 102.893,22.551 a 6.758,6.758 0 0 0 -9.557,9.557 l 34.244,34.244 c 16.618,16.14 18.406,42.776 2.884,60.225 z"
             data-color="2"
             class="icon2"
             id="path226" />
          <path
             opacity=".35"
             d="m 90.207,146.754 c 0.459,-3.308 -1.681,-6.39 -4.995,-7.35 -7.101,-1.92 -13.263,-5.729 -18.486,-10.951 L 31.789,93.516 a 6.6602388,6.6602388 0 1 0 -9.419,9.419 l 34.936,34.936 c 6.885,6.885 15.18,11.884 24.174,14.285 4.263,1.436 8.271,-1.148 8.727,-5.402 z"
             data-color="2"
             class="icon2"
             id="path228" />
          <path
             opacity=".7"
             d="m 99.371,61.77 c 2.766,-2.766 2.836,-7.22 0.157,-9.899 L 78.001,30.343 A 7.112,7.112 0 0 0 67.944,40.4 l 21.771,21.771 c 2.436,2.436 6.891,2.365 9.656,-0.401 z"
             data-color="2"
             class="icon2"
             id="path230" />
          <path
             opacity=".7"
             d="m 122.879,118.597 c 11.573,-13.006 10.223,-33.153 -2.198,-45.573 l -1.672,-1.672 c -2.627,-2.627 -6.946,-2.608 -9.597,0.042 -2.651,2.651 -2.67,6.969 -0.042,9.597 l 1.911,1.911 c 6.927,6.927 8.077,18.198 2.046,25.661 -7.479,9.39 -20.916,9.929 -28.798,2.046 L 40.923,67.004 a 6.815,6.815 0 0 0 -9.639,0 6.815,6.815 0 0 0 0,9.639 l 43.606,43.606 c 13.135,13.616 35.209,13.039 47.989,-1.652 z"
             data-color="2"
             class="icon2"
             id="path232" />
        </g>
      </g>
    </svg>
  </g>
</svg>
