<?xml version="1.0" encoding="utf-8"?>
<!-- Generator: Adobe Illustrator 25.4.1, SVG Export Plug-In . SVG Version: 6.00 Build 0)  -->
<svg version="1.1" id="Layer_1" xmlns="http://www.w3.org/2000/svg" xmlns:xlink="http://www.w3.org/1999/xlink" x="0px" y="0px"
	 viewBox="0 0 500 500" style="enable-background:new 0 0 500 500;" xml:space="preserve">
<style type="text/css">
	.st0{fill:url(#SVGID_1_);}
	.st1{opacity:0.75;}
	.st2{fill:#FFFFFF;}
</style>
<linearGradient id="SVGID_1_" gradientUnits="userSpaceOnUse" x1="-13.7847" y1="-13.0066" x2="560.52" y2="559.6041">
	<stop  offset="0" style="stop-color:#0F61FF"/>
	<stop  offset="0.16" style="stop-color:#1360FC"/>
	<stop  offset="0.3278" style="stop-color:#205CF4"/>
	<stop  offset="0.499" style="stop-color:#3555E6"/>
	<stop  offset="0.6728" style="stop-color:#524BD2"/>
	<stop  offset="0.8466" style="stop-color:#783FB9"/>
	<stop  offset="1" style="stop-color:#9F329F"/>
</linearGradient>
<rect class="st0" width="500" height="500"/>
<g class="st1">
	<path class="st2" d="M211.2,207.7v104h-23.9v-104h-37.6v-19.4h99.5v19.4H211.2z"/>
	<path class="st2" d="M325.7,273.4c-0.8-1.9-2-3.7-3.9-5.4c-1.9-1.6-4.3-3.1-7.2-4.5c-3-1.4-6.7-2.7-11.1-3.9
		c-6.8-1.9-12.8-4.1-18-6.8c-5.2-2.7-9.4-5.6-12.7-8.7c-3.3-3.2-5.8-6.7-7.4-10.5c-1.7-3.8-2.5-8-2.5-12.5c0-5.2,1.1-9.9,3.3-14.2
		s5.3-7.9,9.2-10.9c3.9-3,8.5-5.3,13.8-6.9c5.3-1.6,11.1-2.4,17.3-2.4c6.4,0,12.3,0.9,17.7,2.8c5.3,1.9,9.9,4.5,13.8,7.8
		c3.8,3.4,6.8,7.4,9,12c2.1,4.6,3.2,9.7,3.2,15.3h-23.2c-0.1-2.8-0.6-5.3-1.5-7.6c-0.9-2.3-2.2-4.3-3.9-6c-1.8-1.6-3.9-2.9-6.5-3.9
		c-2.6-0.9-5.6-1.4-9-1.4c-3.2,0-6,0.4-8.4,1.1c-2.5,0.8-4.5,1.8-6.2,3.2c-1.7,1.4-3,3.1-3.9,5c-0.9,1.9-1.3,3.9-1.3,6.1
		c0,2.3,0.6,4.4,1.7,6.3c1.2,1.9,2.8,3.5,5,5c2.2,1.5,4.9,2.9,8,4.2c3.1,1.2,6.7,2.4,10.6,3.5c4.2,1.2,8.3,2.6,12.1,4.3
		c3.8,1.7,7.4,3.6,10.6,5.8c4.9,3.6,8.7,7.8,11.6,12.6c2.9,4.8,4.3,10.3,4.3,16.6c0,5.4-1.1,10.2-3.3,14.5c-2.2,4.2-5.2,7.8-9,10.6
		c-3.8,2.9-8.4,5.2-13.7,6.7c-5.3,1.5-11.1,2.2-17.4,2.2c-6.2,0-12.2-0.9-18.3-2.8c-6-1.8-11.3-4.5-15.7-8.1
		c-4.2-3.5-7.6-7.6-10-12.4c-2.5-4.7-3.7-10.3-3.7-16.7h23.4c0.1,3.7,0.8,6.9,2,9.6c1.2,2.7,2.9,4.8,5,6.5c2.1,1.7,4.6,2.9,7.6,3.7
		c3,0.8,6.2,1.2,9.8,1.2c3.2,0,6-0.4,8.4-1.1c2.5-0.7,4.5-1.8,6.2-3.1c1.7-1.3,3-2.9,3.9-4.7c0.9-1.8,1.4-3.9,1.4-6.1
		C326.8,277.3,326.4,275.3,325.7,273.4z"/>
</g>
</svg>
