<?xml version="1.0" encoding="utf-8"?>
<!-- Generator: Adobe Illustrator 23.0.3, SVG Export Plug-In . SVG Version: 6.00 Build 0)  -->
<svg version="1.1" id="Vrstva_1" xmlns:serif="http://www.serif.com/"
	 xmlns="http://www.w3.org/2000/svg" xmlns:xlink="http://www.w3.org/1999/xlink" x="0px" y="0px" viewBox="0 0 512 512"
	 style="enable-background:new 0 0 512 512;" xml:space="preserve">
<style type="text/css">
	.st0{fill-rule:evenodd;clip-rule:evenodd;fill:#F7C800;}
	.st1{fill:#0D61FF;}
	.st2{fill:#3F3F3F;}
	.st3{fill-rule:evenodd;clip-rule:evenodd;fill:#FFFFFF;}
	.st4{fill-rule:evenodd;clip-rule:evenodd;}
</style>
<g>
	<g>
		<path class="st0" d="M246.9,165.3c85.2,0,154.3,69.1,154.3,154.3S332.1,474,246.9,474S92.6,404.9,92.6,319.7
			S161.7,165.3,246.9,165.3"/>
	</g>
	<path d="M226.5,378.7c0.1,0.4,0.9,4,3.6,7.8c1.5,2,3.3,4,5.9,5.4c2.6,1.6,5.9,2.5,9.8,2.5c3.8,0,7.1-0.9,9.9-2.4
		c4.1-2.2,6.9-5.3,8.7-7.9c1.7-2.5,2.6-4.6,2.6-4.8c0.9-2.2-0.3-4.8-2.4-5.5c-2.2-0.9-4.8,0.3-5.5,2.4l1.5,0.5l-1.5-0.5l0,0l1.5,0.5
		l-1.5-0.5c0,0.1-1.2,2.8-3.4,5.2c-1.1,1.2-2.5,2.4-4.1,3.2c-1.6,0.8-3.4,1.3-5.7,1.3c-2.4,0-4.1-0.5-5.4-1.3
		c-1.1-0.7-1.8-1.3-2.6-2.2c-1.1-1.2-1.8-2.6-2.2-3.8c-0.3-0.5-0.4-1.1-0.5-1.3c0-0.1-0.1-0.3-0.1-0.3l0,0l-1.6,0.4l1.6-0.4l0,0
		l-1.6,0.4l1.6-0.4c-0.5-2.4-2.8-3.8-5.2-3.3C227.4,374.1,226,376.3,226.5,378.7L226.5,378.7z"/>
	<path d="M186.3,413.3c-7.4,0-13.3-0.4-19.1-2.3c-9.8-3.2-17.3-9.1-21-18.9c-4.3-11.6-2.2-22.2,6.5-31.1c4.5-4.7,10.2-7.3,16.5-8.8
		c0.5-0.1,1.1-0.1,1.3,0.5c0.2,0.6-0.2,1-0.7,1.2c-3.4,1.8-6.4,4-8.7,7.1c-2.6,3.6-3.8,7.6-2.6,12.1c1.5,5.6,6.8,9.1,12.8,8.6
		c4.9-0.4,9-2.5,12.8-5.4c4.1-3.1,7.4-7,10.6-11c5.4-6.7,11.4-12.7,18.9-17c4.9-2.8,10-4.5,15.7-4.6c6.2-0.1,11.8,1.8,16.9,5.3
		c1.7,1.2,2.7,1.2,4.4,0c5.4-3.6,11.3-5.6,17.8-5.3c5.6,0.3,10.6,2.1,15.4,4.9c5.9,3.5,10.9,8.1,15.4,13.2c2.7,3.1,5.3,6.4,8.1,9.5
		c3.5,3.8,7.5,7,12.4,8.9c3.6,1.4,7.3,1.9,11,0.7c6.5-2.1,9.7-9.1,7.3-15.8c-1.5-4.3-4.6-7.4-8.4-9.9c-0.8-0.6-1.7-1-2.6-1.5
		c-0.5-0.3-0.9-0.6-0.6-1.2c0.2-0.6,0.7-0.6,1.2-0.5c12.2,2.9,21.9,10.9,24.4,23.1c2.1,10.1-0.6,19-7.5,26.5
		c-5.1,5.5-11.5,8.8-18.7,10.2c-21.4,4-40.3-1.3-56.4-16.1c-7.9-7.3-14.1-16-19.2-25.5c-0.1-0.2-0.2-0.4-0.3-0.6
		c-0.3-0.6-0.7-1.1-1.4-1.1c-0.8,0-1.1,0.5-1.4,1.1c-4.2,7.8-9.1,15.1-15.1,21.6c-6.8,7.4-14.7,13.4-24.1,17.2
		C200.5,411.8,192.9,413.3,186.3,413.3z"/>
	<path class="st0" d="M415.8,402.1l-4.5-0.8c-3.9-0.7-6.4-4.4-5.7-8.3l7.1-39.2c0.7-3.9,4.4-6.4,8.3-5.7l4.5,0.8
		c3.9,0.7,6.4,4.4,5.7,8.3l-7.1,39.2C423.3,400.3,419.6,402.8,415.8,402.1z"/>
	<circle class="st0" cx="431.4" cy="398.3" r="26.4"/>
	<g>
		<path class="st1" d="M489,294.5c-1-18.4-24.2-26.8-26.4-27.6c-0.1,0-0.1-0.1,0-0.2l23.9-24v-2.6c0-0.4-0.4-0.8-0.8-0.8h-44v-14.4
			l0,0v-4.3l-16.2,3.4v2.4h0.9c0,0,4,0,4,4v8.9h-12.6c-0.2,0-0.5,0.2-0.5,0.5v5.7h13.1c0,0,0,6,0,13v17.7c0,9.6,6.2,16.3,17,15.4
			c2.3-0.2,4.4-1.1,6.2-2.3c0.8-0.5,1.3-1.4,1.3-2.4v-3c-3.5,2.4-6.5,2.2-6.5,2.2c-6.9,0-6.7-8.7-6.7-8.7v-31.9h31.7l-22.8,23
			c0,3-0.1,5.4-0.1,5.4c0,0.1,0,0.1,0.1,0.1c20.9,3.5,26.5,17,26.5,21c0,0,2.3,19.1-16.9,20.4c0,0-12.5,0.5-14.7-4.5
			c-0.1-0.2,0-0.4,0.2-0.5c2.1-0.9,3.5-2.8,3.5-5.3c0-3.7-2.3-6.7-7-6.7c-3.8,0-7,3-7,6.7c0,0-1.8,16.1,25.1,15.6
			C490.9,320.2,489,294.5,489,294.5z"/>
		<rect x="456.3" y="215.1" class="st1" width="6.6" height="119.8"/>
	</g>
	<path d="M391,163.4c-9.7-3-24.3-0.2-32.8,2.3c-17.8,5.4-21.3,7.5-28.8,10.2c-0.2-8.1-7-97-7.1-112.5c-0.1-10.3-7.4-19-17.5-20.7
		c-31.5-5.4-80.2-9-136.1,6.1c-43.6,11.7-76.9,30.8-99.5,46.7c-7.9,5.6-11,15.8-7.5,24.9c5.8,15.1,30.6,81.2,36.1,95.8
		c-10.7,0-19.2-0.4-29.9,1.5c-17.1,3.1-25.9,7.9-35.7,18.6c-11.5,12.6-12.8,30.5-0.3,42.1c12,11.1,29,13.9,44.7,13.6
		c10.6-0.2,18.4,0.8,18.4,0.8s1.5-7.4,2-9.7c1.4-5.6,4.6-17.5,10.1-26.9c9.2-15.5,47.1-8.4,124.6-9.9c8.2-0.2,16.3-0.2,24.1-0.3
		c16.5-0.2,32-0.7,45-2.5c34.2-4.9,85.7-22.2,104.8-46.7C414.8,184.9,411.2,169.7,391,163.4z"/>
	<path class="st2" d="M200.2,156c-6.9,1.5-13.8,2.8-20.7,4.4c-29.4,6.5-83.9,32-83,35.3c1.3,4.8,3.2,10.8,4.3,14.2
		c0.7,2.1,2,4,3.9,5.2c0.7,0.5,1.4,0.8,1.9,0.8c37.6,1.1,75.2,2.2,112.8,2.7c31.9,0.4,63.4-2.7,94.5-10c4.5-1.1,6.3-2.3,4.9-10.6
		c-3.5-21.1-4.3-41.9-4.3-41.9S237.5,146.5,200.2,156z"/>
	<g>
		<g>
			<path class="st3" d="M305.9,281.3c17.6,0,29.5,15.3,29.5,34.9c0,27.6-2.8,33.8-29.5,34.9c-27.2-2.1-32.2-1.1-32.2-34.9
				C273.6,297.2,288.3,281.3,305.9,281.3z"/>
			<path class="st4" d="M312.6,306.5c8.8-0.9,16.4,2,19.8,6.1c1,1.2,2.9,3.6,2.9,3.6c0.2,3.1,0,8.8,0,13.9c0,0.1,0,0.2,0,0.3
				c0,11.5-7.9,20.3-20.7,20.7c-0.7,0-2.3,0-3,0.1c-12,0-19.2-1.2-19.2-1.2s-2.6-8.9-2.6-19.2C289.9,317.8,300.7,307.7,312.6,306.5z
				"/>
		</g>
		<circle class="st3" cx="321.4" cy="323.8" r="7.9"/>
	</g>
	<g>
		<g>
			<path class="st3" d="M190.4,281.3c17.6,0,29.5,15.3,29.5,34.9c0,27.6-2.8,33.8-29.5,34.9c-27.2-2.1-32.2-1.1-32.2-34.9
				C158.1,297.2,172.8,281.3,190.4,281.3z"/>
			<path class="st4" d="M197.2,306.5c8.8-0.9,16.4,2,19.8,6.1c1,1.2,2.9,3.6,2.9,3.6c0.2,3.1,0,8.8,0,13.9c0,0.1,0,0.2,0,0.3
				c0,11.5-7.9,20.3-20.7,20.7c-0.7,0-2.3,0-3,0.1c-12,0-19.2-1.2-19.2-1.2s-2.6-8.9-2.6-19.2C174.4,317.8,185.2,307.7,197.2,306.5z
				"/>
		</g>
		<circle class="st3" cx="205.9" cy="323.8" r="7.9"/>
	</g>
</g>
</svg>
