<?xml version="1.0" encoding="utf-8"?>
<!-- Generator: Adobe Illustrator 25.4.1, SVG Export Plug-In . SVG Version: 6.00 Build 0)  -->
<svg version="1.1" id="Layer_1" xmlns="http://www.w3.org/2000/svg" xmlns:xlink="http://www.w3.org/1999/xlink" x="0px" y="0px"
	 viewBox="0 0 500 500" style="enable-background:new 0 0 500 500;" xml:space="preserve">
<style type="text/css">
	.st0{fill:url(#SVGID_1_);}
	.st1{opacity:0.75;}
	.st2{fill:#FFFFFF;}
</style>
<linearGradient id="SVGID_1_" gradientUnits="userSpaceOnUse" x1="-13.7847" y1="-13.0066" x2="560.52" y2="559.6041">
	<stop  offset="0" style="stop-color:#0F61FF"/>
	<stop  offset="0.16" style="stop-color:#1360FC"/>
	<stop  offset="0.3278" style="stop-color:#205CF4"/>
	<stop  offset="0.499" style="stop-color:#3555E6"/>
	<stop  offset="0.6728" style="stop-color:#524BD2"/>
	<stop  offset="0.8466" style="stop-color:#783FB9"/>
	<stop  offset="1" style="stop-color:#9F329F"/>
</linearGradient>
<rect class="st0" width="500" height="500"/>
<g class="st1">
	<path class="st2" d="M109.3,207.7v104H85.4v-104H47.8v-19.4h99.5v19.4H109.3z"/>
	<path class="st2" d="M184.6,275.3v36.4h-23.9V188.2h23.9v56.5l11.2-15.1l30-41.5H255l-41.5,54.6l43.1,68.8h-28.3L197.7,261
		L184.6,275.3z"/>
	<path class="st2" d="M341.9,230.6c-1,3-2.4,5.7-4.2,8.2c-1.4,1.9-3.1,3.6-5,5.2c-1.9,1.6-4,3-6.3,4.2c2.1,1,4.1,2.2,5.9,3.4
		s3.5,2.7,5,4.3c2.7,2.8,4.8,6.1,6.4,9.8c1.5,3.7,2.3,7.8,2.3,12.2c0,5.8-1.1,10.9-3.2,15.3s-5,8.1-8.7,11c-3.7,3-8.1,5.3-13.1,6.8
		c-5,1.5-10.5,2.3-16.3,2.3c-5.9,0-11.3-0.8-16.4-2.3c-5.1-1.5-9.5-3.8-13.2-6.8c-3.7-2.9-6.7-6.6-8.8-11s-3.2-9.5-3.2-15.3
		c0-3.4,0.5-6.6,1.4-9.6c0.9-3,2.2-5.8,3.9-8.4c1.7-2.5,3.7-4.7,6.1-6.7c2.4-2,5.1-3.7,8.1-5.1c-2.5-1.3-4.8-2.9-6.9-4.7
		c-2.1-1.8-3.8-3.8-5.2-6c-1.5-2.3-2.7-4.9-3.5-7.6c-0.8-2.8-1.2-5.7-1.2-8.7c0-5.6,1-10.5,2.9-14.8c1.9-4.3,4.6-7.9,8.1-10.8
		c3.4-2.9,7.4-5.2,12.2-6.7c4.7-1.5,9.9-2.2,15.5-2.2c5.6,0,10.8,0.7,15.5,2.2c4.7,1.5,8.9,3.7,12.4,6.7c3.4,2.9,6.1,6.5,8.1,10.8
		c2,4.3,2.9,9.2,2.9,14.8C343.4,224.4,342.9,227.6,341.9,230.6z M321.1,268.7c-0.8-2.3-2-4.2-3.6-5.8c-1.6-1.6-3.5-2.8-5.6-3.6
		c-2.2-0.8-4.6-1.3-7.3-1.3s-5.2,0.4-7.3,1.3c-2.2,0.8-4,2.1-5.6,3.6c-1.5,1.6-2.7,3.6-3.6,5.8c-0.8,2.3-1.3,4.8-1.3,7.6
		c0,2.9,0.5,5.6,1.4,7.9c0.9,2.3,2.2,4.2,3.8,5.8c1.5,1.5,3.4,2.6,5.5,3.3c2.1,0.8,4.5,1.1,7.2,1.1c2.6,0,5-0.4,7.1-1.2
		c2.1-0.8,4-2,5.6-3.6c1.5-1.6,2.7-3.5,3.6-5.7c0.9-2.2,1.3-4.8,1.3-7.6S321.9,271,321.1,268.7z M318.8,215.4
		c-0.7-2-1.8-3.8-3.1-5.3c-1.4-1.4-3-2.5-4.9-3.3c-1.9-0.8-4-1.2-6.4-1.2c-2.4,0-4.6,0.4-6.4,1.1s-3.4,1.9-4.7,3.3
		c-1.3,1.4-2.3,3.2-2.9,5.2c-0.7,2.1-1,4.3-1,6.8c0,2.5,0.3,4.8,1,6.9c0.7,2.1,1.7,3.8,3.1,5.3c1.3,1.5,2.9,2.6,4.8,3.4
		c1.9,0.8,4,1.2,6.4,1.2s4.5-0.4,6.4-1.2c1.9-0.8,3.4-2,4.7-3.4c1.3-1.5,2.3-3.2,3-5.3c0.7-2.1,1.1-4.3,1.1-6.8
		C319.9,219.7,319.5,217.4,318.8,215.4z"/>
	<path class="st2" d="M428.3,282.8c-0.7-1.1-1.8-2.1-3.4-3.1c-1.7-0.9-3.9-1.8-6.7-2.5c-2.8-0.8-6.3-1.6-10.5-2.4
		c-5.4-1.1-10.3-2.4-14.7-4c-4.4-1.6-8.2-3.6-11.4-5.9c-3.2-2.3-5.6-4.9-7.4-7.9c-1.8-3-2.7-6.4-2.7-10.3c0-3.8,0.9-7.4,2.7-10.9
		c1.8-3.4,4.4-6.5,7.8-9.1c3.4-2.6,7.5-4.7,12.4-6.2c4.9-1.5,10.3-2.3,16.4-2.3c6.4,0,12.1,0.7,17.2,2.2c5.1,1.5,9.4,3.5,13,6.1
		c3.5,2.7,6.2,5.8,8.1,9.4c1.9,3.6,2.8,7.5,2.8,11.8h-23.6c0-1.5-0.3-3-0.8-4.3c-0.5-1.3-1.3-2.5-2.3-3.6c-1.4-1.4-3.3-2.5-5.7-3.4
		c-2.4-0.8-5.3-1.3-8.7-1.3c-2.9,0-5.4,0.3-7.5,0.8c-2.1,0.6-3.9,1.4-5.3,2.4c-1.2,0.9-2.2,2-2.8,3.2c-0.7,1.2-1,2.5-1,3.9
		s0.3,2.6,0.8,3.8c0.6,1.2,1.6,2.2,3.1,3.1c1.4,1,3.4,1.8,5.8,2.6c2.5,0.8,5.7,1.4,9.5,2c5.5,0.9,10.7,2.1,15.4,3.5
		c4.7,1.4,8.8,3.2,12.3,5.4c3.4,2.3,6.1,5,8.1,8.2c2,3.2,2.9,7,2.9,11.4c0,4.1-1,7.8-2.9,11.2c-1.9,3.4-4.7,6.4-8.3,8.9
		c-3.6,2.5-8,4.4-13.1,5.8c-5.1,1.4-10.8,2.1-17,2.1c-6.9,0-13-0.9-18.3-2.7c-5.3-1.8-9.7-4.2-13.3-7.1c-3.6-2.9-6.3-6.2-8.1-9.9
		c-1.8-3.7-2.8-7.4-2.8-11.1h22.5c0.2,2.5,0.8,4.6,2,6.4c1.2,1.8,2.7,3.2,4.6,4.3c1.9,1.1,4,2,6.4,2.5c2.4,0.5,4.9,0.8,7.4,0.8
		c3.1,0,5.7-0.3,8-0.8c2.3-0.5,4.2-1.3,5.6-2.2c1.4-0.9,2.5-1.9,3.2-3.1c0.7-1.2,1.1-2.5,1.1-3.9
		C429.3,285.1,428.9,283.8,428.3,282.8z"/>
</g>
</svg>
