<svg width="3226" height="820" viewBox="0 0 3226 820" fill="none" xmlns="http://www.w3.org/2000/svg">
<path d="M889.128 511.676V371.811H837.447V287.058H890.505L896.01 198.855H993.169V287.058H1130.98V371.811H993.169V508.245C993.169 543.391 1004.88 559.228 1031.77 559.228C1058.65 559.228 1064.84 539.94 1064.84 532.36H1139.26V579.215C1124.8 615.737 1088.95 645.357 1023.51 645.357C938.076 645.357 889.148 595.052 889.148 511.696L889.128 511.676Z" fill="#282C33"/>
<path d="M1422.42 434.522L1363.16 635.025H1269.45L1165.41 335.308V287.077H1259.12L1323.2 494.481L1385.92 287.077H1471.35L1536.11 493.783L1598.13 287.077H1686.33V333.234L1579.54 635.025H1485.83L1422.44 434.522H1422.42Z" fill="#282C33"/>
<path d="M1719.38 462.069C1719.38 360.102 1785.53 276.726 1902.67 276.726C2019.82 276.726 2071.48 347.696 2071.48 440.706C2071.48 464.822 2066.65 484.808 2066.65 484.808H1824.12C1830.33 531.662 1857.89 561.981 1908.87 561.981C1970.89 561.981 1983.29 530.286 1983.29 530.286H2064.6V576.443C2064.6 576.443 2030.83 645.338 1906.82 645.338C1782.81 645.338 1719.4 565.412 1719.4 462.05L1719.38 462.069ZM1971.57 422.097C1971.57 389.025 1948.83 359.404 1901.97 359.404C1855.12 359.404 1834.45 385.594 1826.18 422.097H1971.57Z" fill="#282C33"/>
<path d="M2121.07 462.069C2121.07 360.102 2187.21 276.726 2304.35 276.726C2421.5 276.726 2473.16 347.696 2473.16 440.706C2473.16 464.822 2468.34 484.808 2468.34 484.808H2225.81C2232.01 531.662 2259.57 561.981 2310.56 561.981C2372.57 561.981 2384.98 530.286 2384.98 530.286H2466.28V576.443C2466.28 576.443 2432.51 645.338 2308.5 645.338C2184.5 645.338 2121.09 565.412 2121.09 462.05L2121.07 462.069ZM2373.25 422.097C2373.25 389.025 2350.51 359.404 2303.66 359.404C2256.8 359.404 2236.14 385.594 2227.86 422.097H2373.25Z" fill="#282C33"/>
<path d="M2523.47 461.391C2523.47 357.349 2584.78 276.726 2680.57 276.726C2730.87 276.726 2768.07 298.088 2792.88 333.913V118.251H2896.23V635.025H2799.77L2793.56 585.418C2770.82 621.94 2729.48 645.357 2678.49 645.357C2580.65 645.357 2523.47 562.679 2523.47 461.391ZM2792.88 460.693C2792.88 409.709 2759.81 370.435 2710.21 370.435C2656.47 370.435 2627.53 410.407 2627.53 461.391C2627.53 512.374 2656.47 551.649 2710.21 551.649C2759.81 551.649 2792.88 512.374 2792.88 460.693Z" fill="#282C33"/>
<path d="M176.232 400.908V564.598C176.232 616.88 218.609 659.276 270.91 659.276H303.788V474.534L176.232 400.908Z" fill="#282C33"/>
<path d="M176.232 314.12V343.838L363.592 452.008V659.276H389.471V437.081L176.232 314.12Z" fill="#282C33"/>
<path d="M192.186 227.972C187.359 235.164 183.521 243.053 180.807 251.467L449.275 406.278L449.391 406.336V473.584L449.275 473.526V659.276H554.905C599.24 659.276 636.44 628.802 646.734 587.667L475.251 488.53V421.282L649.583 522.047V492.058L192.186 227.972Z" fill="#282C33"/>
<path d="M649.583 280.583C649.583 228.301 607.188 185.905 554.905 185.905H270.891C263.04 185.905 255.441 186.875 248.152 188.678L649.583 420.449V280.583Z" fill="#282C33"/>
</svg>
