<?xml version="1.0" encoding="utf-8"?>
<!-- Generator: Adobe Illustrator 26.1.0, SVG Export Plug-In . SVG Version: 6.00 Build 0)  -->
<svg version="1.1" id="Calque_1" xmlns="http://www.w3.org/2000/svg" xmlns:xlink="http://www.w3.org/1999/xlink" x="0px" y="0px"
	 viewBox="0 0 1000 1000" style="enable-background:new 0 0 1000 1000;" xml:space="preserve">
<style type="text/css">
	.st0{fill:#0E74FF;}
	.st1{fill:#EB3448;}
</style>
<g>
	<g>
		<g>
			<g>
				<path class="st0" d="M214.9,673.3h-41.7v-24.6h113.6v24.6h-41.7v105.8h-30.2V673.3z"/>
				<path class="st0" d="M381.6,756.7l-16.5,22.3h-72.9v-17.5l51-60.3h-49.7l16.5-22.3h70v17.5l-51,60.3H381.6z"/>
				<path class="st0" d="M527.6,648.7l-56.4,130.4h-29.8l-56.2-130.4h32.6l39.7,93.1l40.2-93.1H527.6z"/>
				<path class="st0" d="M521.4,729c0-30.2,23.3-51.6,55.1-51.6c31.8,0,54.9,21.4,54.9,51.6c0,30.2-23.1,51.6-54.9,51.6
					C544.7,780.6,521.4,759.2,521.4,729z M602,729c0-17.3-11-27.8-25.5-27.8c-14.5,0-25.7,10.4-25.7,27.8s11.2,27.7,25.7,27.7
					C591.1,756.7,602,746.3,602,729z"/>
				<g>
					<path class="st0" d="M707.6,753.8c-3.2,2.4-7.4,3.7-11.7,3.7c-7.8,0-12.5-4.7-12.5-13.2v-40.8h25v-22.3h-25v-24.4h-29v24.4
						h-33.9c7.3,6,13.2,13.6,16.9,22.3h17v41.2c0,23.8,13.8,35.9,37.4,35.9c8.9,0,17.7-2,23.7-6.3L707.6,753.8z"/>
				</g>
				<path class="st0" d="M826.2,737.2h-75.8c2.8,12.5,13.4,20.1,28.7,20.1c10.6,0,18.3-3.2,25.1-9.7l15.5,16.8
					c-9.3,10.6-23.3,16.2-41.3,16.2c-34.6,0-57.2-21.8-57.2-51.6c0-30,22.9-51.6,53.4-51.6c29.4,0,52.1,19.7,52.1,52
					C826.8,731.6,826.4,734.8,826.2,737.2z M750.1,720.2h49.4c-2-12.7-11.5-20.9-24.6-20.9C761.6,699.4,752.1,707.4,750.1,720.2z"/>
			</g>
		</g>
	</g>
	<path class="st0" d="M694.5,504.5h-389c-5.6,0-10.6-3.2-13-8.2c-2.4-5.1-1.7-10.9,1.9-15.3l14.2-17.1c2.7-3.3,6.8-5.2,11.1-5.2
		h17.6v17.7h-16.1l-8.7,10.5h374.9l-8.7-10.5h-16.1v-17.7h17.6c4.3,0,8.3,1.9,11.1,5.2l14.2,17.1c3.6,4.3,4.3,10.2,1.9,15.3
		C705.1,501.4,700.1,504.5,694.5,504.5z"/>
	<path class="st1" d="M506.8,461c4.3-1.8,8.3-4.6,11.8-7.9l0,0l0.3-0.2l0,0l0.2-0.2l0.1-0.1l0.2-0.2l0.1-0.1l0.5-0.6l0.1-0.1
		l0.2-0.2l0.1-0.1l0.2-0.2l0.1-0.1c3.2-3.4,6.1-7.3,8.6-11.4l1.7-0.1c1.5-0.1,2.9-0.4,4.3-0.9c-1,2-2.1,3.9-3.3,5.7
		c-1.3,2.1,0.8,4.6,3.1,3.7l29.1-11.8c3.7-1.5,6.3-4.2,7.8-7.9c1.8-4.4,2.6-9.1,2.8-13.9v0l0-0.3v0l0-0.3v-0.1v-0.3l0-0.1l0-0.8
		v-0.2v-0.2l0-0.1l0-0.2v-0.1c-0.1-4.7-0.8-9.4-2-14.2l1.1-1.3c1-1.1,1.8-2.3,2.4-3.6c0.7,2.1,1.2,4.2,1.7,6.4
		c0.5,2.4,3.8,2.7,4.8,0.5l12.2-29c1.5-3.7,1.5-7.4,0-11.1c-1.8-4.3-4.6-8.3-7.9-11.8l0,0l-0.2-0.3l0,0l-0.2-0.2l-0.1-0.1l-0.2-0.2
		l-0.1-0.1l-0.6-0.6l-0.1-0.1l-0.2-0.2l-0.1-0.1l-0.2-0.2l-0.1-0.1c-3.4-3.2-7.3-6.1-11.4-8.6l-0.1-1.7c-0.1-1.5-0.4-2.9-0.9-4.3
		c1.9,1,3.8,2.1,5.7,3.3c2.1,1.3,4.6-0.8,3.7-3.1L570.1,302c-1.5-3.7-4.2-6.3-7.9-7.8c-4.4-1.8-9.1-2.6-13.9-2.8h0l-0.3,0h0l-0.3,0
		h-0.1h-0.3l-0.1,0l-0.8,0h-0.2H546l-0.1,0l-0.2,0h-0.1c-4.7,0.1-9.4,0.8-14.2,2l-1.3-1.1c-1.1-1-2.3-1.8-3.6-2.4
		c2.1-0.7,4.2-1.2,6.4-1.7c2.4-0.5,2.7-3.8,0.5-4.8l-29-12.2c-3.7-1.6-7.4-1.5-11.1,0c-4.3,1.8-8.3,4.6-11.8,7.9l0,0l-0.3,0.2l0,0
		l-0.2,0.2l-0.1,0.1l-0.2,0.2l-0.1,0.1l-0.6,0.5l-0.1,0.1l-0.2,0.2l-0.1,0.1l-0.2,0.2l-0.1,0.1c-3.2,3.4-6.1,7.3-8.6,11.4l-1.7,0.1
		c-1.5,0.1-2.9,0.4-4.3,0.9c1-2,2.1-3.9,3.3-5.7c1.3-2.1-0.8-4.6-3.1-3.7L435.9,296c-3.7,1.5-6.3,4.2-7.8,7.9
		c-1.8,4.4-2.6,9.1-2.8,13.9v0l0,0.3v0l0,0.3v0.1v0.3l0,0.1l0,0.8v0.2v0.2l0,0.1l0,0.2v0.1c0.1,4.7,0.8,9.4,2,14.2l-1.1,1.3
		c-1,1.1-1.8,2.3-2.4,3.6c-0.7-2.1-1.2-4.2-1.7-6.4c-0.5-2.4-3.8-2.7-4.8-0.5l-12.2,29c-1.5,3.7-1.5,7.4,0,11.1
		c1.8,4.3,4.6,8.3,7.9,11.8l0,0l0.2,0.3l0,0l0.2,0.2l0.1,0.1l0.2,0.2l0.1,0.1l0.6,0.6l0.1,0.1l0.2,0.2l0.1,0.1l0.2,0.2l0.1,0.1
		c3.4,3.2,7.3,6.1,11.4,8.6l0.1,1.7c0.1,1.5,0.4,2.9,0.9,4.3c-1.9-1-3.8-2.1-5.7-3.3c-2.1-1.3-4.6,0.8-3.7,3.1l11.8,29.1
		c1.5,3.7,4.2,6.3,7.9,7.8c4.4,1.8,9.1,2.6,13.9,2.8h0l0.3,0h0l0.3,0h0.1h0.3l0.1,0l0.8,0h0.2h0.2l0.1,0l0.2,0h0.1
		c4.7-0.1,9.4-0.8,14.2-2l1.3,1.1c1.1,1,2.4,1.8,3.6,2.4c-2.1,0.7-4.2,1.2-6.4,1.7c-2.4,0.5-2.7,3.8-0.5,4.8l29,12.2
		C499.4,462.6,503.2,462.6,506.8,461z M545.5,403.7l0,0.3l0,0.2c0,0,0,0.1,0,0.2l0,0.1c-0.1,5.8-0.9,11.1-2.3,15.7c0,0,0,0.1,0,0.1
		l-0.4,1.1c0,0,0,0.1,0,0.1l-0.3,0.7c-0.9,2.4-2,4.6-3.3,6.5c-0.6,1-1.3,1.9-2.1,2.8c-1.4,1.6-3,2.6-5,3c-0.5,0.1-0.9,0.2-1.4,0.2
		l-9.7,0.5c-2.3,0.1-4.3-1-5.5-3c-1.2-2-1-4.4,0.3-6.4l0.1-0.1c0,0,0.1-0.1,0.1-0.1l0.6-0.9c0,0,0-0.1,0.1-0.1l0.4-0.7
		c0,0,0-0.1,0.1-0.1l0.2-0.3c0,0,0.1-0.1,0.1-0.1l0.1-0.2c0,0,0.1-0.1,0.1-0.1l0.2-0.3c2.7-4.7,4.5-10,5.7-16.2
		c0.1-0.5,0.2-1,0.2-1.4l0.1-0.8c0-0.1,0-0.1,0-0.2c0-0.2,0-0.3,0.1-0.5c0.4-2.9,0.7-6,0.8-9.3c0.1-3.7,3-6.7,6.6-6.9l4.9-0.3
		c0.1,0,0.2,0,0.3,0c1.4,0,2.7,0.5,3.9,1.6c3.4,3.1,5,10,5.1,13.6l0,0.3l0,0.3c0,0,0,0.1,0,0.1L545.5,403.7l2.4,0L545.5,403.7z
		 M569.5,375.4l0.2,0.4c1.1,2.4,1.8,4.7,2.3,7c0.2,1.1,0.4,2.2,0.5,3.4c0.1,2.1-0.3,4-1.4,5.6c-0.3,0.4-0.5,0.8-0.9,1.1l-6.5,7.2
		c-1.5,1.7-3.8,2.4-6,1.8c-2.3-0.6-3.9-2.4-4.3-4.7l0-0.3c0,0,0-0.1,0-0.1l0-0.2c0,0,0-0.1,0-0.1l-0.1-0.3c0,0,0-0.1,0-0.1l-0.2-1.1
		c0,0,0-0.1,0-0.2l-0.2-0.8c0,0,0-0.1,0-0.1l-0.1-0.4c-1.4-5.2-3.9-10.3-7.4-15.4c-0.3-0.4-0.6-0.8-0.8-1.2l-0.5-0.7
		c0,0-0.1-0.1-0.1-0.1c-0.1-0.1-0.2-0.3-0.3-0.4c-1.8-2.3-3.8-4.7-6-7.1c-2.5-2.7-2.6-6.8-0.2-9.6c0,0,0.1-0.1,0.1-0.1l3.2-3.6
		c0.1-0.1,0.1-0.1,0.2-0.2c1-1,2.2-1.6,3.8-1.6c4.6-0.2,10.6,3.5,13.2,6.1l0.4,0.4c0,0,0.1,0.1,0.1,0.1l1,1c4,4.1,7.2,8.4,9.4,12.7
		c0,0,0.1,0.1,0.1,0.1l0.7,1.3C569.5,375.3,569.5,375.3,569.5,375.4z M536.8,320.6c0,0,0.1,0,0.2,0l0.5,0l0.2,0c0,0,0.1,0,0.1,0
		l0.2,0l0.2,0l0.1,0c0,0,0,0,0,0l0.2,0c5.8,0.1,11.1,0.9,15.7,2.3c0,0,0.1,0,0.1,0l1.1,0.4c0,0,0.1,0,0.1,0l0.8,0.3c0,0,0,0,0,0
		c2.4,0.9,4.5,2,6.5,3.3c1,0.6,1.9,1.3,2.8,2.1c1.6,1.4,2.6,3,3,5c0.1,0.5,0.2,0.9,0.2,1.4l0.5,9.7c0.1,2.3-1,4.3-3,5.5
		c-2,1.2-4.4,1-6.4-0.3l-0.1-0.1c0,0-0.1-0.1-0.2-0.1l-0.2-0.1c0,0-0.1,0-0.1-0.1l-0.3-0.2c0,0,0,0,0,0l-0.2-0.2
		c0,0-0.1-0.1-0.1-0.1l-0.6-0.4c0,0-0.1-0.1-0.1-0.1l-0.4-0.2c0,0-0.1,0-0.1,0l-0.2-0.1c0,0-0.1-0.1-0.1-0.1l-0.3-0.2
		c-4.7-2.7-10-4.5-16.1-5.7c-0.5-0.1-1-0.2-1.4-0.2l-0.8-0.1c-0.1,0-0.1,0-0.2,0c-0.2,0-0.3,0-0.5-0.1c-2.9-0.4-6-0.7-9.3-0.8
		c-3.7-0.1-6.7-3-6.9-6.6l-0.4-5c0-0.1,0-0.2,0-0.3c0-1.4,0.5-2.7,1.6-3.9c3.1-3.4,10-5,13.6-5.1L536.8,320.6z M493.4,308.3l0.4-0.4
		c0,0,0.1,0,0.1-0.1l0.5-0.5c0,0,0,0,0.1-0.1l0.5-0.5c4.1-4,8.4-7.2,12.8-9.5l1.3-0.7c0,0,0.1,0,0.1-0.1l0.4-0.2
		c2.4-1.1,4.7-1.8,7-2.3c1.1-0.2,2.2-0.4,3.4-0.5c2.1-0.1,4,0.3,5.6,1.4c0.4,0.3,0.8,0.5,1.1,0.9l7.2,6.5c1.7,1.5,2.4,3.8,1.8,6
		c-0.6,2.3-2.4,3.9-4.7,4.3l-0.2,0c0,0-0.1,0-0.1,0l-0.2,0c-0.1,0-0.1,0-0.2,0l-0.2,0c-0.1,0-0.1,0-0.2,0l-1.1,0.3c0,0-0.1,0-0.1,0
		l-0.7,0.2c0,0-0.1,0-0.1,0l-0.4,0.1c-5.2,1.5-10.3,3.9-15.3,7.3c0,0-0.1,0-0.1,0.1c-0.4,0.3-0.8,0.6-1.1,0.8l-0.1,0.1
		c0,0-0.1,0-0.1,0.1l-0.5,0.4c0,0-0.1,0.1-0.1,0.1c-0.1,0.1-0.3,0.2-0.4,0.3c-2.3,1.8-4.7,3.8-7.1,6c-2.7,2.5-6.8,2.6-9.6,0.2
		l-3.7-3.2c0,0,0,0,0,0c-0.1-0.1-0.1-0.1-0.2-0.2c-1-1-1.6-2.2-1.6-3.8C487.2,317,490.9,311,493.4,308.3z M486,329.3l3.8,3.3
		c2.3,2,5,2.9,7.8,2.9c3,0,6-1.1,8.3-3.3c2.2-2.1,4.5-4,6.6-5.6c1.1,0.9,2.3,1.7,3.6,2.2c0,0.5,0,0.9,0,1.4l0.4,5
		c0.4,6.1,5.4,10.9,11.7,11.1c3.1,0.1,6,0.3,8.7,0.7c0.1,1.4,0.4,2.8,1,4.1c-0.3,0.3-0.7,0.6-1,1l-3.3,3.7c0,0-0.1,0.1-0.1,0.1
		c-4,4.7-3.8,11.5,0.4,16.1c2.1,2.2,4,4.5,5.6,6.6c-0.9,1.1-1.7,2.3-2.2,3.6c-0.5,0-0.9,0-1.4,0l-5,0.3c-6.1,0.4-10.9,5.4-11.1,11.7
		c-0.1,3.1-0.3,6-0.7,8.7c-1.4,0.1-2.8,0.4-4.1,1c-0.3-0.3-0.6-0.7-1-1l-3.7-3.3c0,0-0.1-0.1-0.1-0.1c-4.7-4-11.6-3.8-16.1,0.4
		c-2.2,2.1-4.5,4-6.6,5.6c-1.1-0.9-2.3-1.7-3.6-2.2c0-0.5,0-0.9,0-1.4l-0.3-5c-0.4-6.1-5.4-10.9-11.7-11.1c-3-0.1-6-0.3-8.7-0.7
		c-0.1-1.4-0.4-2.8-1-4.1c0.3-0.3,0.7-0.6,1-1l3.3-3.7c0,0,0.1-0.1,0.1-0.1c4-4.7,3.8-11.5-0.4-16c-2.1-2.2-4-4.5-5.6-6.6
		c0.9-1.1,1.7-2.3,2.2-3.6c0.2,0,0.4,0,0.7,0c0.2,0,0.5,0,0.7,0l5-0.4c6.1-0.4,10.9-5.4,11.1-11.7c0.1-3,0.3-6,0.7-8.7
		c1.4-0.1,2.8-0.4,4.1-1C485.3,328.6,485.7,329,486,329.3z M454.5,328.5l0-0.3l0-0.2c0,0,0-0.1,0-0.1l0-0.1
		c0.1-5.8,0.9-11.1,2.3-15.7c0,0,0-0.1,0-0.1l0.4-1.1c0,0,0.1-0.1,0.1-0.2l0.3-0.7c0.9-2.4,2-4.6,3.3-6.5c0.6-1,1.3-1.9,2.1-2.8
		c1.4-1.6,3-2.6,5-3c0.5-0.1,0.9-0.2,1.4-0.2l9.7-0.5c2.3-0.1,4.3,1,5.5,3c1.2,2,1,4.4-0.3,6.4l-0.1,0.1c0,0-0.1,0.1-0.1,0.1
		l-0.1,0.2c0,0,0,0.1-0.1,0.1l-0.2,0.3c0,0,0,0,0,0l-0.2,0.3c0,0-0.1,0.1-0.1,0.1l-0.2,0.3c0,0,0,0.1-0.1,0.1l-0.3,0.4
		c0,0,0,0.1-0.1,0.1l-0.1,0.1c0,0,0,0.1-0.1,0.1l-0.1,0.2c0,0,0,0.1-0.1,0.1l-0.2,0.3c-2.7,4.7-4.5,10-5.7,16.1
		c-0.1,0.5-0.2,1-0.2,1.4l-0.1,0.8c0,0.1,0,0.1,0,0.2c0,0.2,0,0.3-0.1,0.5c-0.4,2.9-0.7,6-0.8,9.3c-0.1,3.7-3,6.7-6.6,6.9l-5,0.4
		c-0.1,0-0.2,0-0.3,0c-1.4,0-2.7-0.5-3.9-1.6c-3.4-3.1-5-10-5.1-13.6l0-0.6c0,0,0-0.1,0-0.1L454.5,328.5l-2.4,0.1L454.5,328.5z
		 M430.5,356.9l-0.1-0.2c0,0,0,0,0-0.1l-0.1-0.2c0,0,0,0,0-0.1c-1.1-2.3-1.8-4.7-2.3-7c-0.2-1.1-0.4-2.2-0.5-3.3
		c-0.1-2.1,0.3-4,1.4-5.6c0.3-0.4,0.5-0.8,0.9-1.1l6.5-7.2c1.5-1.7,3.8-2.4,6-1.8c2.3,0.6,3.9,2.4,4.3,4.7l0,0.3c0,0,0,0.1,0,0.1
		l0,0.3c0,0,0,0.1,0,0.1l0.1,0.3c0,0,0,0.1,0,0.1l0.3,1.1c0,0,0,0.1,0,0.1l0.2,0.7c0,0.1,0,0.1,0,0.2l0.1,0.4
		c1.4,5.2,3.9,10.3,7.4,15.4c0,0,0,0.1,0.1,0.1c0.3,0.4,0.5,0.8,0.8,1.1l0.5,0.7c0,0,0.1,0.1,0.1,0.1c0.1,0.1,0.2,0.3,0.3,0.4
		c1.8,2.3,3.8,4.7,6,7.1c2.5,2.7,2.6,6.8,0.2,9.6c0,0-0.1,0.1-0.1,0.1l-3.2,3.6c-0.1,0.1-0.1,0.1-0.2,0.2c-1,1-2.2,1.6-3.8,1.6
		c-4.6,0.2-10.6-3.5-13.3-6.1l-0.4-0.4c0,0,0,0-0.1-0.1l-1-1c-4-4.1-7.2-8.4-9.4-12.7c0,0,0-0.1,0-0.1L431,358c0,0,0,0,0-0.1
		l-0.4-0.9C430.5,357,430.5,356.9,430.5,356.9z M463.2,411.6c0,0-0.1,0-0.1,0l-0.2,0c0,0-0.1,0-0.1,0l-0.1,0l-0.2,0l-0.3,0l-0.2,0
		l-0.1,0c0,0,0,0,0,0l-0.2,0c-5.8-0.1-11.1-0.9-15.7-2.3c0,0-0.1,0-0.1,0l-1.1-0.4c0,0-0.1,0-0.1,0l-0.7-0.3c-2.4-0.9-4.6-2-6.5-3.3
		c-1-0.6-1.9-1.3-2.8-2.1c-1.6-1.4-2.6-3-3-5c-0.1-0.5-0.2-0.9-0.2-1.4l-0.5-9.7c-0.1-2.3,1-4.3,3-5.5c2-1.2,4.4-1,6.4,0.3l0.1,0.1
		c0.1,0,0.1,0.1,0.2,0.1l0.3,0.2c0,0,0.1,0,0.1,0.1l0.1,0.1c0,0,0,0,0,0l0.3,0.2c0,0,0.1,0.1,0.1,0.1l0.6,0.3c0,0,0.1,0.1,0.1,0.1
		l0.4,0.2c0,0,0.1,0,0.1,0l0.2,0.1c0,0,0.1,0.1,0.1,0.1l0.3,0.2c4.7,2.7,10,4.5,16.1,5.7c0.5,0.1,1,0.2,1.4,0.2l0.8,0.1
		c0,0,0.1,0,0.2,0c0.2,0,0.3,0,0.5,0.1c2.9,0.4,6,0.7,9.3,0.8c3.7,0.1,6.7,3,6.9,6.6l0.3,5c0,0.1,0,0.2,0,0.3c0,1.4-0.5,2.7-1.6,3.9
		c-3.1,3.4-10,5-13.6,5.1L463.2,411.6z M492.3,434.9c0,0-0.1,0-0.1,0.1l-1.3,0.6c0,0-0.1,0-0.1,0.1l-0.2,0.1c0,0,0,0,0,0l-0.2,0.1
		c-2.4,1.1-4.7,1.8-7,2.3c-1.1,0.2-2.2,0.4-3.3,0.5c-2.1,0.1-4-0.3-5.6-1.4c-0.4-0.3-0.8-0.5-1.1-0.9l-7.2-6.5
		c-1.7-1.5-2.4-3.8-1.8-6c0.6-2.3,2.4-3.9,4.8-4.3l0.1,0c0.1,0,0.1,0,0.2,0l0.2,0c0,0,0.1,0,0.1,0l0.3-0.1c0,0,0.1,0,0.1,0l1.1-0.3
		c0,0,0.1,0,0.1,0l0.8-0.2c0,0,0.1,0,0.1,0l0.4-0.1c5.2-1.5,10.3-3.9,15.4-7.4c0.4-0.3,0.8-0.6,1.2-0.9l0.6-0.5
		c0.1,0,0.1-0.1,0.2-0.1c0.1-0.1,0.3-0.2,0.4-0.3c2.3-1.8,4.7-3.8,7.1-6c2.7-2.5,6.8-2.6,9.6-0.2c0,0,0.1,0,0.1,0.1l3.7,3.2
		c0,0,0,0,0,0c0.1,0.1,0.1,0.1,0.2,0.2c1,1,1.6,2.2,1.6,3.8c0.2,4.6-3.5,10.6-6.1,13.3l-0.4,0.4c0,0,0,0-0.1,0.1l-1,1
		C500.9,429.5,496.6,432.6,492.3,434.9z"/>
	<path class="st1" d="M662.7,486.9H645V243.5c0-3.5-2.9-6.4-6.4-6.4H361.4c-3.5,0-6.4,2.9-6.4,6.4v243.3h-17.7V243.5
		c0-13.3,10.8-24.1,24.1-24.1h277.1c13.3,0,24.1,10.8,24.1,24.1V486.9z"/>
	<path class="st0" d="M789.5,518c-0.5-4.9-2.6-9.5-6.2-13.3l-64.8-67.9c-4.3-4.5-10.3-7-16.4-7h-39.5v17.7h39.5
		c1.4,0,2.7,0.6,3.7,1.6l64.8,67.9c2.1,2.2,1.4,4.6,1,5.5c-0.4,0.9-1.6,3.1-4.6,3.1H233.2c-3,0-4.2-2.1-4.6-3.1
		c-0.1-0.3-0.3-0.9-0.4-1.6v-1c0.1-0.9,0.5-1.9,1.4-2.9l64.8-67.9c1-1,2.3-1.6,3.7-1.6h39.5v-17.7h-39.5c-6.2,0-12.2,2.6-16.4,7
		l-64.8,67.9c-4.5,4.7-6.6,10.8-6.3,16.9v68.8c0,4.9,4,8.8,8.8,8.8c4.9,0,8.8-4,8.8-8.8v-47.8c1.6,0.4,3.3,0.5,5.1,0.5h533.7
		c1.7,0,3.5-0.2,5.1-0.6v47.8c0,4.9,4,8.8,8.8,8.8s8.8-4,8.8-8.8v-71.1C789.6,518.8,789.5,518.4,789.5,518z"/>
</g>
</svg>
