<?xml version="1.0" encoding="utf-8"?>
<!-- Generator: Adobe Illustrator 25.4.1, SVG Export Plug-In . SVG Version: 6.00 Build 0)  -->
<svg version="1.1" id="Layer_1" xmlns="http://www.w3.org/2000/svg" xmlns:xlink="http://www.w3.org/1999/xlink" x="0px" y="0px"
	 viewBox="0 0 500 500" style="enable-background:new 0 0 500 500;" xml:space="preserve">
<style type="text/css">
	.st0{fill:#FFFFFF;}
	.st1{fill:url(#SVGID_1_);}
</style>
<g>
	<path class="st0" d="M19.3,272.3c11.5,0,17.8-7.7,17.8-18v-25.8h-9.4v25.1c0,6.3-3,9.8-8.4,9.8c-5.5,0-8.4-3.6-8.4-9.8v-25.1H1.5
		v25.8C1.5,264.6,7.8,272.3,19.3,272.3z M58.2,271.5c9.4,0,15.3-5.4,15.3-12.8c0-5.8-3.1-8.9-7.7-10.6c3.4-1.4,5.7-4.4,5.7-9.2
		c0-6.4-5.5-10.4-13.8-10.4H43.3v43.1C43.3,271.5,58.2,271.5,58.2,271.5z M57.6,245.8h-4.9v-9.1h4.9c2.9,0,4.9,1.7,4.9,4.6
		S60.5,245.8,57.6,245.8L57.6,245.8z M57.9,263.3h-5.2v-10.8h5.2c4,0,6.3,1.8,6.3,5.4C64.1,261.4,61.9,263.3,57.9,263.3z
		 M87.5,271.5v-43.1h-9.4v43.1H87.5z M108.4,272.3c8.1,0,14.9-4.9,14.9-13.8c0-6.6-3.8-10-11.2-12.5c-6.5-2.3-8.8-3.8-8.8-6.3
		c0-2.2,2.1-3.8,4.9-3.8c3.4,0,5.6,1.8,7,5l7.4-5.2c-2.4-5.2-7.5-7.9-14.1-7.9c-8.3,0-14,5.2-14,12.1c0,7.1,4.9,10.5,11.6,12.9
		c6.2,2.2,7.8,3.8,7.8,6.4c0,2.8-2.2,4.4-5.3,4.4c-3.5,0-7-2.4-8.4-6.3l-7.4,5.5C95.2,268.9,100.9,272.3,108.4,272.3z M149.8,272.3
		c12.8,0,21.9-9.6,21.9-22.3c0-12.5-9.1-22.3-21.9-22.3c-7,0-13,2.6-16.2,6l1.5,1.5c-4.2,3.5-7.1,8.9-7.1,16.2
		C127.9,262.9,136.7,272.3,149.8,272.3z M149.8,263.4c-7.8,0-12.4-5.7-12.4-12.2c0-4.7,2-7.4,4.3-9.3l-1.5-1.5
		c2-2.2,5.2-3.8,9.6-3.8c7.5,0,12.4,5.7,12.4,13.4S157.3,263.4,149.8,263.4L149.8,263.4z M186.6,271.5v-17.2h18.3v-7.1h-18.3v-9.9
		h20.1v-8.9h-29.5v43.1H186.6z M233,271.5v-34.2h12.1v-8.9h-33.5v8.9h12.1v34.2H233z"/>
	
		<linearGradient id="SVGID_1_" gradientUnits="userSpaceOnUse" x1="4.9959" y1="487.9997" x2="2.5927" y2="487.9554" gradientTransform="matrix(96.563 0 0 -18.535 16.015 9294.4082)">
		<stop  offset="0" style="stop-color:#BD4BE5"/>
		<stop  offset="1" style="stop-color:#5856DE"/>
	</linearGradient>
	<path class="st1" d="M287.6,272.3c4.2,0,10-1.5,13.6-4.9l4.7,4.7l4.6-4.3l-6.1-6.2c2.6-3.4,4.4-7.3,4.4-12.8c0-11-8.7-21-21.2-21
		s-21.2,9.5-21.2,22.3C266.4,262.8,274.9,272.3,287.6,272.3z M287.6,267c-8.9,0-15.4-6.8-15.4-17c0-9.9,6.3-17,15.4-17
		s15.4,7.1,15.4,16.4c0,5.6-3.3,10.7-6.6,13.2l0.8,0.9C294.9,265.8,290.6,267,287.6,267z M331.5,272.3c10.3,0,16.7-6.9,16.7-17
		v-26.8h-5.7v26.1c0,8.2-4.6,12.4-11,12.4c-6.5,0-11-4.1-11-12.4v-26.1h-5.7v26.8C314.8,265.4,321.2,272.3,331.5,272.3L331.5,272.3z
		 M359.3,271.5l3.6-9.8h20.5l3.6,9.8h5.6l-16.2-43.1h-6.9l-16.2,43.1H359.3L359.3,271.5z M381.7,257.2h-17.2l6.9-18.8l1.5-5.2h0.4
		l1.5,5.2L381.7,257.2L381.7,257.2z M403.8,271.5v-17.8h7.9l9.7,17.8h6.6l-10-18.5c5.7-1.6,9.2-6,9.2-12c0-7.5-5.6-12.6-14.1-12.6
		h-14.8v43.1H403.8L403.8,271.5z M412.9,249h-9.1v-15.3h9.1c5,0,8.6,2.4,8.6,7.6C421.4,246.6,417.8,249,412.9,249z M451.4,271.5
		v-37.9h12.7v-5.2H433v5.2h12.8v37.9H451.4L451.4,271.5z M498.5,271.6v-5.3l-21.6-0.1v-0.4l20.5-34.8v-2.6l-27.5-0.1v5.3l19.7,0.1
		v0.4l-20.5,34.8h0.1v2.6L498.5,271.6L498.5,271.6z"/>
</g>
</svg>
