<?xml version="1.0" encoding="utf-8"?>
<!-- Generator: Adobe Illustrator 25.4.1, SVG Export Plug-In . SVG Version: 6.00 Build 0)  -->
<svg version="1.1" id="Layer_1" xmlns="http://www.w3.org/2000/svg" xmlns:xlink="http://www.w3.org/1999/xlink" x="0px" y="0px"
	 viewBox="0 0 500 500" style="enable-background:new 0 0 500 500;" xml:space="preserve">
<style type="text/css">
	.st0{fill:#FFFFFF;}
</style>
<g>
	<path class="st0" d="M320.9,267.3h-26c-0.8,0-1.6-0.5-1.8-1.3l-24.2-69.1c-0.5-1.3,0.5-2.6,1.8-2.6h23.9c0.8,0,1.6,0.5,1.8,1.6
		l14,50.7l14-50.9c0.3-0.8,1-1.6,1.8-1.6h17.9c1.3,0,2.3,1.3,1.8,2.6c-3.9,11.2-18.7,54.6-23.9,69.1
		C322.5,266.8,321.7,267.3,320.9,267.3L320.9,267.3z"/>
	<path class="st0" d="M376,242.9c0,9.9,16.1,16.1,24.7,16.4c2.3,0,4.9-0.3,7-0.8c0.5,0,0.8,0,1,0.5l1.8,3.4c0.3,0.5,0,1-0.5,1.3
		c-6,2.9-14.3,4.9-26.3,4.9c-53,0-52.8-76.4,3.1-76.4c5.2,0,35.6,0.8,35.6,21.1C422.8,241.8,376,242.9,376,242.9L376,242.9z
		 M375.5,235.3c0,0,23.9-1.6,24.2-21.3c0.3-13.5-7.5-14.3-11.4-14.3s-12.5,1.8-12.7,22.4L375.5,235.3L375.5,235.3z M268.9,261v4.9
		c0,1-0.5,1.3-1,1.3h-15.3c-9.9,0-15.1-4.7-16.1-10.9c-4.9,6.5-12,13-24.4,13c-25,0-22.4-19.2-22.4-23.1V196c0-1,0.8-2.1,2.1-2.1
		h21.8c1,0,2.1,0.8,2.1,2.1v45c0,0-0.8,15.3,10.1,15.3c4.7,0,8.8-4.9,10.9-8.8V196c0-1,0.8-2.1,2.1-2.1h21.8c1,0,2.1,0.8,2.1,2.1
		v55.4c0,3.6,1.8,7,6,8.6C268.7,260.3,268.9,260.5,268.9,261z M496.3,244.4c-1.6-12.5-17.9-16.6-37.4-29.4
		c-6.8-3.9-7.5-13.8,3.1-15.1c17.2-2.3,19,12.7,20.8,18.7c0.3,0.8,1,1.3,1.8,1.3h5.5c1,0,2.1-0.8,2.1-2.1V200c0-0.8-0.5-1.6-1-1.8
		c-3.1-1.6-14.8-5.7-29.1-5.7c-16.9,0-34.8,2.9-32.7,22.9c1.8,18.7,37.9,24.2,37.9,37.2c0,6.2-5.5,8.6-11.2,8.6
		c-3.4,0-13.3-2.6-13.3-13.3v-1.3c0-4.9-4.7-8.8-9.9-8.8c-5.5,0-9.9,4.4-9.9,9.9v1c0,3.4,1.8,20,36.1,20
		C488,269.1,497.9,257.1,496.3,244.4z M140.8,192.7c-25.2,0-41.6,15.3-41.6,38.2c0,22.6,16.6,38.2,41.6,38.2s41.1-15.3,41.1-38.2
		S165.7,192.7,140.8,192.7z M140.5,260.3c-8.8,0-14.6-12-14.6-29.6s5.7-29.6,14.6-29.6c8.8,0,14.3,12,14.3,29.6
		S149.4,260.3,140.5,260.3z M101.5,194.2H85.2c-3.4,0-6.2,2.1-7,5.5l-14.6,51.7H62l-17.2-52c-1-3.1-3.9-4.9-7-4.9H19.2
		c-0.8-0.3-1.3,0.5-1,1.3l24.2,69.1c0.8,1.8,1.6,2.3,3.6,2.3h12.2c-4.9,16.9-30.9,8.6-37.4,6.8c-1-0.3-2.1,1-1.8,2.1l5.7,16.6
		c0.3,0.8,0.8,1.3,1.6,1.3c3.1,0.8,14,3.9,26,1.6c16.1-3.4,22.6-18.2,25-23.9c3.1-7.3,22.9-68.1,25.5-75.9
		C102.8,195,102.3,194.2,101.5,194.2z"/>
	<path class="st0" d="M36.8,265.2L30,246.5c-0.5-1.8-2.3-2.9-4.2-2.9H9.3c-3.9,0-6.8,3.9-5.5,7.8c1.6,4.4,2.3,6.8,3.9,10.9
		c1,2.9,3.6,4.9,6.8,4.9h21.1C36.6,267.3,37.3,266.2,36.8,265.2z"/>
	<path class="st0" d="M85.9,276.6h12.5c2.6,0,4.4,0.8,6,2.1c1.6,1.6,2.1,3.4,2.1,5.7c0,1-0.3,2.1-0.5,2.9c-0.3,0.8-0.8,1.6-1.3,2.1
		s-1,0.8-1.6,1c-0.5,0.3-1,0.5-1.6,0.5v0.3c0.5,0,1.3,0.3,1.8,0.5c0.8,0.3,1.3,0.8,1.8,1.3s1,1.3,1.6,2.1s0.5,2.1,0.5,3.1
		c0,1.3-0.3,2.3-0.5,3.4c-0.5,1-1,2.1-1.6,2.9c-0.5,0.8-1.6,1.3-2.6,1.8s-2.1,0.8-3.1,0.8H85.7L85.9,276.6L85.9,276.6z M89.6,289.9
		h8.6c1.6,0,2.6-0.3,3.4-1c0.8-0.8,1.3-1.8,1.3-3.1v-1.6c0-1.3-0.5-2.3-1.3-3.1c-0.8-0.8-2.1-1-3.4-1h-8.6
		C89.6,280,89.6,289.9,89.6,289.9z M89.6,303.9h9.1c1.6,0,2.9-0.5,3.6-1.3c0.8-0.8,1.3-2.1,1.3-3.6v-1.6c0-1.6-0.5-2.6-1.3-3.6
		c-0.8-0.8-2.1-1.3-3.6-1.3h-9.1V303.9z M122.6,307.8c-1.6,0-2.9-0.3-4.2-0.8c-1.3-0.5-2.3-1.3-3.1-2.3s-1.6-2.3-2.1-3.6
		c-0.5-1.6-0.8-3.1-0.8-4.9s0.3-3.4,0.8-4.9c0.5-1.6,1-2.6,2.1-3.6c0.8-1,2.1-1.8,3.1-2.3c1.3-0.5,2.6-0.8,4.2-0.8s2.9,0.3,4.2,0.8
		s2.3,1.3,3.1,2.3s1.6,2.1,1.8,3.4c0.5,1.3,0.8,2.9,0.8,4.4v1.6h-16.4v1c0,1,0.3,1.8,0.5,2.6c0.3,0.8,0.8,1.6,1.3,2.1s1.3,1,2.1,1.6
		c0.8,0.3,1.8,0.5,2.9,0.5c1.6,0,2.6-0.3,3.6-1c1-0.8,1.8-1.6,2.6-2.9l2.6,1.8c-0.8,1.6-1.8,2.9-3.4,3.9
		C126.5,307.3,124.7,307.8,122.6,307.8z M122.6,287c-1,0-1.8,0.3-2.6,0.5c-0.8,0.3-1.6,0.8-2.1,1.3s-1,1.3-1.3,2.1
		c-0.3,0.8-0.5,1.8-0.5,2.6v0.3h12.5v-0.5c0-2.1-0.5-3.6-1.6-4.9C126,287.6,124.4,287,122.6,287z M143.1,307.3c-1.3,0-2.1-0.3-2.9-1
		c-0.5-0.8-1-1.6-1-2.6v-15.9h-3.6v-3.1h2.1c0.8,0,1.3-0.3,1.6-0.5c0.3-0.3,0.5-0.8,0.5-1.6v-4.4h3.1v6.2h4.9v3.1h-4.9v16.6h4.7v3.1
		L143.1,307.3L143.1,307.3z M169.9,307.3c-1.3,0-2.3-0.3-2.9-1c-0.5-0.8-1-1.6-1-2.6h-0.3c-0.5,1.3-1.3,2.3-2.3,3.1
		c-1,0.8-2.6,1-4.2,1c-2.3,0-4.2-0.5-5.5-1.8s-2.1-2.9-2.1-4.9c0-2.1,0.8-3.6,2.3-4.9c1.6-1,3.9-1.8,7.3-1.8h4.4V292
		c0-1.6-0.5-2.9-1.3-3.6c-0.8-0.8-2.3-1.3-4.2-1.3c-1.3,0-2.6,0.3-3.4,1c-1,0.5-1.6,1.6-2.3,2.3l-1.8-1.8c0.5-1.3,1.6-2.3,2.9-3.1
		c1.3-0.8,3.1-1.3,5.2-1.3c2.9,0,4.9,0.8,6.5,2.1s2.3,3.1,2.3,5.7v12.2h2.6v3.1L169.9,307.3L169.9,307.3z M159.8,304.7
		c0.8,0,1.6,0,2.3-0.3c0.8-0.3,1.3-0.5,1.8-0.8s1-0.8,1.3-1.3s0.5-1,0.5-1.6v-3.6H161c-2.1,0-3.4,0.3-4.4,0.8s-1.3,1.6-1.3,2.6v1
		c0,1,0.5,2.1,1.3,2.6C157.4,304.5,158.5,304.7,159.8,304.7z"/>
</g>
</svg>
