<svg width="1044" height="1044" viewBox="0 0 1044 1044" fill="none" xmlns="http://www.w3.org/2000/svg">
<rect width="1044" height="1044" rx="512" fill="black"/>
<path d="M911.336 306.666C895.164 277.927 875.823 251.097 853.675 226.682L559.709 521.239L853.675 815.963C875.831 791.403 895.171 764.434 911.336 735.561L697.61 520.905L911.336 306.666Z" fill="white"/>
<path d="M307.821 130.5C278.939 146.854 252.017 166.462 227.581 188.944L522.047 483.501L816.014 188.944C791.644 166.565 764.872 146.964 736.189 130.5L522.047 345.156L307.821 130.5Z" fill="white"/>
<path d="M821.762 472.229L773.018 521.072L821.762 569.998H962.83C964.602 553.749 965.492 537.417 965.496 521.072C965.503 504.754 964.613 488.449 962.83 472.229H821.762Z" fill="white"/>
<path d="M190.335 226.515C116.367 306.46 76.3011 412.08 78.5974 521.072C77.5855 579.568 88.5957 637.646 110.943 691.696C133.291 745.745 166.498 794.61 208.499 835.249C295.406 922.331 399.644 965.913 522.047 965.412C630.83 967.583 736.263 927.663 816.43 853.951L190.335 226.515Z" fill="white"/>
</svg>
