<svg width="133" height="37" viewBox="0 0 133 37" fill="none" xmlns="http://www.w3.org/2000/svg">
  <rect y="0.534424" width="36.302" height="36.302" rx="10.7561" fill="#292B3F" />
  <rect x="9.41406" y="13.6594" width="5.25127" height="19.4674" rx="0.938797" transform="rotate(-45 9.41406 13.6594)" fill="white" />
  <g filter="url(#filter0_f_2145_920)">
    <rect x="16.6094" y="22.761" width="8.16567" height="3.01633" rx="0.469398" transform="rotate(-45 16.6094 22.761)" fill="black" />
  </g>
  <path d="M22.6721 10.7664C23.0387 10.3997 23.6331 10.3997 23.9998 10.7664L26.1945 12.9611C26.5611 13.3277 26.5611 13.9221 26.1945 14.2888L13.7567 26.7266C13.39 27.0932 12.7956 27.0932 12.429 26.7266L10.2343 24.5319C9.86763 24.1653 9.86763 23.5708 10.2343 23.2042L22.6721 10.7664Z" fill="url(#paint0_linear_2145_920)" />
  <path d="M51.7452 26.3387L44 12.5306H48.2853L53.1419 22.593L50.9199 22.4978L55.2686 12.5306L59.3 12.5306L51.9039 26.3387H51.7452Z" fill="white" />
  <path d="M60.6656 19.1013C60.6656 17.747 60.9831 16.5302 61.6179 15.4509C62.2739 14.3505 63.1733 13.4935 64.3161 12.8798C65.4799 12.2449 66.8026 11.9275 68.2839 11.9275C69.7864 11.9275 71.0878 12.2449 72.1882 12.8798C73.3098 13.4935 74.1774 14.3505 74.7911 15.4509C75.4048 16.5302 75.7117 17.747 75.7117 19.1013C75.7117 20.4768 75.4048 21.7148 74.7911 22.8152C74.1774 23.8945 73.3098 24.7515 72.1882 25.3864C71.0667 26.0212 69.744 26.3387 68.2204 26.3387C66.7814 26.3387 65.4905 26.053 64.3478 25.4816C63.2051 24.8891 62.3057 24.0532 61.6497 22.9739C60.9936 21.8735 60.6656 20.5827 60.6656 19.1013ZM64.3161 19.1331C64.3161 19.9372 64.4853 20.6567 64.8239 21.2916C65.1625 21.9264 65.6281 22.4343 66.2206 22.8152C66.8131 23.175 67.4692 23.3548 68.1887 23.3548C69.3314 23.3548 70.2625 22.9528 70.982 22.1486C71.7015 21.3445 72.0613 20.3393 72.0613 19.1331C72.0613 17.948 71.7015 16.9534 70.982 16.1493C70.2625 15.324 69.3314 14.9113 68.1887 14.9113C67.448 14.9113 66.7814 15.1018 66.1889 15.4827C65.6175 15.8636 65.1625 16.3715 64.8239 17.0063C64.4853 17.6412 64.3161 18.3501 64.3161 19.1331Z" fill="white" />
  <path d="M82.6844 12.5306L83.0336 16.3397L82.9066 15.8001C83.2875 14.9959 83.806 14.3082 84.462 13.7368C85.118 13.1443 85.7952 12.6999 86.4935 12.4036C87.213 12.0862 87.795 11.9275 88.2394 11.9275L88.0489 15.5144C87.0331 15.4298 86.1549 15.6202 85.4143 16.0858C84.6736 16.5302 84.0917 17.1333 83.6684 17.8951C83.2452 18.6358 83.0336 19.4188 83.0336 20.2441V25.9895H79.4466V12.5306L82.6844 12.5306Z" fill="white" />
  <path d="M93.1158 6.62646L96.7662 6.62646V12.5306H100.258V15.3557H96.7662V25.9895H93.1158V15.3557H90.8304V12.5306H93.1158V6.62646Z" fill="white" />
  <path d="M110.162 26.3387C108.575 26.3387 107.22 26.0318 106.099 25.4181C104.977 24.8044 104.109 23.958 103.496 22.8787C102.903 21.7783 102.607 20.5298 102.607 19.1331C102.607 17.7999 102.945 16.5937 103.623 15.5144C104.321 14.414 105.242 13.5464 106.384 12.9115C107.548 12.2555 108.828 11.9275 110.225 11.9275C112.087 11.9275 113.622 12.4671 114.828 13.5464C116.034 14.6045 116.838 16.1175 117.24 18.0856L106.416 21.736L105.591 19.7044L113.971 16.7206L113.241 17.1333C113.008 16.4984 112.638 15.9482 112.13 15.4827C111.622 15.0171 110.902 14.7843 109.971 14.7843C108.85 14.7843 107.94 15.1758 107.241 15.9588C106.543 16.7206 106.194 17.7152 106.194 18.9426C106.194 20.2758 106.575 21.3339 107.337 22.1169C108.12 22.8787 109.082 23.2596 110.225 23.2596C110.775 23.2596 111.304 23.1644 111.812 22.9739C112.32 22.7835 112.796 22.5295 113.241 22.2121L114.891 24.8785C114.193 25.3229 113.421 25.6826 112.574 25.9577C111.749 26.2117 110.945 26.3387 110.162 26.3387Z" fill="white" />
  <path d="M125.826 17.1968L128.778 12.5306H132.365L127.128 19.8314L125.826 17.1968ZM133 25.9895H128.651L118.335 12.5306L122.779 12.5306L133 25.9895ZM125.413 21.2916L122.112 25.9895L118.494 25.9895L123.731 18.8791L125.413 21.2916Z" fill="white" />
  <defs>
    <filter id="filter0_f_2145_920" x="10.2716" y="10.6483" width="20.5818" height="20.5842" filterUnits="userSpaceOnUse" color-interpolation-filters="sRGB">
      <feFlood flood-opacity="0" result="BackgroundImageFix" />
      <feBlend mode="normal" in="SourceGraphic" in2="BackgroundImageFix" result="shape" />
      <feGaussianBlur stdDeviation="3.26654" result="effect1_foregroundBlur_2145_920" />
    </filter>
    <linearGradient id="paint0_linear_2145_920" x1="25.0971" y1="11.8637" x2="11.3316" y2="25.6293" gradientUnits="userSpaceOnUse">
      <stop stop-color="#B479FF" />
      <stop offset="1" stop-color="#7C79FF" />
    </linearGradient>
  </defs>
</svg>