<svg width="53" height="10" viewBox="0 0 53 10" fill="none" xmlns="http://www.w3.org/2000/svg">
<path d="M14 6.44005C14 5.73136 14.1292 5.10919 14.3876 4.57355C14.6542 4.03791 15.0135 3.62588 15.4658 3.33745C15.918 3.04903 16.4228 2.90482 16.98 2.90482C17.4565 2.90482 17.8724 3.00371 18.2278 3.20148C18.5912 3.39926 18.8698 3.65884 19.0636 3.98022V3.00371H21.1351V9.90111H19.0636V8.9246C18.8617 9.24598 18.5791 9.50556 18.2157 9.70334C17.8603 9.90111 17.4444 10 16.9679 10C16.4188 10 15.918 9.85579 15.4658 9.56737C15.0135 9.2707 14.6542 8.85455 14.3876 8.31891C14.1292 7.77503 14 7.14874 14 6.44005ZM19.0636 6.45241C19.0636 5.92501 18.9183 5.50886 18.6275 5.20396C18.3449 4.89905 17.9976 4.7466 17.5857 4.7466C17.1739 4.7466 16.8226 4.89905 16.5318 5.20396C16.2492 5.50062 16.1078 5.91265 16.1078 6.44005C16.1078 6.96745 16.2492 7.38772 16.5318 7.70087C16.8226 8.00577 17.1739 8.15822 17.5857 8.15822C17.9976 8.15822 18.3449 8.00577 18.6275 7.70087C18.9183 7.39596 19.0636 6.97981 19.0636 6.45241Z" fill="white"/>
<path d="M29.3086 3.00371V9.90111H27.2371V8.96168C27.0271 9.26658 26.7404 9.5138 26.377 9.70334C26.0216 9.88463 25.6259 9.97528 25.1898 9.97528C24.6729 9.97528 24.2167 9.85991 23.8209 9.62917C23.4252 9.39019 23.1183 9.04821 22.9003 8.60321C22.6822 8.15822 22.5732 7.63494 22.5732 7.03337V3.00371H24.6326V6.74907C24.6326 7.21055 24.7497 7.56902 24.9839 7.82447C25.2181 8.07993 25.533 8.20766 25.9288 8.20766C26.3326 8.20766 26.6516 8.07993 26.8858 7.82447C27.12 7.56902 27.2371 7.21055 27.2371 6.74907V3.00371H29.3086Z" fill="white"/>
<path d="M30.3846 6.44005C30.3846 5.73136 30.5138 5.10919 30.7723 4.57355C31.0388 4.03791 31.3982 3.62588 31.8504 3.33745C32.3027 3.04903 32.8074 2.90482 33.3647 2.90482C33.8088 2.90482 34.2126 2.99959 34.5761 3.18912C34.9476 3.37866 35.2383 3.63412 35.4483 3.9555V0.754018H37.5198V9.90111H35.4483V8.91224C35.2544 9.24186 34.9758 9.50556 34.6124 9.70334C34.2571 9.90111 33.8411 10 33.3647 10C32.8074 10 32.3027 9.85579 31.8504 9.56737C31.3982 9.2707 31.0388 8.85455 30.7723 8.31891C30.5138 7.77503 30.3846 7.14874 30.3846 6.44005ZM35.4483 6.45241C35.4483 5.92501 35.3029 5.50886 35.0122 5.20396C34.7295 4.89905 34.3822 4.7466 33.9704 4.7466C33.5585 4.7466 33.2072 4.89905 32.9164 5.20396C32.6338 5.50062 32.4925 5.91265 32.4925 6.44005C32.4925 6.96745 32.6338 7.38772 32.9164 7.70087C33.2072 8.00577 33.5585 8.15822 33.9704 8.15822C34.3822 8.15822 34.7295 8.00577 35.0122 7.70087C35.3029 7.39596 35.4483 6.97981 35.4483 6.45241Z" fill="white"/>
<path d="M40.0602 2.28677C39.6968 2.28677 39.398 2.17965 39.1638 1.96539C38.9376 1.74289 38.8246 1.47095 38.8246 1.14957C38.8246 0.819943 38.9376 0.548002 39.1638 0.333745C39.398 0.111248 39.6968 0 40.0602 0C40.4155 0 40.7063 0.111248 40.9324 0.333745C41.1666 0.548002 41.2837 0.819943 41.2837 1.14957C41.2837 1.47095 41.1666 1.74289 40.9324 1.96539C40.7063 2.17965 40.4155 2.28677 40.0602 2.28677ZM41.0899 3.00371V9.90111H39.0184V3.00371H41.0899Z" fill="white"/>
<path d="M46.3585 8.10878V9.90111H45.3046C44.5535 9.90111 43.968 9.7157 43.5481 9.34487C43.1281 8.9658 42.9181 8.35187 42.9181 7.50309V4.75896H42.0944V3.00371H42.9181V1.32262H44.9896V3.00371H46.3464V4.75896H44.9896V7.52781C44.9896 7.73383 45.0381 7.88216 45.135 7.97281C45.2319 8.06345 45.3934 8.10878 45.6196 8.10878H46.3585Z" fill="white"/>
<path d="M50.2622 10C49.6727 10 49.1478 9.89699 48.6874 9.69098C48.2271 9.48496 47.8637 9.20478 47.5972 8.85043C47.3307 8.48785 47.1813 8.08405 47.1489 7.63906H49.1962C49.2204 7.87804 49.3295 8.07169 49.5233 8.22002C49.7171 8.36836 49.9554 8.44252 50.238 8.44252C50.4964 8.44252 50.6943 8.39308 50.8316 8.29419C50.977 8.18706 51.0496 8.05109 51.0496 7.88628C51.0496 7.6885 50.9487 7.54429 50.7468 7.45365C50.5449 7.35476 50.2178 7.24763 49.7656 7.13226C49.281 7.01689 48.8772 6.8974 48.5542 6.77379C48.2311 6.64194 47.9525 6.44005 47.7183 6.16811C47.4841 5.88793 47.367 5.51298 47.367 5.04326C47.367 4.64771 47.472 4.28925 47.682 3.96786C47.9 3.63824 48.215 3.37866 48.6269 3.18912C49.0468 2.99959 49.5435 2.90482 50.1169 2.90482C50.9649 2.90482 51.6311 3.11908 52.1157 3.54759C52.6083 3.9761 52.891 4.54471 52.9637 5.2534H51.0496C51.0173 5.01442 50.9124 4.82489 50.7347 4.6848C50.5651 4.54471 50.339 4.47466 50.0563 4.47466C49.814 4.47466 49.6283 4.5241 49.4991 4.62299C49.3698 4.71364 49.3052 4.84137 49.3052 5.00618C49.3052 5.20396 49.4062 5.35229 49.6081 5.45117C49.8181 5.55006 50.1411 5.64895 50.5772 5.74784C51.0779 5.87969 51.4858 6.01154 51.8007 6.14339C52.1157 6.267 52.3903 6.47301 52.6245 6.76143C52.8667 7.04161 52.9919 7.42068 53 7.89864C53 8.30243 52.8869 8.66502 52.6608 8.9864C52.4428 9.29955 52.1238 9.54676 51.7038 9.72806C51.2919 9.90935 50.8114 10 50.2622 10Z" fill="white"/>
<path d="M0 3H3.10099L6.02891 6.5L3.10099 10H0L2.94234 6.5L0 3Z" fill="#2E63EE"/>
<path d="M13 3H9.89901L6.97109 6.5L9.89901 10H13L10.0577 6.5L13 3Z" fill="#2E63EE"/>
</svg>
