<svg width="580" height="580" viewBox="0 0 580 580" fill="none" xmlns="http://www.w3.org/2000/svg">
<path d="M0 290C0 129.837 129.837 0 290 0V0C450.163 0 580 129.837 580 290V290C580 450.163 450.163 580 290 580V580C129.837 580 0 450.163 0 290V290Z" fill="#E22440"/>
<path d="M351.771 470.976L310.713 429.919C299.053 418.259 280.199 418.259 268.663 429.919L227.606 470.976C215.574 483.008 195.975 483.008 183.943 470.976L164.097 451.13L226.986 388.241C261.593 353.633 317.66 353.633 352.267 388.241L415.156 451.13L395.309 470.976C383.401 483.008 363.927 483.008 351.771 470.976Z" fill="white"/>
<path d="M128.871 415.778L109.024 395.932C96.992 383.9 96.992 364.301 109.024 352.269L150.082 311.211C161.741 299.552 161.741 280.697 150.082 269.161L109.024 228.104C96.992 216.072 96.992 196.473 109.024 184.441L128.871 164.595L191.759 227.484C226.367 262.091 226.367 318.158 191.759 352.765L128.871 415.778Z" fill="white"/>
<path d="M290.246 217.684C267.547 217.684 244.847 209.125 227.606 191.759L164.717 128.871L184.563 109.024C196.595 96.992 216.194 96.992 228.226 109.024L269.283 150.082C280.819 161.617 299.798 161.617 311.333 150.082L352.391 109.024C364.423 96.992 384.021 96.992 396.053 109.024L415.9 128.871L353.011 191.759C335.645 208.877 312.946 217.684 290.246 217.684Z" fill="white"/>
<path d="M451.13 415.282L388.241 352.393C353.633 317.785 353.633 261.719 388.241 227.111L451.13 164.222L470.976 184.069C483.008 196.101 483.008 215.699 470.976 227.731L429.919 268.789C418.259 280.449 418.259 299.303 429.919 310.839L470.976 351.897C483.008 363.929 483.008 383.527 470.976 395.559L451.13 415.282Z" fill="white"/>
</svg>
