<svg width="150" height="150" viewBox="0 0 150 150" fill="none" xmlns="http://www.w3.org/2000/svg">
<rect width="150" height="150" fill="url(#paint0_linear_5218_248383)"/>
<path d="M69.5 53L75 47.5" stroke="#00E0FF" stroke-width="1.1" stroke-miterlimit="10" stroke-linecap="round" stroke-linejoin="round"/>
<path d="M75 58.5L80.5 53" stroke="#00E0FF" stroke-width="1.1" stroke-miterlimit="10" stroke-linecap="round" stroke-linejoin="round"/>
<path d="M69.5 58.5L80.5 47.5" stroke="#00E0FF" stroke-width="1.1" stroke-miterlimit="10" stroke-linecap="round" stroke-linejoin="round"/>
<path d="M69.5 50.25L72.25 47.5" stroke="#00E0FF" stroke-width="1.1" stroke-miterlimit="10" stroke-linecap="round" stroke-linejoin="round"/>
<path d="M77.75 58.5L80.5 55.75" stroke="#00E0FF" stroke-width="1.1" stroke-miterlimit="10" stroke-linecap="round" stroke-linejoin="round"/>
<path d="M72.25 58.5L80.5 50.25" stroke="#00E0FF" stroke-width="1.1" stroke-miterlimit="10" stroke-linecap="round" stroke-linejoin="round"/>
<path d="M69.5 55.75L77.75 47.5" stroke="#00E0FF" stroke-width="1.1" stroke-miterlimit="10" stroke-linecap="round" stroke-linejoin="round"/>
<path d="M31 53L36.5 47.5" stroke="#00E0FF" stroke-width="1.1" stroke-miterlimit="10" stroke-linecap="round" stroke-linejoin="round"/>
<path d="M31 119L58.5 91.5" stroke="#00E0FF" stroke-width="1.1" stroke-miterlimit="10" stroke-linecap="round" stroke-linejoin="round"/>
<path d="M31 113.5L53 91.5" stroke="#00E0FF" stroke-width="1.1" stroke-miterlimit="10" stroke-linecap="round" stroke-linejoin="round"/>
<path d="M31 108L47.5 91.5" stroke="#00E0FF" stroke-width="1.1" stroke-miterlimit="10" stroke-linecap="round" stroke-linejoin="round"/>
<path d="M31 102.5L42 91.5" stroke="#00E0FF" stroke-width="1.1" stroke-miterlimit="10" stroke-linecap="round" stroke-linejoin="round"/>
<path d="M31 91.5L36.5 86" stroke="#00E0FF" stroke-width="1.1" stroke-miterlimit="10" stroke-linecap="round" stroke-linejoin="round"/>
<path d="M31 86L36.5 80.5" stroke="#00E0FF" stroke-width="1.1" stroke-miterlimit="10" stroke-linecap="round" stroke-linejoin="round"/>
<path d="M31 80.5L36.5 75" stroke="#00E0FF" stroke-width="1.1" stroke-miterlimit="10" stroke-linecap="round" stroke-linejoin="round"/>
<path d="M31 75L36.5 69.5" stroke="#00E0FF" stroke-width="1.1" stroke-miterlimit="10" stroke-linecap="round" stroke-linejoin="round"/>
<path d="M31 69.5L36.5 64" stroke="#00E0FF" stroke-width="1.1" stroke-miterlimit="10" stroke-linecap="round" stroke-linejoin="round"/>
<path d="M31 64L36.5 58.5" stroke="#00E0FF" stroke-width="1.1" stroke-miterlimit="10" stroke-linecap="round" stroke-linejoin="round"/>
<path d="M31 58.5L36.5 53" stroke="#00E0FF" stroke-width="1.1" stroke-miterlimit="10" stroke-linecap="round" stroke-linejoin="round"/>
<path d="M31 97L36.5 91.5" stroke="#00E0FF" stroke-width="1.1" stroke-miterlimit="10" stroke-linecap="round" stroke-linejoin="round"/>
<path d="M36.5 119L58.5 97" stroke="#00E0FF" stroke-width="1.1" stroke-miterlimit="10" stroke-linecap="round" stroke-linejoin="round"/>
<path d="M42 119L58.5 102.5" stroke="#00E0FF" stroke-width="1.1" stroke-miterlimit="10" stroke-linecap="round" stroke-linejoin="round"/>
<path d="M47.5 119L58.5 108" stroke="#00E0FF" stroke-width="1.1" stroke-miterlimit="10" stroke-linecap="round" stroke-linejoin="round"/>
<path d="M53 119L58.5 113.5" stroke="#00E0FF" stroke-width="1.1" stroke-miterlimit="10" stroke-linecap="round" stroke-linejoin="round"/>
<path d="M58.5 119L64 113.5" stroke="#00E0FF" stroke-width="1.1" stroke-miterlimit="10" stroke-linecap="round" stroke-linejoin="round"/>
<path d="M64 119L69.5 113.5" stroke="#00E0FF" stroke-width="1.1" stroke-miterlimit="10" stroke-linecap="round" stroke-linejoin="round"/>
<path d="M69.5 119L75 113.5" stroke="#00E0FF" stroke-width="1.1" stroke-miterlimit="10" stroke-linecap="round" stroke-linejoin="round"/>
<path d="M75 119L80.5 113.5" stroke="#00E0FF" stroke-width="1.1" stroke-miterlimit="10" stroke-linecap="round" stroke-linejoin="round"/>
<path d="M80.5 119L102.5 97" stroke="#00E0FF" stroke-width="1.1" stroke-miterlimit="10" stroke-linecap="round" stroke-linejoin="round"/>
<path d="M86 119L102.5 102.5" stroke="#00E0FF" stroke-width="1.1" stroke-miterlimit="10" stroke-linecap="round" stroke-linejoin="round"/>
<path d="M91.5 119L102.5 108" stroke="#00E0FF" stroke-width="1.1" stroke-miterlimit="10" stroke-linecap="round" stroke-linejoin="round"/>
<path d="M97 119L102.5 113.5" stroke="#00E0FF" stroke-width="1.1" stroke-miterlimit="10" stroke-linecap="round" stroke-linejoin="round"/>
<path d="M91.5 97L97 91.5" stroke="#00E0FF" stroke-width="1.1" stroke-miterlimit="10" stroke-linecap="round" stroke-linejoin="round"/>
<path d="M91.5 102.5L102.5 91.5" stroke="#00E0FF" stroke-width="1.1" stroke-miterlimit="10" stroke-linecap="round" stroke-linejoin="round"/>
<path d="M91.5 94.25L94.25 91.5" stroke="#00E0FF" stroke-width="1.1" stroke-miterlimit="10" stroke-linecap="round" stroke-linejoin="round"/>
<path d="M91.5 99.75L99.75 91.5" stroke="#00E0FF" stroke-width="1.1" stroke-miterlimit="10" stroke-linecap="round" stroke-linejoin="round"/>
<path d="M77.75 119L102.5 94.25" stroke="#00E0FF" stroke-width="1.1" stroke-miterlimit="10" stroke-linecap="round" stroke-linejoin="round"/>
<path d="M83.25 119L102.5 99.75" stroke="#00E0FF" stroke-width="1.1" stroke-miterlimit="10" stroke-linecap="round" stroke-linejoin="round"/>
<path d="M88.75 119L102.5 105.25" stroke="#00E0FF" stroke-width="1.1" stroke-miterlimit="10" stroke-linecap="round" stroke-linejoin="round"/>
<path d="M94.25 119L102.5 110.75" stroke="#00E0FF" stroke-width="1.1" stroke-miterlimit="10" stroke-linecap="round" stroke-linejoin="round"/>
<path d="M50.25 119L58.5 110.75" stroke="#00E0FF" stroke-width="1.1" stroke-miterlimit="10" stroke-linecap="round" stroke-linejoin="round"/>
<path d="M55.75 119L61.25 113.5" stroke="#00E0FF" stroke-width="1.1" stroke-miterlimit="10" stroke-linecap="round" stroke-linejoin="round"/>
<path d="M61.25 119L66.75 113.5" stroke="#00E0FF" stroke-width="1.1" stroke-miterlimit="10" stroke-linecap="round" stroke-linejoin="round"/>
<path d="M66.75 119L72.25 113.5" stroke="#00E0FF" stroke-width="1.1" stroke-miterlimit="10" stroke-linecap="round" stroke-linejoin="round"/>
<path d="M72.25 119L77.75 113.5" stroke="#00E0FF" stroke-width="1.1" stroke-miterlimit="10" stroke-linecap="round" stroke-linejoin="round"/>
<path d="M33.75 119L58.5 94.25" stroke="#00E0FF" stroke-width="1.1" stroke-miterlimit="10" stroke-linecap="round" stroke-linejoin="round"/>
<path d="M39.25 119L58.5 99.75" stroke="#00E0FF" stroke-width="1.1" stroke-miterlimit="10" stroke-linecap="round" stroke-linejoin="round"/>
<path d="M44.75 119L58.5 105.25" stroke="#00E0FF" stroke-width="1.1" stroke-miterlimit="10" stroke-linecap="round" stroke-linejoin="round"/>
<path d="M31 116.25L55.75 91.5" stroke="#00E0FF" stroke-width="1.1" stroke-miterlimit="10" stroke-linecap="round" stroke-linejoin="round"/>
<path d="M31 110.75L50.25 91.5" stroke="#00E0FF" stroke-width="1.1" stroke-miterlimit="10" stroke-linecap="round" stroke-linejoin="round"/>
<path d="M31 105.25L44.75 91.5" stroke="#00E0FF" stroke-width="1.1" stroke-miterlimit="10" stroke-linecap="round" stroke-linejoin="round"/>
<path d="M31 99.75L39.25 91.5" stroke="#00E0FF" stroke-width="1.1" stroke-miterlimit="10" stroke-linecap="round" stroke-linejoin="round"/>
<path d="M31 88.75L36.5 83.25" stroke="#00E0FF" stroke-width="1.1" stroke-miterlimit="10" stroke-linecap="round" stroke-linejoin="round"/>
<path d="M31 94.25L36.5 88.75" stroke="#00E0FF" stroke-width="1.1" stroke-miterlimit="10" stroke-linecap="round" stroke-linejoin="round"/>
<path d="M31 83.25L36.5 77.75" stroke="#00E0FF" stroke-width="1.1" stroke-miterlimit="10" stroke-linecap="round" stroke-linejoin="round"/>
<path d="M31 77.75L36.5 72.25" stroke="#00E0FF" stroke-width="1.1" stroke-miterlimit="10" stroke-linecap="round" stroke-linejoin="round"/>
<path d="M31 72.25L36.5 66.75" stroke="#00E0FF" stroke-width="1.1" stroke-miterlimit="10" stroke-linecap="round" stroke-linejoin="round"/>
<path d="M31 66.75L36.5 61.25" stroke="#00E0FF" stroke-width="1.1" stroke-miterlimit="10" stroke-linecap="round" stroke-linejoin="round"/>
<path d="M31 61.25L36.5 55.75" stroke="#00E0FF" stroke-width="1.1" stroke-miterlimit="10" stroke-linecap="round" stroke-linejoin="round"/>
<path d="M31 55.75L36.5 50.25" stroke="#00E0FF" stroke-width="1.1" stroke-miterlimit="10" stroke-linecap="round" stroke-linejoin="round"/>
<path d="M47.5 36.5L53 31" stroke="#00E0FF" stroke-width="0.55"/>
<path d="M47.5 36.5L53 31" stroke="#00E0FF" stroke-width="0.55" stroke-miterlimit="10" stroke-linecap="round" stroke-linejoin="round"/>
<path d="M53 36.5L58.5 31" stroke="#00E0FF" stroke-width="0.55" stroke-miterlimit="10" stroke-linecap="round" stroke-linejoin="round"/>
<path d="M58.5 36.5L64 31" stroke="#00E0FF" stroke-width="0.55" stroke-miterlimit="10" stroke-linecap="round" stroke-linejoin="round"/>
<path d="M64 36.5L69.5 31" stroke="#00E0FF" stroke-width="0.55" stroke-miterlimit="10" stroke-linecap="round" stroke-linejoin="round"/>
<path d="M69.5 36.5L75 31" stroke="#00E0FF" stroke-width="0.55" stroke-miterlimit="10" stroke-linecap="round" stroke-linejoin="round"/>
<path d="M69.5 42L80.5 31" stroke="#00E0FF" stroke-width="0.55" stroke-miterlimit="10" stroke-linecap="round" stroke-linejoin="round"/>
<path d="M69.5 47.5L86 31" stroke="#00E0FF" stroke-width="0.55" stroke-miterlimit="10" stroke-linecap="round" stroke-linejoin="round"/>
<path d="M75 47.5L91.5 31" stroke="#00E0FF" stroke-width="0.55" stroke-miterlimit="10" stroke-linecap="round" stroke-linejoin="round"/>
<path d="M91.5 36.5L97 31" stroke="#00E0FF" stroke-width="0.55" stroke-miterlimit="10" stroke-linecap="round" stroke-linejoin="round"/>
<path d="M97 36.5L102.5 31" stroke="#00E0FF" stroke-width="0.55" stroke-miterlimit="10" stroke-linecap="round" stroke-linejoin="round"/>
<path d="M102.5 36.5L108 31" stroke="#00E0FF" stroke-width="0.55" stroke-miterlimit="10" stroke-linecap="round" stroke-linejoin="round"/>
<path d="M108 36.5L113.5 31" stroke="#00E0FF" stroke-width="0.55" stroke-miterlimit="10" stroke-linecap="round" stroke-linejoin="round"/>
<path d="M113.5 36.5L119 31" stroke="#00E0FF" stroke-width="0.55" stroke-miterlimit="10" stroke-linecap="round" stroke-linejoin="round"/>
<path d="M113.5 42L119 36.5" stroke="#00E0FF" stroke-width="0.55" stroke-miterlimit="10" stroke-linecap="round" stroke-linejoin="round"/>
<path d="M113.5 47.5L119 42" stroke="#00E0FF" stroke-width="0.55" stroke-miterlimit="10" stroke-linecap="round" stroke-linejoin="round"/>
<path d="M113.5 53L119 47.5" stroke="#00E0FF" stroke-width="0.55" stroke-miterlimit="10" stroke-linecap="round" stroke-linejoin="round"/>
<path d="M113.5 58.5L119 53" stroke="#00E0FF" stroke-width="0.55" stroke-miterlimit="10" stroke-linecap="round" stroke-linejoin="round"/>
<path d="M113.5 64L119 58.5" stroke="#00E0FF" stroke-width="0.55" stroke-miterlimit="10" stroke-linecap="round" stroke-linejoin="round"/>
<path d="M113.5 69.5L119 64" stroke="#00E0FF" stroke-width="0.55" stroke-miterlimit="10" stroke-linecap="round" stroke-linejoin="round"/>
<path d="M113.5 75L119 69.5" stroke="#00E0FF" stroke-width="0.55" stroke-miterlimit="10" stroke-linecap="round" stroke-linejoin="round"/>
<path d="M113.5 80.5L119 75" stroke="#00E0FF" stroke-width="0.55" stroke-miterlimit="10" stroke-linecap="round" stroke-linejoin="round"/>
<path d="M102.5 97L119 80.5" stroke="#00E0FF" stroke-width="0.55" stroke-miterlimit="10" stroke-linecap="round" stroke-linejoin="round"/>
<path d="M102.5 102.5L119 86" stroke="#00E0FF" stroke-width="0.55" stroke-miterlimit="10" stroke-linecap="round" stroke-linejoin="round"/>
<path d="M102.5 113.5L119 97" stroke="#00E0FF" stroke-width="0.55" stroke-miterlimit="10" stroke-linecap="round" stroke-linejoin="round"/>
<path d="M102.5 108L119 91.5" stroke="#00E0FF" stroke-width="0.55" stroke-miterlimit="10" stroke-linecap="round" stroke-linejoin="round"/>
<path d="M50.25 36.5L55.75 31" stroke="#00E0FF" stroke-width="0.55" stroke-miterlimit="10" stroke-linecap="round" stroke-linejoin="round"/>
<path d="M55.75 36.5L61.25 31" stroke="#00E0FF" stroke-width="0.55" stroke-miterlimit="10" stroke-linecap="round" stroke-linejoin="round"/>
<path d="M61.25 36.5L66.75 31" stroke="#00E0FF" stroke-width="0.55" stroke-miterlimit="10" stroke-linecap="round" stroke-linejoin="round"/>
<path d="M66.75 36.5L72.25 31" stroke="#00E0FF" stroke-width="0.55" stroke-miterlimit="10" stroke-linecap="round" stroke-linejoin="round"/>
<path d="M69.5 39.25L77.75 31" stroke="#00E0FF" stroke-width="0.55" stroke-miterlimit="10" stroke-linecap="round" stroke-linejoin="round"/>
<path d="M69.5 44.75L83.25 31" stroke="#00E0FF" stroke-width="0.55" stroke-miterlimit="10" stroke-linecap="round" stroke-linejoin="round"/>
<path d="M72.25 47.5L88.75 31" stroke="#00E0FF" stroke-width="0.55" stroke-miterlimit="10" stroke-linecap="round" stroke-linejoin="round"/>
<path d="M77.75 47.5L94.25 31" stroke="#00E0FF" stroke-width="0.55" stroke-miterlimit="10" stroke-linecap="round" stroke-linejoin="round"/>
<path d="M94.25 36.5L99.75 31" stroke="#00E0FF" stroke-width="0.55" stroke-miterlimit="10" stroke-linecap="round" stroke-linejoin="round"/>
<path d="M99.75 36.5L105.25 31" stroke="#00E0FF" stroke-width="0.55" stroke-miterlimit="10" stroke-linecap="round" stroke-linejoin="round"/>
<path d="M105.25 36.5L110.75 31" stroke="#00E0FF" stroke-width="0.55" stroke-miterlimit="10" stroke-linecap="round" stroke-linejoin="round"/>
<path d="M110.75 36.5L116.25 31" stroke="#00E0FF" stroke-width="0.55" stroke-miterlimit="10" stroke-linecap="round" stroke-linejoin="round"/>
<path d="M113.5 39.25L119 33.75" stroke="#00E0FF" stroke-width="0.55" stroke-miterlimit="10" stroke-linecap="round" stroke-linejoin="round"/>
<path d="M113.5 44.75L119 39.25" stroke="#00E0FF" stroke-width="0.55" stroke-miterlimit="10" stroke-linecap="round" stroke-linejoin="round"/>
<path d="M113.5 50.25L119 44.75" stroke="#00E0FF" stroke-width="0.55" stroke-miterlimit="10" stroke-linecap="round" stroke-linejoin="round"/>
<path d="M113.5 55.75L119 50.25" stroke="#00E0FF" stroke-width="0.55" stroke-miterlimit="10" stroke-linecap="round" stroke-linejoin="round"/>
<path d="M113.5 61.25L119 55.75" stroke="#00E0FF" stroke-width="0.55" stroke-miterlimit="10" stroke-linecap="round" stroke-linejoin="round"/>
<path d="M113.5 66.75L119 61.25" stroke="#00E0FF" stroke-width="0.55" stroke-miterlimit="10" stroke-linecap="round" stroke-linejoin="round"/>
<path d="M113.5 72.25L119 66.75" stroke="#00E0FF" stroke-width="0.55" stroke-miterlimit="10" stroke-linecap="round" stroke-linejoin="round"/>
<path d="M113.5 77.75L119 72.25" stroke="#00E0FF" stroke-width="0.55" stroke-miterlimit="10" stroke-linecap="round" stroke-linejoin="round"/>
<path d="M102.5 94.25L119 77.75" stroke="#00E0FF" stroke-width="0.55" stroke-miterlimit="10" stroke-linecap="round" stroke-linejoin="round"/>
<path d="M102.5 99.75L119 83.25" stroke="#00E0FF" stroke-width="0.55" stroke-miterlimit="10" stroke-linecap="round" stroke-linejoin="round"/>
<path d="M102.5 105.25L119 88.75" stroke="#00E0FF" stroke-width="0.55" stroke-miterlimit="10" stroke-linecap="round" stroke-linejoin="round"/>
<path d="M102.5 110.75L119 94.25" stroke="#00E0FF" stroke-width="0.55" stroke-miterlimit="10" stroke-linecap="round" stroke-linejoin="round"/>
<path d="M47.5 39.25L50.25 36.5" stroke="#00E0FF" stroke-width="1.65" stroke-miterlimit="10" stroke-linecap="round" stroke-linejoin="round"/>
<path d="M47.5 44.75L55.75 36.5" stroke="#00E0FF" stroke-width="1.65" stroke-miterlimit="10" stroke-linecap="round" stroke-linejoin="round"/>
<path d="M47.5 47.5L58.5 36.5" stroke="#00E0FF" stroke-width="1.65" stroke-miterlimit="10" stroke-linecap="round" stroke-linejoin="round"/>
<path d="M47.5 50.25L61.25 36.5" stroke="#00E0FF" stroke-width="1.65" stroke-miterlimit="10" stroke-linecap="round" stroke-linejoin="round"/>
<path d="M47.5 53L64 36.5" stroke="#00E0FF" stroke-width="1.65" stroke-miterlimit="10" stroke-linecap="round" stroke-linejoin="round"/>
<path d="M47.5 55.75L66.75 36.5" stroke="#00E0FF" stroke-width="1.65" stroke-miterlimit="10" stroke-linecap="round" stroke-linejoin="round"/>
<path d="M47.5 58.5L69.5 36.5" stroke="#00E0FF" stroke-width="1.65" stroke-miterlimit="10" stroke-linecap="round" stroke-linejoin="round"/>
<path d="M47.5 61.25L69.5 39.25" stroke="#00E0FF" stroke-width="1.65" stroke-miterlimit="10" stroke-linecap="round" stroke-linejoin="round"/>
<path d="M47.5 64L69.5 42" stroke="#00E0FF" stroke-width="1.65" stroke-miterlimit="10" stroke-linecap="round" stroke-linejoin="round"/>
<path d="M47.5 66.75L69.5 44.75" stroke="#00E0FF" stroke-width="1.65" stroke-miterlimit="10" stroke-linecap="round" stroke-linejoin="round"/>
<path d="M47.5 69.5L69.5 47.5" stroke="#00E0FF" stroke-width="1.65" stroke-miterlimit="10" stroke-linecap="round" stroke-linejoin="round"/>
<path d="M47.5 72.25L69.5 50.25" stroke="#00E0FF" stroke-width="1.65" stroke-miterlimit="10" stroke-linecap="round" stroke-linejoin="round"/>
<path d="M47.5 75L69.5 53" stroke="#00E0FF" stroke-width="1.65" stroke-miterlimit="10" stroke-linecap="round" stroke-linejoin="round"/>
<path d="M47.5 77.75L69.5 55.75" stroke="#00E0FF" stroke-width="1.65" stroke-miterlimit="10" stroke-linecap="round" stroke-linejoin="round"/>
<path d="M47.5 80.5L69.5 58.5" stroke="#00E0FF" stroke-width="1.65" stroke-miterlimit="10" stroke-linecap="round" stroke-linejoin="round"/>
<path d="M50.25 80.5L72.25 58.5" stroke="#00E0FF" stroke-width="1.65" stroke-miterlimit="10" stroke-linecap="round" stroke-linejoin="round"/>
<path d="M53 80.5L75 58.5" stroke="#00E0FF" stroke-width="1.65" stroke-miterlimit="10" stroke-linecap="round" stroke-linejoin="round"/>
<path d="M55.75 80.5L77.75 58.5" stroke="#00E0FF" stroke-width="1.65" stroke-miterlimit="10" stroke-linecap="round" stroke-linejoin="round"/>
<path d="M91.5 47.5L102.5 36.5" stroke="#00E0FF" stroke-width="1.65" stroke-miterlimit="10" stroke-linecap="round" stroke-linejoin="round"/>
<path d="M58.5 80.5L80.5 58.5" stroke="#00E0FF" stroke-width="1.65" stroke-miterlimit="10" stroke-linecap="round" stroke-linejoin="round"/>
<path d="M91.5 50.25L105.25 36.5" stroke="#00E0FF" stroke-width="1.65" stroke-miterlimit="10" stroke-linecap="round" stroke-linejoin="round"/>
<path d="M61.25 80.5L83.25 58.5" stroke="#00E0FF" stroke-width="1.65" stroke-miterlimit="10" stroke-linecap="round" stroke-linejoin="round"/>
<path d="M91.5 42L97 36.5" stroke="#00E0FF" stroke-width="1.65" stroke-miterlimit="10" stroke-linecap="round" stroke-linejoin="round"/>
<path d="M91.5 44.75L99.75 36.5" stroke="#00E0FF" stroke-width="1.65" stroke-miterlimit="10" stroke-linecap="round" stroke-linejoin="round"/>
<path d="M91.5 39.25L94.25 36.5" stroke="#00E0FF" stroke-width="1.65" stroke-miterlimit="10" stroke-linecap="round" stroke-linejoin="round"/>
<path d="M91.5 55.75L110.75 36.5" stroke="#00E0FF" stroke-width="1.65" stroke-miterlimit="10" stroke-linecap="round" stroke-linejoin="round"/>
<path d="M66.75 80.5L88.75 58.5" stroke="#00E0FF" stroke-width="1.65" stroke-miterlimit="10" stroke-linecap="round" stroke-linejoin="round"/>
<path d="M91.5 53L108 36.5" stroke="#00E0FF" stroke-width="1.65" stroke-miterlimit="10" stroke-linecap="round" stroke-linejoin="round"/>
<path d="M64 80.5L86 58.5" stroke="#00E0FF" stroke-width="1.65" stroke-miterlimit="10" stroke-linecap="round" stroke-linejoin="round"/>
<path d="M69.5 80.5L113.5 36.5" stroke="#00E0FF" stroke-width="1.65" stroke-miterlimit="10" stroke-linecap="round" stroke-linejoin="round"/>
<path d="M69.5 83.25L113.5 39.25" stroke="#00E0FF" stroke-width="1.65" stroke-miterlimit="10" stroke-linecap="round" stroke-linejoin="round"/>
<path d="M69.5 86L113.5 42" stroke="#00E0FF" stroke-width="1.65" stroke-miterlimit="10" stroke-linecap="round" stroke-linejoin="round"/>
<path d="M69.5 91.5L113.5 47.5" stroke="#00E0FF" stroke-width="1.65" stroke-miterlimit="10" stroke-linecap="round" stroke-linejoin="round"/>
<path d="M69.5 88.75L113.5 44.75" stroke="#00E0FF" stroke-width="1.65" stroke-miterlimit="10" stroke-linecap="round" stroke-linejoin="round"/>
<path d="M69.5 94.25L113.5 50.25" stroke="#00E0FF" stroke-width="1.65" stroke-miterlimit="10" stroke-linecap="round" stroke-linejoin="round"/>
<path d="M47.5 42L53 36.5" stroke="#00E0FF" stroke-width="1.65" stroke-miterlimit="10" stroke-linecap="round" stroke-linejoin="round"/>
<path d="M69.5 99.75L113.5 55.75" stroke="#00E0FF" stroke-width="1.65" stroke-miterlimit="10" stroke-linecap="round" stroke-linejoin="round"/>
<path d="M94.25 80.5L113.5 61.25" stroke="#00E0FF" stroke-width="1.65" stroke-miterlimit="10" stroke-linecap="round" stroke-linejoin="round"/>
<path d="M72.25 102.5L91.5 83.25" stroke="#00E0FF" stroke-width="1.65" stroke-miterlimit="10" stroke-linecap="round" stroke-linejoin="round"/>
<path d="M69.5 102.5L113.5 58.5" stroke="#00E0FF" stroke-width="1.65" stroke-miterlimit="10" stroke-linecap="round" stroke-linejoin="round"/>
<path d="M69.5 97L113.5 53" stroke="#00E0FF" stroke-width="1.65" stroke-miterlimit="10" stroke-linecap="round" stroke-linejoin="round"/>
<path d="M97 80.5L113.5 64" stroke="#00E0FF" stroke-width="1.65" stroke-miterlimit="10" stroke-linecap="round" stroke-linejoin="round"/>
<path d="M75 102.5L91.5 86" stroke="#00E0FF" stroke-width="1.65" stroke-miterlimit="10" stroke-linecap="round" stroke-linejoin="round"/>
<path d="M102.5 80.5L113.5 69.5" stroke="#00E0FF" stroke-width="1.65" stroke-miterlimit="10" stroke-linecap="round" stroke-linejoin="round"/>
<path d="M80.5 102.5L91.5 91.5" stroke="#00E0FF" stroke-width="1.65" stroke-miterlimit="10" stroke-linecap="round" stroke-linejoin="round"/>
<path d="M99.75 80.5L113.5 66.75" stroke="#00E0FF" stroke-width="1.65" stroke-miterlimit="10" stroke-linecap="round" stroke-linejoin="round"/>
<path d="M77.75 102.5L91.5 88.75" stroke="#00E0FF" stroke-width="1.65" stroke-miterlimit="10" stroke-linecap="round" stroke-linejoin="round"/>
<path d="M83.25 102.5L91.5 94.25" stroke="#00E0FF" stroke-width="1.65" stroke-miterlimit="10" stroke-linecap="round" stroke-linejoin="round"/>
<path d="M88.75 102.5L91.5 99.75" stroke="#00E0FF" stroke-width="1.65" stroke-miterlimit="10" stroke-linecap="round" stroke-linejoin="round"/>
<path d="M86 102.5L91.5 97" stroke="#00E0FF" stroke-width="1.65" stroke-miterlimit="10" stroke-linecap="round" stroke-linejoin="round"/>
<path d="M105.25 80.5L113.5 72.25" stroke="#00E0FF" stroke-width="1.65" stroke-miterlimit="10" stroke-linecap="round" stroke-linejoin="round"/>
<path d="M110.75 80.5L113.5 77.75" stroke="#00E0FF" stroke-width="1.65" stroke-miterlimit="10" stroke-linecap="round" stroke-linejoin="round"/>
<path d="M108 80.5L113.5 75" stroke="#00E0FF" stroke-width="1.65" stroke-miterlimit="10" stroke-linecap="round" stroke-linejoin="round"/>
<defs>
<linearGradient id="paint0_linear_5218_248383" x1="75" y1="0" x2="75" y2="150" gradientUnits="userSpaceOnUse">
<stop stop-color="#000409"/>
<stop offset="1" stop-color="#001D3F"/>
</linearGradient>
</defs>
</svg>
